<svg width="16" height="16" viewBox="0 0 16 16" fill="none" xmlns="http://www.w3.org/2000/svg">
<path fill-rule="evenodd" clip-rule="evenodd" d="M15.3537 2.64592C15.4002 2.69236 15.4372 2.74754 15.4624 2.80828C15.4876 2.86903 15.5005 2.93415 15.5005 2.99992C15.5005 3.06568 15.4876 3.13081 15.4624 3.19155C15.4372 3.2523 15.4002 3.30747 15.3537 3.35392L8.35366 10.3539C8.30721 10.4005 8.25203 10.4374 8.19129 10.4626C8.13054 10.4878 8.06542 10.5008 7.99966 10.5008C7.93389 10.5008 7.86877 10.4878 7.80802 10.4626C7.74728 10.4374 7.6921 10.4005 7.64566 10.3539L4.64566 7.35392C4.59917 7.30743 4.56229 7.25224 4.53713 7.1915C4.51197 7.13076 4.49902 7.06566 4.49902 6.99992C4.49902 6.93417 4.51197 6.86907 4.53713 6.80833C4.56229 6.74759 4.59917 6.6924 4.64566 6.64592C4.69214 6.59943 4.74733 6.56255 4.80807 6.53739C4.86881 6.51223 4.93391 6.49929 4.99966 6.49929C5.0654 6.49929 5.1305 6.51223 5.19124 6.53739C5.25198 6.56255 5.30717 6.59943 5.35366 6.64592L7.99966 9.29292L14.6457 2.64592C14.6921 2.59935 14.7473 2.56241 14.808 2.5372C14.8688 2.512 14.9339 2.49902 14.9997 2.49902C15.0654 2.49902 15.1305 2.512 15.1913 2.5372C15.252 2.56241 15.3072 2.59935 15.3537 2.64592V2.64592Z" fill="#27214D"/>
<path fill-rule="evenodd" clip-rule="evenodd" d="M1.5 13C1.5 13.3978 1.65804 13.7794 1.93934 14.0607C2.22064 14.342 2.60218 14.5 3 14.5H13C13.3978 14.5 13.7794 14.342 14.0607 14.0607C14.342 13.7794 14.5 13.3978 14.5 13V8C14.5 7.86739 14.4473 7.74021 14.3536 7.64645C14.2598 7.55268 14.1326 7.5 14 7.5C13.8674 7.5 13.7402 7.55268 13.6464 7.64645C13.5527 7.74021 13.5 7.86739 13.5 8V13C13.5 13.1326 13.4473 13.2598 13.3536 13.3536C13.2598 13.4473 13.1326 13.5 13 13.5H3C2.86739 13.5 2.74021 13.4473 2.64645 13.3536C2.55268 13.2598 2.5 13.1326 2.5 13V3C2.5 2.86739 2.55268 2.74021 2.64645 2.64645C2.74021 2.55268 2.86739 2.5 3 2.5H11C11.1326 2.5 11.2598 2.44732 11.3536 2.35355C11.4473 2.25979 11.5 2.13261 11.5 2C11.5 1.86739 11.4473 1.74021 11.3536 1.64645C11.2598 1.55268 11.1326 1.5 11 1.5H3C2.60218 1.5 2.22064 1.65804 1.93934 1.93934C1.65804 2.22064 1.5 2.60218 1.5 3V13Z" fill="black"/>
</svg>
