<svg width="16" height="16" viewBox="0 0 16 16" fill="none" xmlns="http://www.w3.org/2000/svg">
<path fill-rule="evenodd" clip-rule="evenodd" d="M8.96967 4.97004C9.10962 4.83131 9.29854 4.75324 9.4956 4.7527C9.69266 4.75215 9.88201 4.82918 10.0227 4.96714C10.1634 5.10509 10.2442 5.29288 10.2476 5.48991C10.2509 5.68694 10.1766 5.87737 10.0407 6.02004L6.04867 11.01C5.98006 11.0839 5.89725 11.1432 5.8052 11.1844C5.71315 11.2256 5.61374 11.2478 5.51292 11.2496C5.4121 11.2515 5.31194 11.233 5.21843 11.1953C5.12491 11.1575 5.03997 11.1014 4.96867 11.03L2.32367 8.38404C2.24998 8.31538 2.19088 8.23258 2.14989 8.14058C2.1089 8.04858 2.08685 7.94927 2.08508 7.84857C2.0833 7.74786 2.10183 7.64783 2.13955 7.55445C2.17727 7.46106 2.23341 7.37622 2.30463 7.30501C2.37585 7.23379 2.46068 7.17764 2.55407 7.13992C2.64746 7.1022 2.74749 7.08367 2.84819 7.08545C2.94889 7.08723 3.04821 7.10927 3.14021 7.15026C3.23221 7.19125 3.31501 7.25036 3.38367 7.32404L5.47767 9.41704L8.94967 4.99204C8.9559 4.98432 8.96258 4.97698 8.96967 4.97004V4.97004ZM8.04967 10.11L8.96967 11.03C9.04095 11.1012 9.12583 11.1573 9.21925 11.1949C9.31267 11.2325 9.41272 11.251 9.51341 11.2491C9.61411 11.2472 9.7134 11.2251 9.80537 11.184C9.89733 11.143 9.98007 11.0838 10.0487 11.01L14.0407 6.02004C14.1124 5.94924 14.1691 5.86472 14.2074 5.77152C14.2457 5.67832 14.2649 5.57835 14.2637 5.47758C14.2625 5.37682 14.241 5.27732 14.2006 5.18504C14.1601 5.09276 14.1014 5.00958 14.0281 4.94047C13.9547 4.87137 13.8682 4.81775 13.7737 4.78282C13.6792 4.74789 13.5786 4.73237 13.4779 4.73718C13.3773 4.742 13.2786 4.76705 13.1878 4.81084C13.0971 4.85462 13.0161 4.91625 12.9497 4.99204L9.47667 9.41704L8.99167 8.93104L8.04867 10.11H8.04967Z" fill="#433984"/>
</svg>
