<svg width="52" height="18" viewBox="0 0 52 18" fill="none" xmlns="http://www.w3.org/2000/svg">
<path d="M6.20898 0L2.65723 6.01562C2.49198 6.29143 2.71196 6.67746 3.09766 6.67773H6.68457L3.26367 13.4062C3.04326 13.8473 3.6512 14.2892 4.03711 13.958L13.1406 5.29883C13.4709 4.96834 13.2498 4.47168 12.8086 4.47168H9.38867L12.0732 0H15.9014V9.37305C15.9014 11.8856 15.2047 13.8269 13.8115 15.1953C12.4175 16.5637 10.4646 17.248 7.95117 17.248C5.43772 17.248 3.48409 16.5644 2.09082 15.1953C0.696802 13.8269 0 11.8857 0 9.37305V0H6.20898ZM24.4639 6.20801C25.2348 6.20805 25.9326 6.3694 26.5566 6.69141C27.1807 7.00108 27.6705 7.49042 28.0254 8.15918C28.3924 8.82792 28.5761 9.69488 28.5762 10.7598V16.5566H24.4268V11.4844C24.4267 10.8532 24.3167 10.4076 24.0967 10.1475C23.8765 9.87506 23.5765 9.73838 23.1973 9.73828C22.9158 9.73828 22.652 9.80613 22.4072 9.94238C22.1747 10.0663 21.9847 10.277 21.8379 10.5742C21.7033 10.8715 21.6367 11.2744 21.6367 11.7822V16.5566H17.4873V6.39355H21.4346V7.40137C21.6724 7.15944 21.9341 6.95241 22.2236 6.78418C22.8968 6.4002 23.6439 6.20801 24.4639 6.20801ZM33.9385 16.5566H29.8438V6.54297H33.9385V16.5566ZM40.874 5.96191C41.9789 5.96194 42.9591 6.18631 43.8145 6.63477C44.6698 7.08323 45.3353 7.70572 45.8105 8.50293C46.2977 9.30021 46.541 10.216 46.541 11.25C46.541 12.284 46.2977 13.1998 45.8105 13.9971C45.3353 14.7944 44.6699 15.4238 43.8145 15.8848C42.9591 16.3332 41.9788 16.5566 40.874 16.5566C39.7693 16.5566 38.7889 16.3331 37.9336 15.8848C37.0901 15.4239 36.4246 14.7943 35.9375 13.9971C35.4504 13.1998 35.207 12.284 35.207 11.25C35.207 10.216 35.4504 9.30021 35.9375 8.50293C36.4246 7.70575 37.0901 7.0832 37.9336 6.63477C38.789 6.18634 39.7691 5.96191 40.874 5.96191ZM40.874 9.25098C40.5772 9.25098 40.3098 9.32528 40.0723 9.47461C39.8347 9.62407 39.6445 9.84858 39.502 10.1475C39.3594 10.434 39.2881 10.8015 39.2881 11.25C39.2881 11.686 39.3594 12.0596 39.502 12.3711C39.6445 12.6701 39.8347 12.8945 40.0723 13.0439C40.3098 13.1933 40.5771 13.2686 40.874 13.2686C41.171 13.2685 41.4382 13.1934 41.6758 13.0439C41.9134 12.8945 42.1035 12.6701 42.2461 12.3711C42.3886 12.0597 42.46 11.686 42.46 11.25C42.46 10.8015 42.3887 10.434 42.2461 10.1475C42.1035 9.8485 41.9134 9.62409 41.6758 9.47461C41.4382 9.32519 41.1709 9.25101 40.874 9.25098ZM31.8906 1.52637C32.6394 1.52637 33.2377 1.71545 33.6846 2.09375C34.1315 2.47209 34.3545 2.96057 34.3545 3.55859C34.3545 4.19317 34.1314 4.71787 33.6846 5.13281C33.2377 5.53558 32.6395 5.7373 31.8906 5.7373C31.1419 5.73727 30.5445 5.53547 30.0977 5.13281C29.6507 4.73004 29.4268 4.22989 29.4268 3.63184C29.4268 3.03381 29.6508 2.53362 30.0977 2.13086C30.5445 1.72823 31.1419 1.5264 31.8906 1.52637Z" fill="#27214D"/>
</svg>
