<svg width="24" height="24" viewBox="0 0 24 24" fill="none" xmlns="http://www.w3.org/2000/svg">
<g clip-path="url(#clip0_4019_1053)">
<path fill-rule="evenodd" clip-rule="evenodd" d="M9.01743 0.75C9.01743 0.551088 9.09645 0.360322 9.2371 0.21967C9.37775 0.0790176 9.56852 0 9.76743 0L14.2674 0C14.4663 0 14.6571 0.0790176 14.7978 0.21967C14.9384 0.360322 15.0174 0.551088 15.0174 0.75C15.0174 0.948912 14.9384 1.13968 14.7978 1.28033C14.6571 1.42098 14.4663 1.5 14.2674 1.5H13.5174V3.105C15.5601 3.39986 17.4707 4.2901 19.0104 5.6645C20.55 7.0389 21.6506 8.83652 22.1746 10.8328C22.6985 12.829 22.6226 14.9354 21.9564 16.8888C21.2901 18.8422 20.063 20.556 18.4284 21.816L19.3299 22.719C19.4708 22.8596 19.55 23.0504 19.5501 23.2495C19.5502 23.4485 19.4713 23.6394 19.3307 23.7803C19.19 23.9211 18.9992 24.0003 18.8002 24.0004C18.6012 24.0006 18.4103 23.9216 18.2694 23.781L17.1504 22.662C15.5829 23.5419 13.815 24.0027 12.0174 24C10.2199 24.0027 8.45195 23.5419 6.88443 22.662L5.76543 23.781C5.6957 23.8506 5.61293 23.9058 5.52186 23.9435C5.43079 23.9811 5.3332 24.0005 5.23465 24.0004C5.1361 24.0003 5.03854 23.9809 4.94752 23.9431C4.8565 23.9053 4.77381 23.85 4.70418 23.7803C4.63455 23.7105 4.57933 23.6278 4.54168 23.5367C4.50403 23.4456 4.48469 23.348 4.48476 23.2495C4.4849 23.0504 4.5641 22.8596 4.70493 22.719L5.60793 21.816C3.97336 20.5561 2.74627 18.8424 2.07994 16.8892C1.41361 14.9359 1.33759 12.8296 1.86137 10.8334C2.38515 8.83714 3.48551 7.0395 5.025 5.66501C6.56448 4.29051 8.47484 3.4001 10.5174 3.105V1.5H9.76743C9.56852 1.5 9.37775 1.42098 9.2371 1.28033C9.09645 1.13968 9.01743 0.948912 9.01743 0.75ZM1.30743 8.0805C0.91932 7.7429 0.604815 7.32907 0.383474 6.86473C0.162133 6.40039 0.0386885 5.89548 0.0208184 5.3814C0.00294829 4.86732 0.0910343 4.35505 0.279599 3.87647C0.468163 3.39788 0.753173 2.96321 1.1169 2.59947C1.48064 2.23574 1.91531 1.95073 2.3939 1.76217C2.87248 1.5736 3.38475 1.48552 3.89883 1.50339C4.41291 1.52126 4.91782 1.6447 5.38216 1.86604C5.8465 2.08738 6.26033 2.40189 6.59793 2.79C4.31785 3.94762 2.46505 5.80042 1.30743 8.0805ZM17.4369 2.79C17.7745 2.40189 18.1884 2.08738 18.6527 1.86604C19.117 1.6447 19.6219 1.52126 20.136 1.50339C20.6501 1.48552 21.1624 1.5736 21.641 1.76217C22.1195 1.95073 22.5542 2.23574 22.918 2.59947C23.2817 2.96321 23.5667 3.39788 23.7553 3.87647C23.9438 4.35505 24.0319 4.86732 24.014 5.3814C23.9962 5.89548 23.8727 6.40039 23.6514 6.86473C23.43 7.32907 23.1155 7.7429 22.7274 8.0805C21.5698 5.80042 19.717 3.94762 17.4369 2.79ZM12.7674 8.25C12.7674 8.05109 12.6884 7.86032 12.5478 7.71967C12.4071 7.57902 12.2163 7.5 12.0174 7.5C11.8185 7.5 11.6278 7.57902 11.4871 7.71967C11.3464 7.86032 11.2674 8.05109 11.2674 8.25V13.293L9.12393 16.863C9.02149 17.0337 8.99104 17.238 9.03929 17.4312C9.08753 17.6243 9.21051 17.7903 9.38118 17.8927C9.55185 17.9952 9.75622 18.0256 9.94933 17.9774C10.1424 17.9291 10.3085 17.8062 10.4109 17.6355L12.6609 13.8855C12.7307 13.769 12.7675 13.6358 12.7674 13.5V8.25Z" fill="black"/>
</g>
<defs>
<clipPath id="clip0_4019_1053">
<rect width="24" height="24" fill="white"/>
</clipPath>
</defs>
</svg>
