<svg width="24" height="24" viewBox="0 0 24 24" fill="none" xmlns="http://www.w3.org/2000/svg">
<g clip-path="url(#clip0_4019_1185)">
<path fill-rule="evenodd" clip-rule="evenodd" d="M12 22.5C14.7848 22.5 17.4555 21.3938 19.4246 19.4246C21.3938 17.4555 22.5 14.7848 22.5 12C22.5 9.21523 21.3938 6.54451 19.4246 4.57538C17.4555 2.60625 14.7848 1.5 12 1.5C9.21523 1.5 6.54451 2.60625 4.57538 4.57538C2.60625 6.54451 1.5 9.21523 1.5 12C1.5 14.7848 2.60625 17.4555 4.57538 19.4246C6.54451 21.3938 9.21523 22.5 12 22.5ZM12 24C15.1826 24 18.2348 22.7357 20.4853 20.4853C22.7357 18.2348 24 15.1826 24 12C24 8.8174 22.7357 5.76516 20.4853 3.51472C18.2348 1.26428 15.1826 0 12 0C8.8174 0 5.76516 1.26428 3.51472 3.51472C1.26428 5.76516 0 8.8174 0 12C0 15.1826 1.26428 18.2348 3.51472 20.4853C5.76516 22.7357 8.8174 24 12 24Z" fill="black"/>
<path fill-rule="evenodd" clip-rule="evenodd" d="M12 17.9999C12.1989 17.9999 12.3896 17.9209 12.5303 17.7802C12.671 17.6396 12.75 17.4488 12.75 17.2499V8.56038L15.969 11.7809C16.0387 11.8506 16.1215 11.9059 16.2126 11.9437C16.3037 11.9814 16.4014 12.0008 16.5 12.0008C16.5986 12.0008 16.6962 11.9814 16.7873 11.9437C16.8785 11.9059 16.9612 11.8506 17.031 11.7809C17.1007 11.7111 17.156 11.6284 17.1938 11.5373C17.2315 11.4461 17.2509 11.3485 17.2509 11.2499C17.2509 11.1513 17.2315 11.0536 17.1938 10.9625C17.156 10.8714 17.1007 10.7886 17.031 10.7189L12.531 6.21888C12.4613 6.14903 12.3785 6.09362 12.2874 6.05581C12.1963 6.018 12.0986 5.99854 12 5.99854C11.9013 5.99854 11.8036 6.018 11.7125 6.05581C11.6214 6.09362 11.5386 6.14903 11.469 6.21888L6.96897 10.7189C6.82814 10.8597 6.74902 11.0507 6.74902 11.2499C6.74902 11.449 6.82814 11.64 6.96897 11.7809C7.1098 11.9217 7.30081 12.0008 7.49997 12.0008C7.69913 12.0008 7.89014 11.9217 8.03097 11.7809L11.25 8.56038V17.2499C11.25 17.4488 11.329 17.6396 11.4696 17.7802C11.6103 17.9209 11.8011 17.9999 12 17.9999Z" fill="black"/>
</g>
<defs>
<clipPath id="clip0_4019_1185">
<rect width="24" height="24" fill="white"/>
</clipPath>
</defs>
</svg>
