<svg width="24" height="24" viewBox="0 0 24 24" fill="none" xmlns="http://www.w3.org/2000/svg">
<g clip-path="url(#clip0_4019_1108)">
<path fill-rule="evenodd" clip-rule="evenodd" d="M12 22.5C14.7848 22.5 17.4555 21.3938 19.4246 19.4246C21.3938 17.4555 22.5 14.7848 22.5 12C22.5 9.21523 21.3938 6.54451 19.4246 4.57538C17.4555 2.60625 14.7848 1.5 12 1.5C9.21523 1.5 6.54451 2.60625 4.57538 4.57538C2.60625 6.54451 1.5 9.21523 1.5 12C1.5 14.7848 2.60625 17.4555 4.57538 19.4246C6.54451 21.3938 9.21523 22.5 12 22.5ZM12 24C15.1826 24 18.2348 22.7357 20.4853 20.4853C22.7357 18.2348 24 15.1826 24 12C24 8.8174 22.7357 5.76516 20.4853 3.51472C18.2348 1.26428 15.1826 0 12 0C8.8174 0 5.76516 1.26428 3.51472 3.51472C1.26428 5.76516 0 8.8174 0 12C0 15.1826 1.26428 18.2348 3.51472 20.4853C5.76516 22.7357 8.8174 24 12 24Z" fill="black"/>
<path fill-rule="evenodd" clip-rule="evenodd" d="M12 6C12.1989 6 12.3896 6.07902 12.5303 6.21967C12.671 6.36032 12.75 6.55109 12.75 6.75V15.4395L15.969 12.219C16.0387 12.1493 16.1215 12.094 16.2126 12.0562C16.3037 12.0185 16.4014 11.9991 16.5 11.9991C16.5986 11.9991 16.6962 12.0185 16.7873 12.0562C16.8785 12.094 16.9612 12.1493 17.031 12.219C17.1007 12.2887 17.156 12.3715 17.1938 12.4626C17.2315 12.5537 17.2509 12.6514 17.2509 12.75C17.2509 12.8486 17.2315 12.9463 17.1938 13.0374C17.156 13.1285 17.1007 13.2113 17.031 13.281L12.531 17.781C12.4613 17.8508 12.3785 17.9063 12.2874 17.9441C12.1963 17.9819 12.0986 18.0013 12 18.0013C11.9013 18.0013 11.8036 17.9819 11.7125 17.9441C11.6214 17.9063 11.5386 17.8508 11.469 17.781L6.96897 13.281C6.89924 13.2113 6.84392 13.1285 6.80619 13.0374C6.76845 12.9463 6.74902 12.8486 6.74902 12.75C6.74902 12.6514 6.76845 12.5537 6.80619 12.4626C6.84392 12.3715 6.89924 12.2887 6.96897 12.219C7.1098 12.0782 7.30081 11.9991 7.49997 11.9991C7.59859 11.9991 7.69624 12.0185 7.78735 12.0562C7.87846 12.094 7.96124 12.1493 8.03097 12.219L11.25 15.4395V6.75C11.25 6.55109 11.329 6.36032 11.4696 6.21967C11.6103 6.07902 11.8011 6 12 6Z" fill="black"/>
</g>
<defs>
<clipPath id="clip0_4019_1108">
<rect width="24" height="24" fill="white"/>
</clipPath>
</defs>
</svg>
