<svg width="24" height="24" viewBox="0 0 24 24" fill="none" xmlns="http://www.w3.org/2000/svg">
<g clip-path="url(#clip0_4019_1151)">
<path fill-rule="evenodd" clip-rule="evenodd" d="M1.50036 17.2502C1.50036 17.4491 1.57938 17.6399 1.72003 17.7805C1.86069 17.9212 2.05145 18.0002 2.25036 18.0002H19.9399L15.2194 22.7192C15.0785 22.86 14.9994 23.0511 14.9994 23.2502C14.9994 23.4494 15.0785 23.6404 15.2194 23.7812C15.3602 23.922 15.5512 24.0012 15.7504 24.0012C15.9495 24.0012 16.1405 23.922 16.2814 23.7812L22.2814 17.7812C22.3512 17.7115 22.4066 17.6288 22.4444 17.5377C22.4822 17.4465 22.5017 17.3489 22.5017 17.2502C22.5017 17.1516 22.4822 17.0539 22.4444 16.9628C22.4066 16.8716 22.3512 16.7889 22.2814 16.7192L16.2814 10.7192C16.1405 10.5784 15.9495 10.4993 15.7504 10.4993C15.5512 10.4993 15.3602 10.5784 15.2194 10.7192C15.0785 10.86 14.9994 11.0511 14.9994 11.2502C14.9994 11.4494 15.0785 11.6404 15.2194 11.7812L19.9399 16.5002H2.25036C2.05145 16.5002 1.86069 16.5792 1.72003 16.7199C1.57938 16.8605 1.50036 17.0513 1.50036 17.2502ZM22.5004 6.75022C22.5004 6.94913 22.4213 7.13989 22.2807 7.28055C22.14 7.4212 21.9493 7.50022 21.7504 7.50022H4.06086L8.78136 12.2192C8.8511 12.2889 8.90641 12.3717 8.94415 12.4628C8.98189 12.5539 9.00131 12.6516 9.00131 12.7502C9.00131 12.8488 8.98189 12.9465 8.94415 13.0376C8.90641 13.1287 8.8511 13.2115 8.78136 13.2812C8.71163 13.3509 8.62885 13.4063 8.53774 13.444C8.44663 13.4817 8.34898 13.5012 8.25036 13.5012C8.15175 13.5012 8.0541 13.4817 7.96299 13.444C7.87188 13.4063 7.7891 13.3509 7.71936 13.2812L1.71936 7.28122C1.64952 7.21155 1.5941 7.12878 1.5563 7.03767C1.51849 6.94655 1.49902 6.84887 1.49902 6.75022C1.49902 6.65156 1.51849 6.55388 1.5563 6.46276C1.5941 6.37165 1.64952 6.28888 1.71936 6.21922L7.71936 0.219215C7.86019 0.078385 8.0512 -0.000732422 8.25036 -0.000732422C8.44953 -0.000732422 8.64053 0.078385 8.78136 0.219215C8.92219 0.360045 9.00131 0.551051 9.00131 0.750215C9.00131 0.949379 8.92219 1.14039 8.78136 1.28121L4.06086 6.00022H21.7504C21.9493 6.00022 22.14 6.07923 22.2807 6.21989C22.4213 6.36054 22.5004 6.5513 22.5004 6.75022Z" fill="black"/>
</g>
<defs>
<clipPath id="clip0_4019_1151">
<rect width="24" height="24" fill="white"/>
</clipPath>
</defs>
</svg>
