<svg width="24" height="24" viewBox="0 0 24 24" fill="none" xmlns="http://www.w3.org/2000/svg">
<g clip-path="url(#clip0_4019_1142)">
<path fill-rule="evenodd" clip-rule="evenodd" d="M17.25 22.4999C17.4489 22.4999 17.6396 22.4209 17.7803 22.2802C17.921 22.1396 18 21.9488 18 21.7499V4.06038L22.719 8.78088C22.8598 8.92171 23.0508 9.00082 23.25 9.00082C23.4491 9.00082 23.6401 8.92171 23.781 8.78088C23.9218 8.64005 24.0009 8.44904 24.0009 8.24988C24.0009 8.05071 23.9218 7.85971 23.781 7.71888L17.781 1.71888C17.7113 1.64903 17.6285 1.59362 17.5374 1.55581C17.4463 1.518 17.3486 1.49854 17.25 1.49854C17.1513 1.49854 17.0536 1.518 16.9625 1.55581C16.8714 1.59362 16.7886 1.64903 16.719 1.71888L10.719 7.71888C10.5781 7.85971 10.499 8.05071 10.499 8.24988C10.499 8.44904 10.5781 8.64005 10.719 8.78088C10.8598 8.92171 11.0508 9.00082 11.25 9.00082C11.4491 9.00082 11.6401 8.92171 11.781 8.78088L16.5 4.06038V21.7499C16.5 21.9488 16.579 22.1396 16.7196 22.2802C16.8603 22.4209 17.0511 22.4999 17.25 22.4999ZM6.74997 1.49988C6.94888 1.49988 7.13965 1.57889 7.2803 1.71955C7.42095 1.8602 7.49997 2.05096 7.49997 2.24988V19.9394L12.219 15.2189C12.3598 15.078 12.5508 14.9989 12.75 14.9989C12.9491 14.9989 13.1401 15.078 13.281 15.2189C13.4218 15.3597 13.5009 15.5507 13.5009 15.7499C13.5009 15.949 13.4218 16.14 13.281 16.2809L7.28097 22.2809C7.2113 22.3507 7.12854 22.4061 7.03742 22.4439C6.9463 22.4818 6.84862 22.5012 6.74997 22.5012C6.65132 22.5012 6.55364 22.4818 6.46252 22.4439C6.3714 22.4061 6.28864 22.3507 6.21897 22.2809L0.218971 16.2809C0.0781409 16.14 -0.000976567 15.949 -0.000976562 15.7499C-0.000976558 15.5507 0.0781409 15.3597 0.218971 15.2189C0.359801 15.078 0.550807 14.9989 0.749971 14.9989C0.949134 14.9989 1.14014 15.078 1.28097 15.2189L5.99997 19.9394V2.24988C5.99997 2.05096 6.07899 1.8602 6.21964 1.71955C6.36029 1.57889 6.55106 1.49988 6.74997 1.49988Z" fill="black"/>
</g>
<defs>
<clipPath id="clip0_4019_1142">
<rect width="24" height="24" fill="white"/>
</clipPath>
</defs>
</svg>
