<svg width="24" height="24" viewBox="0 0 24 24" fill="none" xmlns="http://www.w3.org/2000/svg">
<g clip-path="url(#clip0_4019_1231)">
<path fill-rule="evenodd" clip-rule="evenodd" d="M11.4489 0.1991C11.5185 0.129256 11.6013 0.0738413 11.6924 0.0360316C11.7835 -0.00177803 11.8812 -0.0212402 11.9799 -0.0212402C12.0785 -0.0212402 12.1762 -0.00177803 12.2673 0.0360316C12.3584 0.0738413 12.4412 0.129256 12.5109 0.1991L15.5109 3.1991C15.5806 3.26883 15.6359 3.35162 15.6736 3.44273C15.7114 3.53383 15.7308 3.63148 15.7308 3.7301C15.7308 3.82872 15.7114 3.92637 15.6736 4.01748C15.6359 4.10858 15.5806 4.19137 15.5109 4.2611C15.4411 4.33083 15.3583 4.38615 15.2672 4.42389C15.1761 4.46162 15.0785 4.48105 14.9799 4.48105C14.8812 4.48105 14.7836 4.46162 14.6925 4.42389C14.6014 4.38615 14.5186 4.33083 14.4489 4.2611L12.7299 2.5406V8.2301C12.7299 8.42901 12.6508 8.61978 12.5102 8.76043C12.3695 8.90108 12.1788 8.9801 11.9799 8.9801C11.7809 8.9801 11.5902 8.90108 11.4495 8.76043C11.3089 8.61978 11.2299 8.42901 11.2299 8.2301V2.5406L9.51086 4.2611C9.37003 4.40193 9.17902 4.48105 8.97986 4.48105C8.78069 4.48105 8.58969 4.40193 8.44886 4.2611C8.30803 4.12027 8.22891 3.92926 8.22891 3.7301C8.22891 3.53094 8.30803 3.33993 8.44886 3.1991L11.4489 0.1991ZM11.9799 14.9801C12.1788 14.9801 12.3695 15.0591 12.5102 15.1998C12.6508 15.3404 12.7299 15.5312 12.7299 15.7301V21.4196L14.4489 19.6991C14.5897 19.5583 14.7807 19.4792 14.9799 19.4792C15.179 19.4792 15.37 19.5583 15.5109 19.6991C15.6517 19.8399 15.7308 20.0309 15.7308 20.2301C15.7308 20.4293 15.6517 20.6203 15.5109 20.7611L12.5109 23.7611C12.4412 23.8309 12.3584 23.8864 12.2673 23.9242C12.1762 23.962 12.0785 23.9814 11.9799 23.9814C11.8812 23.9814 11.7835 23.962 11.6924 23.9242C11.6013 23.8864 11.5185 23.8309 11.4489 23.7611L8.44886 20.7611C8.37912 20.6914 8.32381 20.6086 8.28607 20.5175C8.24833 20.4264 8.22891 20.3287 8.22891 20.2301C8.22891 20.1315 8.24833 20.0338 8.28607 19.9427C8.32381 19.8516 8.37912 19.7688 8.44886 19.6991C8.58969 19.5583 8.78069 19.4792 8.97986 19.4792C9.07847 19.4792 9.17612 19.4986 9.26723 19.5363C9.35834 19.5741 9.44112 19.6294 9.51086 19.6991L11.2299 21.4196V15.7301C11.2299 15.5312 11.3089 15.3404 11.4495 15.1998C11.5902 15.0591 11.7809 14.9801 11.9799 14.9801ZM0.198856 12.5111C0.129011 12.4414 0.0735972 12.3587 0.0357875 12.2675C-0.00202217 12.1764 -0.0214844 12.0788 -0.0214844 11.9801C-0.0214844 11.8814 -0.00202217 11.7838 0.0357875 11.6926C0.0735972 11.6015 0.129011 11.5188 0.198856 11.4491L3.19886 8.4491C3.33969 8.30827 3.53069 8.22915 3.72986 8.22915C3.92902 8.22915 4.12003 8.30827 4.26086 8.4491C4.40169 8.58993 4.4808 8.78094 4.4808 8.9801C4.4808 9.17926 4.40169 9.37027 4.26086 9.5111L2.54036 11.2301H8.22986C8.42877 11.2301 8.61953 11.3091 8.76019 11.4498C8.90084 11.5904 8.97986 11.7812 8.97986 11.9801C8.97986 12.179 8.90084 12.3698 8.76019 12.5104C8.61953 12.6511 8.42877 12.7301 8.22986 12.7301H2.54036L4.26086 14.4491C4.40169 14.5899 4.4808 14.7809 4.4808 14.9801C4.4808 15.1793 4.40169 15.3703 4.26086 15.5111C4.12003 15.6519 3.92902 15.731 3.72986 15.731C3.53069 15.731 3.33969 15.6519 3.19886 15.5111L0.198856 12.5111ZM14.9799 11.9801C14.9799 11.7812 15.0589 11.5904 15.1995 11.4498C15.3402 11.3091 15.5309 11.2301 15.7299 11.2301H21.4194L19.6989 9.5111C19.6291 9.44137 19.5738 9.35858 19.5361 9.26748C19.4983 9.17637 19.4789 9.07872 19.4789 8.9801C19.4789 8.88148 19.4983 8.78383 19.5361 8.69272C19.5738 8.60162 19.6291 8.51883 19.6989 8.4491C19.8397 8.30827 20.0307 8.22915 20.2299 8.22915C20.3285 8.22915 20.4261 8.24858 20.5172 8.28631C20.6083 8.32405 20.6911 8.37937 20.7609 8.4491L23.7609 11.4491C23.8307 11.5188 23.8861 11.6015 23.9239 11.6926C23.9617 11.7838 23.9812 11.8814 23.9812 11.9801C23.9812 12.0788 23.9617 12.1764 23.9239 12.2675C23.8861 12.3587 23.8307 12.4414 23.7609 12.5111L20.7609 15.5111C20.6911 15.5808 20.6083 15.6361 20.5172 15.6739C20.4261 15.7116 20.3285 15.731 20.2299 15.731C20.1312 15.731 20.0336 15.7116 19.9425 15.6739C19.8514 15.6361 19.7686 15.5808 19.6989 15.5111C19.6291 15.4414 19.5738 15.3586 19.5361 15.2675C19.4983 15.1764 19.4789 15.0787 19.4789 14.9801C19.4789 14.8815 19.4983 14.7838 19.5361 14.6927C19.5738 14.6016 19.6291 14.5188 19.6989 14.4491L21.4194 12.7301H15.7299C15.5309 12.7301 15.3402 12.6511 15.1995 12.5104C15.0589 12.3698 14.9799 12.179 14.9799 11.9801Z" fill="black"/>
</g>
<defs>
<clipPath id="clip0_4019_1231">
<rect width="24" height="24" fill="white"/>
</clipPath>
</defs>
</svg>
