<svg width="24" height="24" viewBox="0 0 24 24" fill="none" xmlns="http://www.w3.org/2000/svg">
<g clip-path="url(#clip0_4019_1090)">
<path fill-rule="evenodd" clip-rule="evenodd" d="M7.28097 1.71888C7.2113 1.64903 7.12854 1.59362 7.03742 1.55581C6.9463 1.518 6.84862 1.49854 6.74997 1.49854C6.65132 1.49854 6.55364 1.518 6.46252 1.55581C6.3714 1.59362 6.28864 1.64903 6.21897 1.71888L0.218971 7.71888C0.0781409 7.85971 -0.000976562 8.05071 -0.000976562 8.24988C-0.000976563 8.44904 0.0781409 8.64005 0.218971 8.78088C0.359801 8.92171 0.550807 9.00082 0.749971 9.00082C0.949134 9.00082 1.14014 8.92171 1.28097 8.78088L5.99997 4.06038V18.7499C5.99997 19.7444 6.39506 20.6983 7.09832 21.4015C7.80158 22.1048 8.75541 22.4999 9.74997 22.4999H21.75C21.9489 22.4999 22.1396 22.4209 22.2803 22.2802C22.421 22.1396 22.5 21.9488 22.5 21.7499C22.5 21.551 22.421 21.3602 22.2803 21.2195C22.1396 21.0789 21.9489 20.9999 21.75 20.9999H9.74997C9.15323 20.9999 8.58094 20.7628 8.15898 20.3409C7.73702 19.9189 7.49997 19.3466 7.49997 18.7499V4.06038L12.219 8.78088C12.2887 8.85061 12.3715 8.90592 12.4626 8.94366C12.5537 8.9814 12.6514 9.00082 12.75 9.00082C12.8486 9.00082 12.9462 8.9814 13.0373 8.94366C13.1285 8.90592 13.2112 8.85061 13.281 8.78088C13.3507 8.71114 13.406 8.62836 13.4438 8.53725C13.4815 8.44614 13.5009 8.34849 13.5009 8.24988C13.5009 8.15126 13.4815 8.05361 13.4438 7.9625C13.406 7.87139 13.3507 7.78861 13.281 7.71888L7.28097 1.71888Z" fill="black"/>
</g>
<defs>
<clipPath id="clip0_4019_1090">
<rect width="24" height="24" fill="white"/>
</clipPath>
</defs>
</svg>
