<svg width="24" height="24" viewBox="0 0 24 24" fill="none" xmlns="http://www.w3.org/2000/svg">
<path fill-rule="evenodd" clip-rule="evenodd" d="M18.0004 12.0002C18.0004 12.1991 17.9213 12.3899 17.7807 12.5305C17.64 12.6712 17.4493 12.7502 17.2504 12.7502H8.56086L11.7814 15.9692C11.8511 16.0389 11.9064 16.1217 11.9441 16.2128C11.9819 16.3039 12.0013 16.4016 12.0013 16.5002C12.0013 16.5988 11.9819 16.6965 11.9441 16.7876C11.9064 16.8787 11.8511 16.9615 11.7814 17.0312C11.7116 17.1009 11.6288 17.1563 11.5377 17.194C11.4466 17.2317 11.349 17.2512 11.2504 17.2512C11.1517 17.2512 11.0541 17.2317 10.963 17.194C10.8719 17.1563 10.7891 17.1009 10.7194 17.0312L6.21936 12.5312C6.14952 12.4615 6.0941 12.3788 6.0563 12.2877C6.01849 12.1965 5.99902 12.0989 5.99902 12.0002C5.99902 11.9016 6.01849 11.8039 6.0563 11.7128C6.0941 11.6216 6.14952 11.5389 6.21936 11.4692L10.7194 6.96922C10.8602 6.82839 11.0512 6.74927 11.2504 6.74927C11.4495 6.74927 11.6405 6.82839 11.7814 6.96922C11.9222 7.11005 12.0013 7.30105 12.0013 7.50022C12.0013 7.69938 11.9222 7.89039 11.7814 8.03122L8.56086 11.2502H17.2504C17.4493 11.2502 17.64 11.3292 17.7807 11.4699C17.9213 11.6105 18.0004 11.8013 18.0004 12.0002Z" fill="black"/>
</svg>
