<svg width="24" height="24" viewBox="0 0 24 24" fill="none" xmlns="http://www.w3.org/2000/svg">
<g clip-path="url(#clip0_4019_1223)">
<path fill-rule="evenodd" clip-rule="evenodd" d="M8.74161 15.2579C8.60096 15.1173 8.41023 15.0383 8.21136 15.0383C8.01249 15.0383 7.82175 15.1173 7.68111 15.2579L1.53711 21.4019V17.2499C1.53711 17.0509 1.45809 16.8602 1.31744 16.7195C1.17679 16.5789 0.986022 16.4999 0.787109 16.4999C0.588197 16.4999 0.397432 16.5789 0.256779 16.7195C0.116127 16.8602 0.0371094 17.0509 0.0371094 17.2499V23.2124C0.0371094 23.4113 0.116127 23.602 0.256779 23.7427C0.397432 23.8833 0.588197 23.9624 0.787109 23.9624H6.74961C6.94852 23.9624 7.13929 23.8833 7.27994 23.7427C7.42059 23.602 7.49961 23.4113 7.49961 23.2124C7.49961 23.0134 7.42059 22.8227 7.27994 22.682C7.13929 22.5414 6.94852 22.4624 6.74961 22.4624H2.59761L8.74161 16.3184C8.88221 16.1777 8.9612 15.987 8.9612 15.7881C8.9612 15.5892 8.88221 15.3985 8.74161 15.2579ZM15.2576 8.74185C15.3983 8.88246 15.589 8.96144 15.7879 8.96144C15.9867 8.96144 16.1775 8.88246 16.3181 8.74185L22.4621 2.59785V6.74985C22.4621 6.94877 22.5411 7.13953 22.6818 7.28018C22.8224 7.42084 23.0132 7.49985 23.2121 7.49985C23.411 7.49985 23.6018 7.42084 23.7424 7.28018C23.8831 7.13953 23.9621 6.94877 23.9621 6.74985V0.787353C23.9621 0.588441 23.8831 0.397676 23.7424 0.257023C23.6018 0.116371 23.411 0.0373535 23.2121 0.0373535H17.2496C17.0507 0.0373535 16.8599 0.116371 16.7193 0.257023C16.5786 0.397676 16.4996 0.588441 16.4996 0.787353C16.4996 0.986266 16.5786 1.17703 16.7193 1.31768C16.8599 1.45834 17.0507 1.53735 17.2496 1.53735H21.4016L15.2576 7.68135C15.117 7.822 15.038 8.01273 15.038 8.2116C15.038 8.41048 15.117 8.60121 15.2576 8.74185Z" fill="black"/>
</g>
<defs>
<clipPath id="clip0_4019_1223">
<rect width="24" height="24" fill="white"/>
</clipPath>
</defs>
</svg>
