<svg width="24" height="24" viewBox="0 0 24 24" fill="none" xmlns="http://www.w3.org/2000/svg">
<path fill-rule="evenodd" clip-rule="evenodd" d="M21 20.2498C21 20.4488 20.921 20.6395 20.7803 20.7802C20.6396 20.9208 20.4489 20.9998 20.25 20.9998H11.25C11.0511 20.9998 10.8603 20.9208 10.7196 20.7802C10.579 20.6395 10.5 20.4488 10.5 20.2498C10.5 20.0509 10.579 19.8602 10.7196 19.7195C10.8603 19.5789 11.0511 19.4998 11.25 19.4998H18.4395L3.21897 4.28085C3.14924 4.21112 3.09392 4.12833 3.05619 4.03722C3.01845 3.94611 2.99902 3.84846 2.99902 3.74985C2.99902 3.65123 3.01845 3.55358 3.05619 3.46247C3.09392 3.37136 3.14924 3.28858 3.21897 3.21885C3.2887 3.14912 3.37149 3.0938 3.4626 3.05606C3.5537 3.01833 3.65135 2.9989 3.74997 2.9989C3.84859 2.9989 3.94624 3.01833 4.03735 3.05606C4.12845 3.0938 4.21124 3.14912 4.28097 3.21885L19.5 18.4393V11.2498C19.5 11.0509 19.579 10.8602 19.7196 10.7195C19.8603 10.5789 20.0511 10.4998 20.25 10.4998C20.4489 10.4998 20.6396 10.5789 20.7803 10.7195C20.921 10.8602 21 11.0509 21 11.2498V20.2498Z" fill="black"/>
</svg>
