<svg width="24" height="24" viewBox="0 0 24 24" fill="none" xmlns="http://www.w3.org/2000/svg">
<g clip-path="url(#clip0_4019_1148)">
<path fill-rule="evenodd" clip-rule="evenodd" d="M12 22.5C14.7848 22.5 17.4555 21.3938 19.4246 19.4246C21.3938 17.4555 22.5 14.7848 22.5 12C22.5 9.21523 21.3938 6.54451 19.4246 4.57538C17.4555 2.60625 14.7848 1.5 12 1.5C9.21523 1.5 6.54451 2.60625 4.57538 4.57538C2.60625 6.54451 1.5 9.21523 1.5 12C1.5 14.7848 2.60625 17.4555 4.57538 19.4246C6.54451 21.3938 9.21523 22.5 12 22.5ZM12 24C15.1826 24 18.2348 22.7357 20.4853 20.4853C22.7357 18.2348 24 15.1826 24 12C24 8.8174 22.7357 5.76516 20.4853 3.51472C18.2348 1.26428 15.1826 0 12 0C8.8174 0 5.76516 1.26428 3.51472 3.51472C1.26428 5.76516 0 8.8174 0 12C0 15.1826 1.26428 18.2348 3.51472 20.4853C5.76516 22.7357 8.8174 24 12 24Z" fill="black"/>
<path fill-rule="evenodd" clip-rule="evenodd" d="M18.0004 12.0002C18.0004 12.1991 17.9213 12.3899 17.7807 12.5305C17.64 12.6712 17.4493 12.7502 17.2504 12.7502H8.56086L11.7814 15.9692C11.8511 16.0389 11.9064 16.1217 11.9441 16.2128C11.9819 16.3039 12.0013 16.4016 12.0013 16.5002C12.0013 16.5988 11.9819 16.6965 11.9441 16.7876C11.9064 16.8787 11.8511 16.9615 11.7814 17.0312C11.7116 17.1009 11.6288 17.1563 11.5377 17.194C11.4466 17.2317 11.349 17.2512 11.2504 17.2512C11.1517 17.2512 11.0541 17.2317 10.963 17.194C10.8719 17.1563 10.7891 17.1009 10.7194 17.0312L6.21936 12.5312C6.14952 12.4615 6.0941 12.3788 6.0563 12.2877C6.01849 12.1965 5.99902 12.0989 5.99902 12.0002C5.99902 11.9016 6.01849 11.8039 6.0563 11.7128C6.0941 11.6216 6.14952 11.5389 6.21936 11.4692L10.7194 6.96922C10.8602 6.82839 11.0512 6.74927 11.2504 6.74927C11.4495 6.74927 11.6405 6.82839 11.7814 6.96922C11.9222 7.11005 12.0013 7.30105 12.0013 7.50022C12.0013 7.69938 11.9222 7.89039 11.7814 8.03122L8.56086 11.2502H17.2504C17.4493 11.2502 17.64 11.3292 17.7807 11.4699C17.9213 11.6105 18.0004 11.8013 18.0004 12.0002Z" fill="black"/>
</g>
<defs>
<clipPath id="clip0_4019_1148">
<rect width="24" height="24" fill="white"/>
</clipPath>
</defs>
</svg>
