<svg width="24" height="24" viewBox="0 0 24 24" fill="none" xmlns="http://www.w3.org/2000/svg">
<path fill-rule="evenodd" clip-rule="evenodd" d="M22.5004 12.0002C22.5004 11.8013 22.4213 11.6105 22.2807 11.4699C22.14 11.3292 21.9493 11.2502 21.7504 11.2502H4.06086L8.78136 6.53122C8.8511 6.46148 8.90641 6.3787 8.94415 6.28759C8.98189 6.19648 9.00131 6.09883 9.00131 6.00021C9.00131 5.9016 8.98189 5.80395 8.94415 5.71284C8.90641 5.62173 8.8511 5.53895 8.78136 5.46921C8.71163 5.39948 8.62885 5.34417 8.53774 5.30643C8.44663 5.26869 8.34898 5.24927 8.25036 5.24927C8.15175 5.24927 8.0541 5.26869 7.96299 5.30643C7.87188 5.34417 7.7891 5.39948 7.71936 5.46921L1.71936 11.4692C1.64952 11.5389 1.5941 11.6216 1.5563 11.7128C1.51849 11.8039 1.49902 11.9016 1.49902 12.0002C1.49902 12.0989 1.51849 12.1965 1.5563 12.2877C1.5941 12.3788 1.64952 12.4615 1.71936 12.5312L7.71936 18.5312C7.7891 18.6009 7.87188 18.6563 7.96299 18.694C8.0541 18.7317 8.15175 18.7512 8.25036 18.7512C8.34898 18.7512 8.44663 18.7317 8.53774 18.694C8.62885 18.6563 8.71163 18.6009 8.78136 18.5312C8.8511 18.4615 8.90641 18.3787 8.94415 18.2876C8.98189 18.1965 9.00131 18.0988 9.00131 18.0002C9.00131 17.9016 8.98189 17.8039 8.94415 17.7128C8.90641 17.6217 8.8511 17.5389 8.78136 17.4692L4.06086 12.7502H21.7504C21.9493 12.7502 22.14 12.6712 22.2807 12.5305C22.4213 12.3899 22.5004 12.1991 22.5004 12.0002Z" fill="black"/>
</svg>
