<svg width="24" height="24" viewBox="0 0 24 24" fill="none" xmlns="http://www.w3.org/2000/svg">
<path fill-rule="evenodd" clip-rule="evenodd" d="M12 17.9999C12.1989 17.9999 12.3896 17.9209 12.5303 17.7802C12.671 17.6396 12.75 17.4488 12.75 17.2499V8.56038L15.969 11.7809C16.0387 11.8506 16.1215 11.9059 16.2126 11.9437C16.3037 11.9814 16.4014 12.0008 16.5 12.0008C16.5986 12.0008 16.6962 11.9814 16.7873 11.9437C16.8785 11.9059 16.9612 11.8506 17.031 11.7809C17.1007 11.7111 17.156 11.6284 17.1938 11.5373C17.2315 11.4461 17.2509 11.3485 17.2509 11.2499C17.2509 11.1513 17.2315 11.0536 17.1938 10.9625C17.156 10.8714 17.1007 10.7886 17.031 10.7189L12.531 6.21888C12.4613 6.14903 12.3785 6.09362 12.2874 6.05581C12.1963 6.018 12.0986 5.99854 12 5.99854C11.9013 5.99854 11.8036 6.018 11.7125 6.05581C11.6214 6.09362 11.5386 6.14903 11.469 6.21888L6.96897 10.7189C6.82814 10.8597 6.74902 11.0507 6.74902 11.2499C6.74902 11.449 6.82814 11.64 6.96897 11.7809C7.1098 11.9217 7.30081 12.0008 7.49997 12.0008C7.69913 12.0008 7.89014 11.9217 8.03097 11.7809L11.25 8.56038V17.2499C11.25 17.4488 11.329 17.6396 11.4696 17.7802C11.6103 17.9209 11.8011 17.9999 12 17.9999Z" fill="black"/>
</svg>
