<svg width="24" height="24" viewBox="0 0 24 24" fill="none" xmlns="http://www.w3.org/2000/svg">
<g clip-path="url(#clip0_4019_1229)">
<path fill-rule="evenodd" clip-rule="evenodd" d="M8.74161 15.2579C8.60096 15.1173 8.41023 15.0383 8.21136 15.0383C8.01249 15.0383 7.82175 15.1173 7.68111 15.2579L1.53711 21.4019V17.2499C1.53711 17.0509 1.45809 16.8602 1.31744 16.7195C1.17679 16.5789 0.986022 16.4999 0.787109 16.4999C0.588197 16.4999 0.397432 16.5789 0.256779 16.7195C0.116127 16.8602 0.0371094 17.0509 0.0371094 17.2499V23.2124C0.0371094 23.4113 0.116127 23.602 0.256779 23.7427C0.397432 23.8833 0.588197 23.9624 0.787109 23.9624H6.74961C6.94852 23.9624 7.13929 23.8833 7.27994 23.7427C7.42059 23.602 7.49961 23.4113 7.49961 23.2124C7.49961 23.0134 7.42059 22.8227 7.27994 22.682C7.13929 22.5414 6.94852 22.4624 6.74961 22.4624H2.59761L8.74161 16.3184C8.88221 16.1777 8.9612 15.987 8.9612 15.7881C8.9612 15.5892 8.88221 15.3985 8.74161 15.2579ZM15.2576 15.2579C15.3983 15.1173 15.589 15.0383 15.7879 15.0383C15.9867 15.0383 16.1775 15.1173 16.3181 15.2579L22.4621 21.4019V17.2499C22.4621 17.0509 22.5411 16.8602 22.6818 16.7195C22.8224 16.5789 23.0132 16.4999 23.2121 16.4999C23.411 16.4999 23.6018 16.5789 23.7424 16.7195C23.8831 16.8602 23.9621 17.0509 23.9621 17.2499V23.2124C23.9621 23.4113 23.8831 23.602 23.7424 23.7427C23.6018 23.8833 23.411 23.9624 23.2121 23.9624H17.2496C17.0507 23.9624 16.8599 23.8833 16.7193 23.7427C16.5786 23.602 16.4996 23.4113 16.4996 23.2124C16.4996 23.0134 16.5786 22.8227 16.7193 22.682C16.8599 22.5414 17.0507 22.4624 17.2496 22.4624H21.4016L15.2576 16.3184C15.117 16.1777 15.038 15.987 15.038 15.7881C15.038 15.5892 15.117 15.3985 15.2576 15.2579ZM15.2576 8.74185C15.3983 8.88246 15.589 8.96144 15.7879 8.96144C15.9867 8.96144 16.1775 8.88246 16.3181 8.74185L22.4621 2.59785V6.74985C22.4621 6.94877 22.5411 7.13953 22.6818 7.28018C22.8224 7.42084 23.0132 7.49985 23.2121 7.49985C23.411 7.49985 23.6018 7.42084 23.7424 7.28018C23.8831 7.13953 23.9621 6.94877 23.9621 6.74985V0.787353C23.9621 0.588441 23.8831 0.397676 23.7424 0.257023C23.6018 0.116371 23.411 0.0373535 23.2121 0.0373535H17.2496C17.0507 0.0373535 16.8599 0.116371 16.7193 0.257023C16.5786 0.397676 16.4996 0.588441 16.4996 0.787353C16.4996 0.986266 16.5786 1.17703 16.7193 1.31768C16.8599 1.45834 17.0507 1.53735 17.2496 1.53735H21.4016L15.2576 7.68135C15.117 7.822 15.038 8.01273 15.038 8.2116C15.038 8.41048 15.117 8.60121 15.2576 8.74185ZM8.74161 8.74185C8.60096 8.88246 8.41023 8.96144 8.21136 8.96144C8.01249 8.96144 7.82175 8.88246 7.68111 8.74185L1.53711 2.59785V6.74985C1.53711 6.94877 1.45809 7.13953 1.31744 7.28018C1.17679 7.42084 0.986022 7.49985 0.787109 7.49985C0.588197 7.49985 0.397432 7.42084 0.256779 7.28018C0.116127 7.13953 0.0371094 6.94877 0.0371094 6.74985V0.787353C0.0371094 0.588441 0.116127 0.397676 0.256779 0.257023C0.397432 0.116371 0.588197 0.0373535 0.787109 0.0373535H6.74961C6.94852 0.0373535 7.13929 0.116371 7.27994 0.257023C7.42059 0.397676 7.49961 0.588441 7.49961 0.787353C7.49961 0.986266 7.42059 1.17703 7.27994 1.31768C7.13929 1.45834 6.94852 1.53735 6.74961 1.53735H2.59761L8.74161 7.68135C8.88221 7.822 8.9612 8.01273 8.9612 8.2116C8.9612 8.41048 8.88221 8.60121 8.74161 8.74185Z" fill="black"/>
</g>
<defs>
<clipPath id="clip0_4019_1229">
<rect width="24" height="24" fill="white"/>
</clipPath>
</defs>
</svg>
