<svg width="24" height="24" viewBox="0 0 24 24" fill="none" xmlns="http://www.w3.org/2000/svg">
<g clip-path="url(#clip0_4019_1118)">
<path fill-rule="evenodd" clip-rule="evenodd" d="M21 1.5H3C2.60218 1.5 2.22064 1.65804 1.93934 1.93934C1.65804 2.22064 1.5 2.60218 1.5 3V21C1.5 21.3978 1.65804 21.7794 1.93934 22.0607C2.22064 22.342 2.60218 22.5 3 22.5H21C21.3978 22.5 21.7794 22.342 22.0607 22.0607C22.342 21.7794 22.5 21.3978 22.5 21V3C22.5 2.60218 22.342 2.22064 22.0607 1.93934C21.7794 1.65804 21.3978 1.5 21 1.5ZM3 0C2.20435 0 1.44129 0.316071 0.87868 0.87868C0.316071 1.44129 0 2.20435 0 3L0 21C0 21.7956 0.316071 22.5587 0.87868 23.1213C1.44129 23.6839 2.20435 24 3 24H21C21.7956 24 22.5587 23.6839 23.1213 23.1213C23.6839 22.5587 24 21.7956 24 21V3C24 2.20435 23.6839 1.44129 23.1213 0.87868C22.5587 0.316071 21.7956 0 21 0L3 0Z" fill="black"/>
<path fill-rule="evenodd" clip-rule="evenodd" d="M16.2416 7.75804C16.101 7.61744 15.9102 7.53845 15.7114 7.53845C15.5125 7.53845 15.3218 7.61744 15.1811 7.75804L9.03711 13.902V9.75004C9.03711 9.55113 8.95809 9.36036 8.81744 9.21971C8.67679 9.07906 8.48602 9.00004 8.28711 9.00004C8.0882 9.00004 7.89743 9.07906 7.75678 9.21971C7.61613 9.36036 7.53711 9.55113 7.53711 9.75004V15.7125C7.53711 15.9115 7.61613 16.1022 7.75678 16.2429C7.89743 16.3835 8.0882 16.4625 8.28711 16.4625H14.2496C14.4485 16.4625 14.6393 16.3835 14.7799 16.2429C14.9206 16.1022 14.9996 15.9115 14.9996 15.7125C14.9996 15.5136 14.9206 15.3229 14.7799 15.1822C14.6393 15.0416 14.4485 14.9625 14.2496 14.9625H10.0976L16.2416 8.81854C16.3822 8.6779 16.4612 8.48717 16.4612 8.28829C16.4612 8.08942 16.3822 7.89869 16.2416 7.75804Z" fill="black"/>
</g>
<defs>
<clipPath id="clip0_4019_1118">
<rect width="24" height="24" fill="white"/>
</clipPath>
</defs>
</svg>
