<svg width="24" height="24" viewBox="0 0 24 24" fill="none" xmlns="http://www.w3.org/2000/svg">
<g clip-path="url(#clip0_4019_1190)">
<path fill-rule="evenodd" clip-rule="evenodd" d="M12 22.5C14.7848 22.5 17.4555 21.3938 19.4246 19.4246C21.3938 17.4555 22.5 14.7848 22.5 12C22.5 9.21523 21.3938 6.54451 19.4246 4.57538C17.4555 2.60625 14.7848 1.5 12 1.5C9.21523 1.5 6.54451 2.60625 4.57538 4.57538C2.60625 6.54451 1.5 9.21523 1.5 12C1.5 14.7848 2.60625 17.4555 4.57538 19.4246C6.54451 21.3938 9.21523 22.5 12 22.5ZM12 24C15.1826 24 18.2348 22.7357 20.4853 20.4853C22.7357 18.2348 24 15.1826 24 12C24 8.8174 22.7357 5.76516 20.4853 3.51472C18.2348 1.26428 15.1826 0 12 0C8.8174 0 5.76516 1.26428 3.51472 3.51472C1.26428 5.76516 0 8.8174 0 12C0 15.1826 1.26428 18.2348 3.51472 20.4853C5.76516 22.7357 8.8174 24 12 24Z" fill="black"/>
<path fill-rule="evenodd" clip-rule="evenodd" d="M16.2416 16.2419C16.101 16.3825 15.9102 16.4614 15.7114 16.4614C15.5125 16.4614 15.3218 16.3825 15.1811 16.2419L9.03711 10.0979V14.2499C9.03711 14.4488 8.95809 14.6395 8.81744 14.7802C8.67679 14.9208 8.48602 14.9999 8.28711 14.9999C8.0882 14.9999 7.89743 14.9208 7.75678 14.7802C7.61613 14.6395 7.53711 14.4488 7.53711 14.2499V8.28735C7.53711 8.08844 7.61613 7.89768 7.75678 7.75702C7.89743 7.61637 8.0882 7.53735 8.28711 7.53735H14.2496C14.4485 7.53735 14.6393 7.61637 14.7799 7.75702C14.9206 7.89768 14.9996 8.08844 14.9996 8.28735C14.9996 8.48627 14.9206 8.67703 14.7799 8.81768C14.6393 8.95834 14.4485 9.03735 14.2496 9.03735H10.0976L16.2416 15.1814C16.3822 15.322 16.4612 15.5127 16.4612 15.7116C16.4612 15.9105 16.3822 16.1012 16.2416 16.2419Z" fill="black"/>
</g>
<defs>
<clipPath id="clip0_4019_1190">
<rect width="24" height="24" fill="white"/>
</clipPath>
</defs>
</svg>
