<svg width="24" height="24" viewBox="0 0 24 24" fill="none" xmlns="http://www.w3.org/2000/svg">
<g clip-path="url(#clip0_4019_1113)">
<path fill-rule="evenodd" clip-rule="evenodd" d="M12 22.5C14.7848 22.5 17.4555 21.3938 19.4246 19.4246C21.3938 17.4555 22.5 14.7848 22.5 12C22.5 9.21523 21.3938 6.54451 19.4246 4.57538C17.4555 2.60625 14.7848 1.5 12 1.5C9.21523 1.5 6.54451 2.60625 4.57538 4.57538C2.60625 6.54451 1.5 9.21523 1.5 12C1.5 14.7848 2.60625 17.4555 4.57538 19.4246C6.54451 21.3938 9.21523 22.5 12 22.5ZM12 24C15.1826 24 18.2348 22.7357 20.4853 20.4853C22.7357 18.2348 24 15.1826 24 12C24 8.8174 22.7357 5.76516 20.4853 3.51472C18.2348 1.26428 15.1826 0 12 0C8.8174 0 5.76516 1.26428 3.51472 3.51472C1.26428 5.76516 0 8.8174 0 12C0 15.1826 1.26428 18.2348 3.51472 20.4853C5.76516 22.7357 8.8174 24 12 24Z" fill="black"/>
<path fill-rule="evenodd" clip-rule="evenodd" d="M16.2416 7.75804C16.101 7.61744 15.9102 7.53845 15.7114 7.53845C15.5125 7.53845 15.3218 7.61744 15.1811 7.75804L9.03711 13.902V9.75004C9.03711 9.55113 8.95809 9.36036 8.81744 9.21971C8.67679 9.07906 8.48602 9.00004 8.28711 9.00004C8.0882 9.00004 7.89743 9.07906 7.75678 9.21971C7.61613 9.36036 7.53711 9.55113 7.53711 9.75004V15.7125C7.53711 15.9115 7.61613 16.1022 7.75678 16.2429C7.89743 16.3835 8.0882 16.4625 8.28711 16.4625H14.2496C14.4485 16.4625 14.6393 16.3835 14.7799 16.2429C14.9206 16.1022 14.9996 15.9115 14.9996 15.7125C14.9996 15.5136 14.9206 15.3229 14.7799 15.1822C14.6393 15.0416 14.4485 14.9625 14.2496 14.9625H10.0976L16.2416 8.81854C16.3822 8.6779 16.4612 8.48717 16.4612 8.28829C16.4612 8.08942 16.3822 7.89869 16.2416 7.75804Z" fill="black"/>
</g>
<defs>
<clipPath id="clip0_4019_1113">
<rect width="24" height="24" fill="white"/>
</clipPath>
</defs>
</svg>
