<svg width="24" height="24" viewBox="0 0 24 24" fill="none" xmlns="http://www.w3.org/2000/svg">
<path d="M17.3006 10.5H23.1986C23.2699 10.5001 23.3397 10.5204 23.3998 10.5586C23.4599 10.5969 23.5079 10.6515 23.5381 10.716C23.5683 10.7805 23.5795 10.8523 23.5704 10.923C23.5613 10.9937 23.5322 11.0603 23.4866 11.115L20.5376 14.655C20.5024 14.6972 20.4584 14.7312 20.4086 14.7545C20.3589 14.7778 20.3046 14.7899 20.2496 14.7899C20.1947 14.7899 20.1404 14.7778 20.0906 14.7545C20.0409 14.7312 19.9968 14.6972 19.9616 14.655L17.0126 11.115C16.967 11.0603 16.938 10.9937 16.9289 10.923C16.9197 10.8523 16.931 10.7805 16.9612 10.716C16.9914 10.6515 17.0394 10.5969 17.0995 10.5586C17.1596 10.5204 17.2294 10.5001 17.3006 10.5ZM0.800641 13.5H6.69864C6.7699 13.5 6.83967 13.4797 6.89979 13.4414C6.95991 13.4032 7.00789 13.3486 7.03811 13.2841C7.06833 13.2195 7.07953 13.1477 7.07042 13.0771C7.06131 13.0064 7.03224 12.9398 6.98664 12.885L4.03764 9.34504C4.00245 9.30283 3.95841 9.26888 3.90864 9.24558C3.85887 9.22228 3.80459 9.21021 3.74964 9.21021C3.69469 9.21021 3.64041 9.22228 3.59064 9.24558C3.54087 9.26888 3.49683 9.30283 3.46164 9.34504L0.512641 12.885C0.467037 12.9398 0.437977 13.0064 0.428862 13.0771C0.419747 13.1477 0.430956 13.2195 0.461175 13.2841C0.491394 13.3486 0.539372 13.4032 0.599493 13.4414C0.659613 13.4797 0.729386 13.5 0.800641 13.5Z" fill="black"/>
<path fill-rule="evenodd" clip-rule="evenodd" d="M11.9995 4.50035C9.67152 4.50035 7.58952 5.56085 6.21402 7.22735C6.1526 7.30696 6.0758 7.37341 5.98819 7.42274C5.90057 7.47207 5.80393 7.50328 5.70401 7.51452C5.60409 7.52575 5.50293 7.51678 5.40655 7.48813C5.31016 7.45949 5.22052 7.41175 5.14296 7.34777C5.06539 7.28379 5.00149 7.20486 4.95504 7.11568C4.90859 7.0265 4.88054 6.9289 4.87257 6.82866C4.8646 6.72843 4.87687 6.62762 4.90864 6.53222C4.94041 6.43682 4.99104 6.34879 5.05752 6.27335C6.15581 4.94364 7.61291 3.95737 9.25552 3.43183C10.8981 2.9063 12.6571 2.86362 14.3233 3.30888C15.9895 3.75414 17.4927 4.66859 18.6541 5.94348C19.8156 7.21836 20.5865 8.80003 20.875 10.5003H19.3495C19.0032 8.80656 18.0826 7.28434 16.7433 6.19107C15.4041 5.0978 13.7284 4.50056 11.9995 4.50035ZM4.64952 13.5003C4.93349 14.8873 5.60405 16.1656 6.58374 17.1876C7.56343 18.2095 8.81226 18.9335 10.186 19.2758C11.5597 19.6181 13.0022 19.5647 14.3469 19.1219C15.6915 18.6791 16.8835 17.8649 17.785 16.7733C17.8464 16.6937 17.9232 16.6273 18.0109 16.578C18.0985 16.5286 18.1951 16.4974 18.295 16.4862C18.395 16.4749 18.4961 16.4839 18.5925 16.5126C18.6889 16.5412 18.7785 16.5889 18.8561 16.6529C18.9337 16.7169 18.9976 16.7958 19.044 16.885C19.0905 16.9742 19.1185 17.0718 19.1265 17.172C19.1344 17.2723 19.1222 17.3731 19.0904 17.4685C19.0586 17.5639 19.008 17.6519 18.9415 17.7273C17.8432 19.0571 16.3861 20.0433 14.7435 20.5689C13.1009 21.0944 11.3419 21.1371 9.67576 20.6918C8.0096 20.2466 6.50638 19.3321 5.34491 18.0572C4.18343 16.7823 3.41258 15.2007 3.12402 13.5003H4.64952Z" fill="black"/>
</svg>
