<svg width="24" height="24" viewBox="0 0 24 24" fill="none" xmlns="http://www.w3.org/2000/svg">
<path fill-rule="evenodd" clip-rule="evenodd" d="M21.7504 2.25C21.9493 2.25 22.14 2.32902 22.2807 2.46967C22.4213 2.61032 22.5004 2.80109 22.5004 3V10.2C22.5004 10.6925 22.4034 11.1801 22.2149 11.6351C22.0265 12.09 21.7502 12.5034 21.402 12.8517C21.0538 13.1999 20.6404 13.4761 20.1854 13.6645C19.7305 13.853 19.2428 13.95 18.7504 13.95H4.06086L9.08136 18.969C9.22219 19.1098 9.30131 19.3008 9.30131 19.5C9.30131 19.6992 9.22219 19.8902 9.08136 20.031C8.94053 20.1718 8.74953 20.2509 8.55036 20.2509C8.3512 20.2509 8.16019 20.1718 8.01936 20.031L1.71936 13.731C1.64952 13.6613 1.5941 13.5786 1.5563 13.4874C1.51849 13.3963 1.49902 13.2987 1.49902 13.2C1.49902 13.1013 1.51849 13.0037 1.5563 12.9125C1.5941 12.8214 1.64952 12.7387 1.71936 12.669L7.71936 6.669C7.86019 6.52817 8.0512 6.44905 8.25036 6.44905C8.44953 6.44905 8.64053 6.52817 8.78136 6.669C8.92219 6.80983 9.00131 7.00084 9.00131 7.2C9.00131 7.39916 8.92219 7.59017 8.78136 7.731L4.06086 12.45H18.7504C19.3471 12.45 19.9194 12.2129 20.3414 11.791C20.7633 11.369 21.0004 10.7967 21.0004 10.2V3C21.0004 2.80109 21.0794 2.61032 21.22 2.46967C21.3607 2.32902 21.5515 2.25 21.7504 2.25Z" fill="black"/>
</svg>
