<svg width="24" height="24" viewBox="0 0 24 24" fill="none" xmlns="http://www.w3.org/2000/svg">
<path fill-rule="evenodd" clip-rule="evenodd" d="M19.6588 10.8329C19.6588 6.38241 16.2853 3.28491 11.4358 3.28491C6.4108 3.28491 2.9668 6.76191 2.9668 11.8379C2.9668 17.0774 6.3193 20.3999 11.6098 20.3999C12.9028 20.3999 14.1433 20.2154 15.0658 19.8974V18.6044C14.4208 18.9029 13.0348 19.0964 11.6308 19.0964C7.2418 19.0964 4.4113 16.2764 4.4113 11.8994C4.4113 7.63341 7.2928 4.57791 11.3023 4.57791C15.4048 4.57791 18.2143 7.10991 18.2143 10.8119C18.2143 13.3349 17.3833 14.9654 16.0903 14.9654C15.3523 14.9654 14.9323 14.5454 14.9323 13.8254V7.80891H13.3843V9.05991H13.2193C12.8203 8.16741 11.8978 7.61391 10.8193 7.61391C8.7193 7.61391 7.2523 9.35691 7.2523 11.8484C7.2523 14.4539 8.6878 16.2074 10.8208 16.2074C12.0208 16.2074 12.9433 15.6224 13.3843 14.5769H13.5493C13.6708 15.5819 14.6038 16.2989 15.8038 16.2989C18.1618 16.2989 19.6588 14.1764 19.6588 10.8344V10.8329ZM8.8933 11.8889C8.8933 10.0934 9.7033 9.02841 11.0773 9.02841C12.4723 9.02841 13.3633 10.1354 13.3633 11.8889C13.3633 13.6424 12.4618 14.7599 11.0563 14.7599C9.7138 14.7599 8.8933 13.6724 8.8933 11.8889Z" fill="black"/>
</svg>
