<svg width="24" height="24" viewBox="0 0 24 24" fill="none" xmlns="http://www.w3.org/2000/svg">
<path d="M12.0004 0L14.5039 1.296L17.2909 1.719L18.5539 4.239L20.5594 6.219L20.1004 9L20.5594 11.781L18.5539 13.761L17.2909 16.281L14.5039 16.704L12.0004 18L9.49691 16.704L6.70991 16.281L5.44691 13.761L3.44141 11.781L3.90041 9L3.44141 6.219L5.44691 4.239L6.70991 1.719L9.49691 1.296L12.0004 0Z" fill="black"/>
<path d="M6 17.6909V23.9999L12 22.4999L18 23.9999V17.6909L14.973 18.1499L12 19.6889L9.027 18.1499L6 17.6909Z" fill="black"/>
</svg>
