<svg width="24" height="24" viewBox="0 0 24 24" fill="none" xmlns="http://www.w3.org/2000/svg">
<path fill-rule="evenodd" clip-rule="evenodd" d="M14.5039 1.296L12.0004 0L9.49691 1.296L6.70991 1.719L5.44691 4.239L3.44141 6.219L3.90041 9L3.44141 11.781L5.44691 13.761L6.70991 16.281L9.49691 16.704L12.0004 18L14.5039 16.704L17.2909 16.281L18.5539 13.761L20.5594 11.781L20.1004 9L20.5594 6.219L18.5539 4.239L17.2909 1.719L14.5039 1.296ZM16.2979 3.0855L14.0329 2.742L12.0004 1.689L9.96791 2.742L7.70291 3.0855L6.67691 5.133L5.04791 6.741L5.42141 9L5.04641 11.259L6.67691 12.867L7.70291 14.9145L9.96791 15.258L12.0004 16.311L14.0344 15.258L16.2979 14.9145L17.3239 12.867L18.9529 11.259L18.5809 9L18.9529 6.741L17.3239 5.133L16.2979 3.0855Z" fill="black"/>
<path d="M6 17.6909V23.9999L12 22.4999L18 23.9999V17.6909L14.973 18.1499L12 19.6889L9.027 18.1499L6 17.6909Z" fill="black"/>
</svg>
