<svg width="24" height="24" viewBox="0 0 24 24" fill="none" xmlns="http://www.w3.org/2000/svg">
<g clip-path="url(#clip0_4019_1338)">
<path fill-rule="evenodd" clip-rule="evenodd" d="M8.6355 1.60669C8.72002 1.6573 8.79374 1.72406 8.85245 1.80317C8.91116 1.88228 8.95371 1.97218 8.97767 2.06774C9.00163 2.16329 9.00652 2.26263 8.99208 2.36008C8.97764 2.45753 8.94414 2.55118 8.8935 2.63568L5.0745 9.00018H18.9255L15.105 2.63568C15.0028 2.46502 14.9725 2.26073 15.0209 2.06775C15.0693 1.87478 15.1923 1.70893 15.363 1.60669C15.5337 1.50444 15.738 1.47419 15.9309 1.52257C16.1239 1.57096 16.2898 1.69402 16.392 1.86469L20.6745 9.00018H22.5C22.8978 9.00018 23.2794 9.15822 23.5607 9.43952C23.842 9.72083 24 10.1024 24 10.5002V12.0002C24 12.398 23.842 12.7795 23.5607 13.0608C23.2794 13.3421 22.8978 13.5002 22.5 13.5002V20.2502C22.5 21.2447 22.1049 22.1986 21.4016 22.9018C20.6984 23.6051 19.7446 24.0002 18.75 24.0002H5.25C4.25544 24.0002 3.30161 23.6051 2.59835 22.9018C1.89509 22.1986 1.5 21.2447 1.5 20.2502V13.5002C1.10218 13.5002 0.720644 13.3421 0.43934 13.0608C0.158035 12.7795 0 12.398 0 12.0002V10.5002C0 10.1024 0.158035 9.72083 0.43934 9.43952C0.720644 9.15822 1.10218 9.00018 1.5 9.00018H3.3255L7.605 1.86469C7.65561 1.78017 7.72238 1.70645 7.80149 1.64774C7.8806 1.58903 7.9705 1.54648 8.06605 1.52252C8.16161 1.49856 8.26095 1.49366 8.3584 1.5081C8.45585 1.52254 8.5495 1.55604 8.634 1.60669H8.6355ZM3 13.5002V20.2502C3 20.8469 3.23705 21.4192 3.65901 21.8412C4.08097 22.2631 4.65326 22.5002 5.25 22.5002H18.75C19.3467 22.5002 19.919 22.2631 20.341 21.8412C20.7629 21.4192 21 20.8469 21 20.2502V13.5002H3ZM1.5 10.5002V12.0002H22.5V10.5002H1.5ZM6 15.0002C6.19891 15.0002 6.38968 15.0792 6.53033 15.2199C6.67098 15.3605 6.75 15.5513 6.75 15.7502V20.2502C6.75 20.4491 6.67098 20.6399 6.53033 20.7805C6.38968 20.9212 6.19891 21.0002 6 21.0002C5.80109 21.0002 5.61032 20.9212 5.46967 20.7805C5.32902 20.6399 5.25 20.4491 5.25 20.2502V15.7502C5.25 15.5513 5.32902 15.3605 5.46967 15.2199C5.61032 15.0792 5.80109 15.0002 6 15.0002ZM9 15.0002C9.19891 15.0002 9.38968 15.0792 9.53033 15.2199C9.67098 15.3605 9.75 15.5513 9.75 15.7502V20.2502C9.75 20.4491 9.67098 20.6399 9.53033 20.7805C9.38968 20.9212 9.19891 21.0002 9 21.0002C8.80109 21.0002 8.61032 20.9212 8.46967 20.7805C8.32902 20.6399 8.25 20.4491 8.25 20.2502V15.7502C8.25 15.5513 8.32902 15.3605 8.46967 15.2199C8.61032 15.0792 8.80109 15.0002 9 15.0002ZM12 15.0002C12.1989 15.0002 12.3897 15.0792 12.5303 15.2199C12.671 15.3605 12.75 15.5513 12.75 15.7502V20.2502C12.75 20.4491 12.671 20.6399 12.5303 20.7805C12.3897 20.9212 12.1989 21.0002 12 21.0002C11.8011 21.0002 11.6103 20.9212 11.4697 20.7805C11.329 20.6399 11.25 20.4491 11.25 20.2502V15.7502C11.25 15.5513 11.329 15.3605 11.4697 15.2199C11.6103 15.0792 11.8011 15.0002 12 15.0002ZM15 15.0002C15.1989 15.0002 15.3897 15.0792 15.5303 15.2199C15.671 15.3605 15.75 15.5513 15.75 15.7502V20.2502C15.75 20.4491 15.671 20.6399 15.5303 20.7805C15.3897 20.9212 15.1989 21.0002 15 21.0002C14.8011 21.0002 14.6103 20.9212 14.4697 20.7805C14.329 20.6399 14.25 20.4491 14.25 20.2502V15.7502C14.25 15.5513 14.329 15.3605 14.4697 15.2199C14.6103 15.0792 14.8011 15.0002 15 15.0002ZM18 15.0002C18.1989 15.0002 18.3897 15.0792 18.5303 15.2199C18.671 15.3605 18.75 15.5513 18.75 15.7502V20.2502C18.75 20.4491 18.671 20.6399 18.5303 20.7805C18.3897 20.9212 18.1989 21.0002 18 21.0002C17.8011 21.0002 17.6103 20.9212 17.4697 20.7805C17.329 20.6399 17.25 20.4491 17.25 20.2502V15.7502C17.25 15.5513 17.329 15.3605 17.4697 15.2199C17.6103 15.0792 17.8011 15.0002 18 15.0002Z" fill="black"/>
</g>
<defs>
<clipPath id="clip0_4019_1338">
<rect width="24" height="24" fill="white"/>
</clipPath>
</defs>
</svg>
