<svg width="24" height="24" viewBox="0 0 24 24" fill="none" xmlns="http://www.w3.org/2000/svg">
<path fill-rule="evenodd" clip-rule="evenodd" d="M8.6355 1.60669C8.72002 1.6573 8.79374 1.72406 8.85245 1.80317C8.91116 1.88228 8.95371 1.97218 8.97767 2.06774C9.00163 2.16329 9.00652 2.26263 8.99208 2.36008C8.97764 2.45753 8.94414 2.55118 8.8935 2.63569L5.0745 9.00019H18.9255L15.105 2.63569C15.0028 2.46502 14.9725 2.26073 15.0209 2.06775C15.0693 1.87478 15.1923 1.70893 15.363 1.60669C15.5337 1.50444 15.738 1.47419 15.9309 1.52257C16.1239 1.57096 16.2898 1.69402 16.392 1.86469L20.6745 9.00019H23.25C23.4489 9.00019 23.6397 9.0792 23.7803 9.21986C23.921 9.36051 24 9.55127 24 9.75019V11.2502C24 11.4491 23.921 11.6399 23.7803 11.7805C23.6397 11.9212 23.4489 12.0002 23.25 12.0002H0.75C0.551088 12.0002 0.360322 11.9212 0.21967 11.7805C0.0790176 11.6399 0 11.4491 0 11.2502V9.75019C0 9.55127 0.0790176 9.36051 0.21967 9.21986C0.360322 9.0792 0.551088 9.00019 0.75 9.00019H3.3255L7.605 1.86469C7.65561 1.78017 7.72238 1.70645 7.80149 1.64774C7.8806 1.58903 7.9705 1.54648 8.06605 1.52252C8.16161 1.49856 8.26095 1.49366 8.3584 1.5081C8.45585 1.52254 8.5495 1.55604 8.634 1.60669H8.6355Z" fill="black"/>
<path d="M3.70156 23.139L1.41406 13.5H22.5851L20.2976 23.139C20.2383 23.3844 20.0983 23.6027 19.8999 23.7589C19.7016 23.9151 19.4565 24 19.2041 24H4.79506C4.54237 24.0003 4.29692 23.9155 4.09828 23.7594C3.89963 23.6032 3.75936 23.3846 3.70006 23.139H3.70156Z" fill="black"/>
</svg>
