<svg width="24" height="24" viewBox="0 0 24 24" fill="none" xmlns="http://www.w3.org/2000/svg">
<g clip-path="url(#clip0_4019_1373)">
<path fill-rule="evenodd" clip-rule="evenodd" d="M6.00045 6.75C6.00045 6.55109 6.07947 6.36032 6.22012 6.21967C6.36077 6.07902 6.55154 6 6.75045 6H9.00045C9.19936 6 9.39013 6.07902 9.53078 6.21967C9.67143 6.36032 9.75045 6.55109 9.75045 6.75C9.75045 6.94891 9.67143 7.13968 9.53078 7.28033C9.39013 7.42098 9.19936 7.5 9.00045 7.5V8.25H15.2105L15.7894 6.513C15.8392 6.36372 15.9346 6.23385 16.0622 6.14179C16.1898 6.04972 16.3431 6.00012 16.5005 6H18.0005C18.1994 6 18.3901 6.07902 18.5308 6.21967C18.6714 6.36032 18.7505 6.55109 18.7505 6.75C18.7505 6.94891 18.6714 7.13968 18.5308 7.28033C18.3901 7.42098 18.1994 7.5 18.0005 7.5H17.0404L16.5739 8.9025L17.7844 10.8375C18.8276 10.4073 19.9942 10.3847 21.0532 10.7741C22.1122 11.1636 22.9863 11.9366 23.5022 12.9401C24.0181 13.9436 24.1382 15.1042 23.8387 16.1921C23.5392 17.28 22.8419 18.2156 21.8851 18.8136C20.9283 19.4116 19.7817 19.6284 18.6726 19.4209C17.5635 19.2134 16.5728 18.5968 15.8969 17.6934C15.221 16.7899 14.9091 15.6655 15.0231 14.5429C15.1371 13.4204 15.6687 12.3816 16.5124 11.6325L15.7504 10.4145L12.6364 15.3975C12.569 15.5054 12.4753 15.5943 12.364 15.656C12.2528 15.7176 12.1277 15.75 12.0004 15.75H8.93895C8.78339 16.6698 8.34582 17.5185 7.68678 18.1787C7.02774 18.8389 6.1798 19.278 5.26029 19.4352C4.34077 19.5924 3.39512 19.46 2.55418 19.0562C1.71324 18.6524 1.01856 17.9973 0.566267 17.1814C0.113972 16.3655 -0.073587 15.4293 0.0295393 14.5021C0.132666 13.575 0.521379 12.7028 1.1419 12.0063C1.76242 11.3097 2.58408 10.8232 3.4932 10.6141C4.40231 10.405 5.35395 10.4836 6.21645 10.839L7.50045 8.784V7.5H6.75045C6.55154 7.5 6.36077 7.42098 6.22012 7.28033C6.07947 7.13968 6.00045 6.94891 6.00045 6.75ZM8.25045 10.4145L7.48845 11.6355C8.23845 12.3015 8.76345 13.2165 8.93895 14.25H10.6474L8.25045 10.4145ZM12.0004 13.5855L14.3974 9.75H9.60345L12.0004 13.5855ZM7.40595 14.25C7.27834 13.7565 7.02691 13.3037 6.67545 12.9345L5.85345 14.25H7.40595ZM5.40495 12.138C4.83272 11.9573 4.21944 11.9523 3.64437 12.1238C3.0693 12.2953 2.55886 12.6352 2.17902 13.0998C1.79918 13.5644 1.56739 14.1322 1.51361 14.7299C1.45983 15.3275 1.58652 15.9276 1.87732 16.4525C2.16812 16.9774 2.60966 17.4031 3.14488 17.6745C3.6801 17.9458 4.28441 18.0505 4.87971 17.9748C5.47501 17.8992 6.03394 17.6467 6.48428 17.2501C6.93462 16.8535 7.25568 16.331 7.40595 15.75H4.50045C4.36657 15.75 4.23513 15.7142 4.11978 15.6462C4.00443 15.5783 3.90937 15.4807 3.84447 15.3636C3.77956 15.2465 3.74719 15.1141 3.75071 14.9803C3.75422 14.8465 3.79349 14.716 3.86445 14.6025L5.40495 12.138ZM17.3254 12.933C16.8227 13.4625 16.5303 14.1572 16.503 14.8869C16.4758 15.6165 16.7157 16.3311 17.1776 16.8966C17.6395 17.4621 18.2918 17.8397 19.0123 17.9586C19.7327 18.0776 20.4718 17.9297 21.091 17.5427C21.7101 17.1557 22.1669 16.5562 22.3757 15.8565C22.5845 15.1568 22.5309 14.405 22.225 13.7419C21.9191 13.0789 21.3819 12.5502 20.7141 12.255C20.0463 11.9597 19.2937 11.9181 18.5975 12.138L20.1364 14.6025C20.1887 14.686 20.2239 14.779 20.2402 14.8761C20.2564 14.9733 20.2534 15.0727 20.2312 15.1686C20.2091 15.2646 20.1683 15.3553 20.1111 15.4355C20.0539 15.5157 19.9815 15.5838 19.898 15.636C19.8144 15.6882 19.7214 15.7234 19.6243 15.7397C19.5272 15.756 19.4278 15.7529 19.3318 15.7308C19.2358 15.7086 19.1452 15.6678 19.065 15.6106C18.9848 15.5534 18.9167 15.481 18.8645 15.3975L17.3254 12.9345V12.933Z" fill="black"/>
</g>
<defs>
<clipPath id="clip0_4019_1373">
<rect width="24" height="24" fill="white"/>
</clipPath>
</defs>
</svg>
