<svg width="24" height="24" viewBox="0 0 24 24" fill="none" xmlns="http://www.w3.org/2000/svg">
<path fill-rule="evenodd" clip-rule="evenodd" d="M3 3C3 2.20435 3.31607 1.44129 3.87868 0.87868C4.44129 0.316071 5.20435 0 6 0L18 0C18.7956 0 19.5587 0.316071 20.1213 0.87868C20.6839 1.44129 21 2.20435 21 3V23.25C20.9999 23.3857 20.9631 23.5188 20.8933 23.6351C20.8236 23.7515 20.7236 23.8468 20.604 23.9108C20.4844 23.9748 20.3497 24.0052 20.2142 23.9988C20.0787 23.9923 19.9474 23.9492 19.8345 23.874L12 19.6515L4.1655 23.874C4.05256 23.9492 3.92135 23.9923 3.78584 23.9988C3.65033 24.0052 3.5156 23.9748 3.396 23.9108C3.2764 23.8468 3.17641 23.7515 3.10667 23.6351C3.03694 23.5188 3.00007 23.3857 3 23.25V3ZM6 1.5C5.60218 1.5 5.22064 1.65804 4.93934 1.93934C4.65804 2.22064 4.5 2.60218 4.5 3V21.849L11.5845 18.126C11.7076 18.0441 11.8521 18.0004 12 18.0004C12.1479 18.0004 12.2924 18.0441 12.4155 18.126L19.5 21.849V3C19.5 2.60218 19.342 2.22064 19.0607 1.93934C18.7794 1.65804 18.3978 1.5 18 1.5H6Z" fill="black"/>
<path d="M11.7604 6.15C11.7824 6.10502 11.8165 6.06711 11.8589 6.04058C11.9014 6.01406 11.9504 6 12.0004 6C12.0505 6 12.0995 6.01406 12.142 6.04058C12.1844 6.06711 12.2185 6.10502 12.2404 6.15L13.1914 8.0775C13.2105 8.11649 13.2387 8.15025 13.2738 8.17587C13.3088 8.20148 13.3495 8.21817 13.3924 8.2245L15.5224 8.5335C15.7399 8.565 15.8284 8.8335 15.6694 8.988L14.1304 10.4895C14.0994 10.5198 14.0762 10.5572 14.0629 10.5985C14.0495 10.6398 14.0465 10.6838 14.0539 10.7265L14.4169 12.8475C14.4251 12.8965 14.4194 12.9468 14.4006 12.9927C14.3817 13.0386 14.3505 13.0784 14.3103 13.1075C14.2701 13.1367 14.2225 13.154 14.173 13.1576C14.1235 13.1613 14.0739 13.151 14.0299 13.128L12.1249 12.126C12.0868 12.106 12.0443 12.0956 12.0012 12.0956C11.9581 12.0956 11.9156 12.106 11.8774 12.126L9.97244 13.128C9.92848 13.1506 9.87912 13.1605 9.82985 13.1567C9.78057 13.1529 9.73333 13.1355 9.69337 13.1064C9.65341 13.0773 9.6223 13.0377 9.60351 12.992C9.58472 12.9463 9.57898 12.8963 9.58694 12.8475L9.94994 10.7265C9.9576 10.6839 9.95477 10.64 9.94171 10.5987C9.92864 10.5575 9.90573 10.52 9.87494 10.4895L8.32994 8.988C8.29455 8.95325 8.26954 8.90934 8.25771 8.86117C8.24588 8.81301 8.24769 8.7625 8.26296 8.71531C8.27822 8.66812 8.30632 8.62612 8.34412 8.59401C8.38192 8.56189 8.42791 8.54094 8.47694 8.5335L10.6069 8.2245C10.6499 8.21817 10.6906 8.20148 10.7256 8.17587C10.7607 8.15025 10.7889 8.11649 10.8079 8.0775L11.7604 6.15Z" fill="black"/>
</svg>
