<svg width="24" height="24" viewBox="0 0 24 24" fill="none" xmlns="http://www.w3.org/2000/svg">
<path fill-rule="evenodd" clip-rule="evenodd" d="M3 3C3 2.20435 3.31607 1.44129 3.87868 0.87868C4.44129 0.316071 5.20435 0 6 0L18 0C18.7956 0 19.5587 0.316071 20.1213 0.87868C20.6839 1.44129 21 2.20435 21 3V23.25C20.9999 23.3857 20.9631 23.5188 20.8933 23.6351C20.8236 23.7515 20.7236 23.8468 20.604 23.9108C20.4844 23.9748 20.3497 24.0052 20.2142 23.9988C20.0787 23.9923 19.9474 23.9492 19.8345 23.874L12 19.6515L4.1655 23.874C4.05256 23.9492 3.92135 23.9923 3.78584 23.9988C3.65033 24.0052 3.5156 23.9748 3.396 23.9108C3.2764 23.8468 3.17641 23.7515 3.10667 23.6351C3.03694 23.5188 3.00007 23.3857 3 23.25V3ZM6 1.5C5.60218 1.5 5.22064 1.65804 4.93934 1.93934C4.65804 2.22064 4.5 2.60218 4.5 3V21.849L11.5845 18.126C11.7076 18.0441 11.8521 18.0004 12 18.0004C12.1479 18.0004 12.2924 18.0441 12.4155 18.126L19.5 21.849V3C19.5 2.60218 19.342 2.22064 19.0607 1.93934C18.7794 1.65804 18.3978 1.5 18 1.5H6Z" fill="black"/>
<path fill-rule="evenodd" clip-rule="evenodd" d="M9.21839 7.71888C9.28806 7.64903 9.37082 7.59362 9.46194 7.55581C9.55305 7.518 9.65074 7.49854 9.74939 7.49854C9.84804 7.49854 9.94572 7.518 10.0368 7.55581C10.128 7.59362 10.2107 7.64903 10.2804 7.71888L11.9994 9.43938L13.7184 7.71888C13.8592 7.57805 14.0502 7.49893 14.2494 7.49893C14.4486 7.49893 14.6396 7.57805 14.7804 7.71888C14.9212 7.85971 15.0003 8.05071 15.0003 8.24988C15.0003 8.44904 14.9212 8.64005 14.7804 8.78088L13.0599 10.4999L14.7804 12.2189C14.9212 12.3597 15.0003 12.5507 15.0003 12.7499C15.0003 12.949 14.9212 13.14 14.7804 13.2809C14.6396 13.4217 14.4486 13.5008 14.2494 13.5008C14.0502 13.5008 13.8592 13.4217 13.7184 13.2809L11.9994 11.5604L10.2804 13.2809C10.2107 13.3506 10.1279 13.4059 10.0368 13.4437C9.94565 13.4814 9.848 13.5008 9.74939 13.5008C9.65077 13.5008 9.55312 13.4814 9.46201 13.4437C9.3709 13.4059 9.28812 13.3506 9.21839 13.2809C9.14866 13.2111 9.09334 13.1284 9.0556 13.0372C9.01786 12.9461 8.99844 12.8485 8.99844 12.7499C8.99844 12.6513 9.01786 12.5536 9.0556 12.4625C9.09334 12.3714 9.14866 12.2886 9.21839 12.2189L10.9389 10.4999L9.21839 8.78088C9.14854 8.71121 9.09313 8.62844 9.05532 8.53733C9.01751 8.44621 8.99805 8.34853 8.99805 8.24988C8.99805 8.15122 9.01751 8.05354 9.05532 7.96242C9.09313 7.87131 9.14854 7.78854 9.21839 7.71888Z" fill="black"/>
</svg>
