<svg width="24" height="24" viewBox="0 0 24 24" fill="none" xmlns="http://www.w3.org/2000/svg">
<path fill-rule="evenodd" clip-rule="evenodd" d="M12 2.67469C10.5225 1.40419 8.3805 1.21519 6.4305 1.41019C4.1595 1.63969 1.8675 2.41819 0.4395 3.06769C0.308474 3.12728 0.197363 3.22332 0.119432 3.34434C0.0415 3.46536 3.98571e-05 3.60625 0 3.75019L0 20.2502C3.4743e-05 20.3757 0.0315557 20.4991 0.0916756 20.6093C0.151796 20.7194 0.238593 20.8128 0.344116 20.8807C0.44964 20.9486 0.570517 20.9889 0.695675 20.998C0.820833 21.0071 0.946271 20.9846 1.0605 20.9327C2.3835 20.3327 4.515 19.6112 6.5805 19.4027C8.694 19.1897 10.4655 19.5332 11.415 20.7182C11.4853 20.8058 11.5743 20.8765 11.6756 20.9251C11.7768 20.9736 11.8877 20.9989 12 20.9989C12.1123 20.9989 12.2232 20.9736 12.3244 20.9251C12.4257 20.8765 12.5147 20.8058 12.585 20.7182C13.5345 19.5332 15.306 19.1897 17.418 19.4027C19.485 19.6112 21.618 20.3327 22.9395 20.9327C23.0537 20.9846 23.1792 21.0071 23.3043 20.998C23.4295 20.9889 23.5504 20.9486 23.6559 20.8807C23.7614 20.8128 23.8482 20.7194 23.9083 20.6093C23.9684 20.4991 24 20.3757 24 20.2502V3.75019C24 3.60625 23.9585 3.46536 23.8806 3.34434C23.8026 3.22332 23.6915 3.12728 23.5605 3.06769C22.1325 2.41819 19.8405 1.63969 17.5695 1.41019C15.6195 1.21369 13.4775 1.40419 12 2.67469Z" fill="black"/>
</svg>
