<svg width="24" height="24" viewBox="0 0 24 24" fill="none" xmlns="http://www.w3.org/2000/svg">
<g clip-path="url(#clip0_4019_1451)">
<path fill-rule="evenodd" clip-rule="evenodd" d="M12.954 18.75C12.954 18.9489 12.875 19.1397 12.7343 19.2803C12.5937 19.421 12.4029 19.5 12.204 19.5H2.25C1.65326 19.5 1.08097 19.2629 0.65901 18.841C0.237053 18.419 0 17.8467 0 17.25L0 2.25C0 1.65326 0.237053 1.08097 0.65901 0.65901C1.08097 0.237053 1.65326 0 2.25 0L17.25 0C17.8467 0 18.419 0.237053 18.841 0.65901C19.2629 1.08097 19.5 1.65326 19.5 2.25V12.204C19.5 12.4029 19.421 12.5937 19.2803 12.7343C19.1397 12.875 18.9489 12.954 18.75 12.954C18.5511 12.954 18.3603 12.875 18.2197 12.7343C18.079 12.5937 18 12.4029 18 12.204V2.25C18 2.05109 17.921 1.86032 17.7803 1.71967C17.6397 1.57902 17.4489 1.5 17.25 1.5H2.25C2.05109 1.5 1.86032 1.57902 1.71967 1.71967C1.57902 1.86032 1.5 2.05109 1.5 2.25V17.25C1.5 17.4489 1.57902 17.6397 1.71967 17.7803C1.86032 17.921 2.05109 18 2.25 18H12.204C12.4029 18 12.5937 18.079 12.7343 18.2197C12.875 18.3603 12.954 18.5511 12.954 18.75Z" fill="black"/>
<path fill-rule="evenodd" clip-rule="evenodd" d="M24 23.2498C24 23.4488 23.921 23.6395 23.7803 23.7802C23.6396 23.9208 23.4489 23.9998 23.25 23.9998H15.75C15.5511 23.9998 15.3603 23.9208 15.2196 23.7802C15.079 23.6395 15 23.4488 15 23.2498C15 23.0509 15.079 22.8602 15.2196 22.7195C15.3603 22.5789 15.5511 22.4998 15.75 22.4998H21.4395L9.21897 10.2808C9.14924 10.2111 9.09392 10.1283 9.05619 10.0372C9.01845 9.94612 8.99902 9.84846 8.99902 9.74985C8.99902 9.65123 9.01845 9.55358 9.05619 9.46247C9.09392 9.37136 9.14924 9.28858 9.21897 9.21885C9.2887 9.14912 9.37149 9.0938 9.4626 9.05606C9.5537 9.01833 9.65136 8.9989 9.74997 8.9989C9.84859 8.9989 9.94624 9.01833 10.0373 9.05606C10.1285 9.0938 10.2112 9.14912 10.281 9.21885L22.5 21.4393V15.7498C22.5 15.5509 22.579 15.3602 22.7196 15.2195C22.8603 15.0789 23.0511 14.9998 23.25 14.9998C23.4489 14.9998 23.6396 15.0789 23.7803 15.2195C23.921 15.3602 24 15.5509 24 15.7498V23.2498Z" fill="black"/>
</g>
<defs>
<clipPath id="clip0_4019_1451">
<rect width="24" height="24" fill="white"/>
</clipPath>
</defs>
</svg>
