<svg width="24" height="24" viewBox="0 0 24 24" fill="none" xmlns="http://www.w3.org/2000/svg">
<path fill-rule="evenodd" clip-rule="evenodd" d="M5.25 15C5.05109 15 4.86032 14.921 4.71967 14.7803C4.57902 14.6397 4.5 14.4489 4.5 14.25V2.25C4.5 2.05109 4.57902 1.86032 4.71967 1.71967C4.86032 1.57902 5.05109 1.5 5.25 1.5H18.75C18.9489 1.5 19.1397 1.57902 19.2803 1.71967C19.421 1.86032 19.5 2.05109 19.5 2.25V14.25C19.5 14.4489 19.421 14.6397 19.2803 14.7803C19.1397 14.921 18.9489 15 18.75 15H15.75C15.5511 15 15.3603 15.079 15.2197 15.2197C15.079 15.3603 15 15.5511 15 15.75C15 15.9489 15.079 16.1397 15.2197 16.2803C15.3603 16.421 15.5511 16.5 15.75 16.5H18.75C19.3467 16.5 19.919 16.2629 20.341 15.841C20.7629 15.419 21 14.8467 21 14.25V2.25C21 1.65326 20.7629 1.08097 20.341 0.65901C19.919 0.237053 19.3467 0 18.75 0L5.25 0C4.65326 0 4.08097 0.237053 3.65901 0.65901C3.23705 1.08097 3 1.65326 3 2.25V14.25C3 14.8467 3.23705 15.419 3.65901 15.841C4.08097 16.2629 4.65326 16.5 5.25 16.5H8.25C8.44891 16.5 8.63968 16.421 8.78033 16.2803C8.92098 16.1397 9 15.9489 9 15.75C9 15.5511 8.92098 15.3603 8.78033 15.2197C8.63968 15.079 8.44891 15 8.25 15H5.25Z" fill="black"/>
<path fill-rule="evenodd" clip-rule="evenodd" d="M11.469 6.21888C11.5386 6.14903 11.6214 6.09362 11.7125 6.05581C11.8036 6.018 11.9013 5.99854 12 5.99854C12.0986 5.99854 12.1963 6.018 12.2874 6.05581C12.3785 6.09362 12.4613 6.14903 12.531 6.21888L17.031 10.7189C17.1718 10.8597 17.2509 11.0507 17.2509 11.2499C17.2509 11.449 17.1718 11.64 17.031 11.7809C16.8901 11.9217 16.6991 12.0008 16.5 12.0008C16.3008 12.0008 16.1098 11.9217 15.969 11.7809L12.75 8.56038V21.7499C12.75 21.9488 12.671 22.1396 12.5303 22.2802C12.3896 22.4209 12.1989 22.4999 12 22.4999C11.8011 22.4999 11.6103 22.4209 11.4696 22.2802C11.329 22.1396 11.25 21.9488 11.25 21.7499V8.56038L8.03097 11.7809C7.89014 11.9217 7.69913 12.0008 7.49997 12.0008C7.30081 12.0008 7.1098 11.9217 6.96897 11.7809C6.82814 11.64 6.74902 11.449 6.74902 11.2499C6.74902 11.0507 6.82814 10.8597 6.96897 10.7189L11.469 6.21888Z" fill="black"/>
</svg>
