<svg width="24" height="24" viewBox="0 0 24 24" fill="none" xmlns="http://www.w3.org/2000/svg">
<path fill-rule="evenodd" clip-rule="evenodd" d="M9.546 3.75C9.546 3.55109 9.62502 3.36032 9.76567 3.21967C9.90632 3.07902 10.0971 3 10.296 3H20.25C20.8467 3 21.419 3.23705 21.841 3.65901C22.2629 4.08097 22.5 4.65326 22.5 5.25V20.25C22.5 20.8467 22.2629 21.419 21.841 21.841C21.419 22.2629 20.8467 22.5 20.25 22.5H5.25C4.65326 22.5 4.08097 22.2629 3.65901 21.841C3.23705 21.419 3 20.8467 3 20.25V10.296C3 10.0971 3.07902 9.90632 3.21967 9.76567C3.36032 9.62502 3.55109 9.546 3.75 9.546C3.94891 9.546 4.13968 9.62502 4.28033 9.76567C4.42098 9.90632 4.5 10.0971 4.5 10.296V20.25C4.5 20.4489 4.57902 20.6397 4.71967 20.7803C4.86032 20.921 5.05109 21 5.25 21H20.25C20.4489 21 20.6397 20.921 20.7803 20.7803C20.921 20.6397 21 20.4489 21 20.25V5.25C21 5.05109 20.921 4.86032 20.7803 4.71967C20.6397 4.57902 20.4489 4.5 20.25 4.5H10.296C10.0971 4.5 9.90632 4.42098 9.76567 4.28033C9.62502 4.13968 9.546 3.94891 9.546 3.75Z" fill="black"/>
<path fill-rule="evenodd" clip-rule="evenodd" d="M16.5 15.7498C16.5 15.9488 16.421 16.1395 16.2803 16.2802C16.1396 16.4208 15.9489 16.4998 15.75 16.4998H8.24997C8.05106 16.4998 7.86029 16.4208 7.71964 16.2802C7.57899 16.1395 7.49997 15.9488 7.49997 15.7498C7.49997 15.5509 7.57899 15.3602 7.71964 15.2195C7.86029 15.0789 8.05106 14.9998 8.24997 14.9998H13.9395L1.71897 2.78085C1.64924 2.71112 1.59392 2.62833 1.55619 2.53722C1.51845 2.44611 1.49902 2.34846 1.49902 2.24985C1.49902 2.15123 1.51845 2.05358 1.55619 1.96247C1.59392 1.87136 1.64924 1.78858 1.71897 1.71885C1.7887 1.64912 1.87149 1.5938 1.9626 1.55606C2.0537 1.51833 2.15136 1.4989 2.24997 1.4989C2.34859 1.4989 2.44624 1.51833 2.53735 1.55606C2.62846 1.5938 2.71124 1.64912 2.78097 1.71885L15 13.9393V8.24985C15 8.05094 15.079 7.86017 15.2196 7.71952C15.3603 7.57887 15.5511 7.49985 15.75 7.49985C15.9489 7.49985 16.1396 7.57887 16.2803 7.71952C16.421 7.86017 16.5 8.05094 16.5 8.24985V15.7498Z" fill="black"/>
</svg>
