<svg width="24" height="24" viewBox="0 0 24 24" fill="none" xmlns="http://www.w3.org/2000/svg">
<path fill-rule="evenodd" clip-rule="evenodd" d="M15 5.25C15 5.05109 14.921 4.86032 14.7803 4.71967C14.6397 4.57902 14.4489 4.5 14.25 4.5H2.25C2.05109 4.5 1.86032 4.57902 1.71967 4.71967C1.57902 4.86032 1.5 5.05109 1.5 5.25V18.75C1.5 18.9489 1.57902 19.1397 1.71967 19.2803C1.86032 19.421 2.05109 19.5 2.25 19.5H14.25C14.4489 19.5 14.6397 19.421 14.7803 19.2803C14.921 19.1397 15 18.9489 15 18.75V15.75C15 15.5511 15.079 15.3603 15.2197 15.2197C15.3603 15.079 15.5511 15 15.75 15C15.9489 15 16.1397 15.079 16.2803 15.2197C16.421 15.3603 16.5 15.5511 16.5 15.75V18.75C16.5 19.3467 16.2629 19.919 15.841 20.341C15.419 20.7629 14.8467 21 14.25 21H2.25C1.65326 21 1.08097 20.7629 0.65901 20.341C0.237053 19.919 0 19.3467 0 18.75L0 5.25C0 4.65326 0.237053 4.08097 0.65901 3.65901C1.08097 3.23705 1.65326 3 2.25 3H14.25C14.8467 3 15.419 3.23705 15.841 3.65901C16.2629 4.08097 16.5 4.65326 16.5 5.25V8.25C16.5 8.44891 16.421 8.63968 16.2803 8.78033C16.1397 8.92098 15.9489 9 15.75 9C15.5511 9 15.3603 8.92098 15.2197 8.78033C15.079 8.63968 15 8.44891 15 8.25V5.25Z" fill="black"/>
<path fill-rule="evenodd" clip-rule="evenodd" d="M6.21839 12.5308C6.14854 12.4612 6.09313 12.3784 6.05532 12.2873C6.01751 12.1962 5.99805 12.0985 5.99805 11.9998C5.99805 11.9012 6.01751 11.8035 6.05532 11.7124C6.09313 11.6213 6.14854 11.5385 6.21839 11.4688L10.7184 6.96885C10.8592 6.82802 11.0502 6.7489 11.2494 6.7489C11.4486 6.7489 11.6396 6.82802 11.7804 6.96885C11.9212 7.10968 12.0003 7.30069 12.0003 7.49985C12.0003 7.69901 11.9212 7.89002 11.7804 8.03085L8.55989 11.2498H21.7494C21.9483 11.2498 22.1391 11.3289 22.2797 11.4695C22.4204 11.6102 22.4994 11.8009 22.4994 11.9998C22.4994 12.1988 22.4204 12.3895 22.2797 12.5302C22.1391 12.6708 21.9483 12.7498 21.7494 12.7498H8.55989L11.7804 15.9688C11.8501 16.0386 11.9054 16.1214 11.9432 16.2125C11.9809 16.3036 12.0003 16.4012 12.0003 16.4998C12.0003 16.5985 11.9809 16.6961 11.9432 16.7872C11.9054 16.8783 11.8501 16.9611 11.7804 17.0308C11.7107 17.1006 11.6279 17.1559 11.5368 17.1936C11.4457 17.2314 11.348 17.2508 11.2494 17.2508C11.1508 17.2508 11.0531 17.2314 10.962 17.1936C10.8709 17.1559 10.7881 17.1006 10.7184 17.0308L6.21839 12.5308Z" fill="black"/>
</svg>
