<svg width="24" height="24" viewBox="0 0 24 24" fill="none" xmlns="http://www.w3.org/2000/svg">
<g clip-path="url(#clip0_4019_1481)">
<path fill-rule="evenodd" clip-rule="evenodd" d="M9 18.75C9 18.9489 9.07902 19.1397 9.21967 19.2803C9.36032 19.421 9.55109 19.5 9.75 19.5H21.75C21.9489 19.5 22.1397 19.421 22.2803 19.2803C22.421 19.1397 22.5 18.9489 22.5 18.75V5.25C22.5 5.05109 22.421 4.86032 22.2803 4.71967C22.1397 4.57902 21.9489 4.5 21.75 4.5H9.75C9.55109 4.5 9.36032 4.57902 9.21967 4.71967C9.07902 4.86032 9 5.05109 9 5.25V8.25C9 8.44891 8.92098 8.63968 8.78033 8.78033C8.63968 8.92098 8.44891 9 8.25 9C8.05109 9 7.86032 8.92098 7.71967 8.78033C7.57902 8.63968 7.5 8.44891 7.5 8.25V5.25C7.5 4.65326 7.73705 4.08097 8.15901 3.65901C8.58097 3.23705 9.15326 3 9.75 3H21.75C22.3467 3 22.919 3.23705 23.341 3.65901C23.7629 4.08097 24 4.65326 24 5.25V18.75C24 19.3467 23.7629 19.919 23.341 20.341C22.919 20.7629 22.3467 21 21.75 21H9.75C9.15326 21 8.58097 20.7629 8.15901 20.341C7.73705 19.919 7.5 19.3467 7.5 18.75V15.75C7.5 15.5511 7.57902 15.3603 7.71967 15.2197C7.86032 15.079 8.05109 15 8.25 15C8.44891 15 8.63968 15.079 8.78033 15.2197C8.92098 15.3603 9 15.5511 9 15.75V18.75Z" fill="black"/>
<path fill-rule="evenodd" clip-rule="evenodd" d="M0.219364 12.5308C0.149519 12.4612 0.094105 12.3784 0.0562953 12.2873C0.0184856 12.1962 -0.000976563 12.0985 -0.000976562 11.9998C-0.000976563 11.9012 0.0184856 11.8035 0.0562953 11.7124C0.094105 11.6213 0.149519 11.5385 0.219364 11.4688L4.71936 6.96885C4.7891 6.89912 4.87188 6.8438 4.96299 6.80606C5.0541 6.76833 5.15175 6.7489 5.25036 6.7489C5.34898 6.7489 5.44663 6.76833 5.53774 6.80606C5.62885 6.8438 5.71163 6.89912 5.78136 6.96885C5.8511 7.03858 5.90641 7.12136 5.94415 7.21247C5.98189 7.30358 6.00131 7.40123 6.00131 7.49985C6.00131 7.59846 5.98189 7.69612 5.94415 7.78722C5.90641 7.87833 5.8511 7.96112 5.78136 8.03085L2.56086 11.2498H15.7504C15.9493 11.2498 16.14 11.3289 16.2807 11.4695C16.4213 11.6102 16.5004 11.8009 16.5004 11.9998C16.5004 12.1988 16.4213 12.3895 16.2807 12.5302C16.14 12.6708 15.9493 12.7498 15.7504 12.7498H2.56086L5.78136 15.9688C5.8511 16.0386 5.90641 16.1214 5.94415 16.2125C5.98189 16.3036 6.00131 16.4012 6.00131 16.4998C6.00131 16.5985 5.98189 16.6961 5.94415 16.7872C5.90641 16.8783 5.8511 16.9611 5.78136 17.0308C5.71163 17.1006 5.62885 17.1559 5.53774 17.1936C5.44663 17.2314 5.34898 17.2508 5.25036 17.2508C5.15175 17.2508 5.0541 17.2314 4.96299 17.1936C4.87188 17.1559 4.7891 17.1006 4.71936 17.0308L0.219364 12.5308Z" fill="black"/>
</g>
<defs>
<clipPath id="clip0_4019_1481">
<rect width="24" height="24" fill="white"/>
</clipPath>
</defs>
</svg>
