<svg width="24" height="24" viewBox="0 0 24 24" fill="none" xmlns="http://www.w3.org/2000/svg">
<g clip-path="url(#clip0_4019_1532)">
<path fill-rule="evenodd" clip-rule="evenodd" d="M4.57544 4.57485C3.60031 5.54988 2.82679 6.70744 2.29905 7.98143C1.77131 9.25542 1.49968 10.6209 1.49968 11.9999C1.49968 13.3788 1.77131 14.7443 2.29905 16.0183C2.82679 17.2923 3.60031 18.4498 4.57544 19.4249C4.71206 19.5663 4.78765 19.7558 4.78594 19.9524C4.78423 20.1491 4.70536 20.3372 4.5663 20.4762C4.42725 20.6153 4.23914 20.6942 4.04249 20.6959C3.84584 20.6976 3.65639 20.622 3.51494 20.4854C2.40057 19.371 1.5166 18.0481 0.913505 16.5922C0.31041 15.1363 0 13.5758 0 11.9999C0 10.4239 0.31041 8.86346 0.913505 7.40751C1.5166 5.95156 2.40057 4.62867 3.51494 3.51435C3.65639 3.37774 3.84584 3.30214 4.04249 3.30385C4.23914 3.30556 4.42725 3.38443 4.5663 3.52349C4.70536 3.66255 4.78423 3.85066 4.78594 4.0473C4.78765 4.24395 4.71206 4.4334 4.57544 4.57485ZM7.75844 7.75785C6.63361 8.88302 6.00172 10.4089 6.00172 11.9999C6.00172 13.5908 6.63361 15.1167 7.75844 16.2419C7.89927 16.3827 7.97838 16.5737 7.97838 16.7729C7.97838 16.972 7.89927 17.163 7.75844 17.3039C7.61761 17.4447 7.4266 17.5238 7.22744 17.5238C7.02827 17.5238 6.83727 17.4447 6.69644 17.3039C5.99979 16.6074 5.44717 15.7805 5.07013 14.8704C4.6931 13.9604 4.49904 12.9849 4.49904 11.9999C4.49904 11.0148 4.6931 10.0393 5.07013 9.12927C5.44717 8.2192 5.99979 7.39232 6.69644 6.69586C6.83727 6.55503 7.02827 6.47591 7.22744 6.47591C7.4266 6.47591 7.61761 6.55503 7.75844 6.69586C7.89927 6.83668 7.97838 7.02769 7.97838 7.22685C7.97838 7.42602 7.89927 7.61702 7.75844 7.75785ZM16.2424 6.69586C16.3121 6.62601 16.3949 6.5706 16.486 6.53279C16.5771 6.49498 16.6748 6.47551 16.7734 6.47551C16.8721 6.47551 16.9698 6.49498 17.0609 6.53279C17.152 6.5706 17.2348 6.62601 17.3044 6.69586C18.0011 7.39232 18.5537 8.2192 18.9307 9.12927C19.3078 10.0393 19.5018 11.0148 19.5018 11.9999C19.5018 12.9849 19.3078 13.9604 18.9307 14.8704C18.5537 15.7805 18.0011 16.6074 17.3044 17.3039C17.2347 17.3736 17.1519 17.4289 17.0608 17.4666C16.9697 17.5044 16.8721 17.5238 16.7734 17.5238C16.6748 17.5238 16.5772 17.5044 16.4861 17.4666C16.395 17.4289 16.3122 17.3736 16.2424 17.3039C16.1727 17.2341 16.1174 17.1513 16.0797 17.0602C16.0419 16.9691 16.0225 16.8715 16.0225 16.7729C16.0225 16.6742 16.0419 16.5766 16.0797 16.4855C16.1174 16.3944 16.1727 16.3116 16.2424 16.2419C17.3673 15.1167 17.9992 13.5908 17.9992 11.9999C17.9992 10.4089 17.3673 8.88302 16.2424 7.75785C16.1726 7.68819 16.1172 7.60542 16.0794 7.51431C16.0416 7.42319 16.0221 7.32551 16.0221 7.22685C16.0221 7.1282 16.0416 7.03052 16.0794 6.9394C16.1172 6.84829 16.1726 6.76552 16.2424 6.69586ZM19.4254 3.51585C19.5661 3.37525 19.7568 3.29626 19.9557 3.29626C20.1546 3.29626 20.3453 3.37525 20.4859 3.51585C22.736 5.76625 24.0001 8.81827 24.0001 12.0006C24.0001 15.1829 22.736 18.235 20.4859 20.4854C20.3445 20.622 20.155 20.6976 19.9584 20.6959C19.7617 20.6942 19.5736 20.6153 19.4346 20.4762C19.2955 20.3372 19.2166 20.1491 19.2149 19.9524C19.2132 19.7558 19.2888 19.5663 19.4254 19.4249C20.4006 18.4498 21.1741 17.2923 21.7018 16.0183C22.2296 14.7443 22.5012 13.3788 22.5012 11.9999C22.5012 10.6209 22.2296 9.25542 21.7018 7.98143C21.1741 6.70744 20.4006 5.54988 19.4254 4.57485C19.2848 4.43421 19.2058 4.24348 19.2058 4.0446C19.2058 3.84573 19.2848 3.655 19.4254 3.51435V3.51585Z" fill="black"/>
<path d="M15 12C15 12.7956 14.6839 13.5587 14.1213 14.1213C13.5587 14.6839 12.7956 15 12 15C11.2044 15 10.4413 14.6839 9.87868 14.1213C9.31607 13.5587 9 12.7956 9 12C9 11.2044 9.31607 10.4413 9.87868 9.87868C10.4413 9.31607 11.2044 9 12 9C12.7956 9 13.5587 9.31607 14.1213 9.87868C14.6839 10.4413 15 11.2044 15 12Z" fill="black"/>
</g>
<defs>
<clipPath id="clip0_4019_1532">
<rect width="24" height="24" fill="white"/>
</clipPath>
</defs>
</svg>
