<svg width="24" height="24" viewBox="0 0 24 24" fill="none" xmlns="http://www.w3.org/2000/svg">
<g clip-path="url(#clip0_4019_1539)">
<path fill-rule="evenodd" clip-rule="evenodd" d="M3.78324 7.50002H3.00024C2.89242 7.50012 2.7859 7.52347 2.68793 7.56847C2.58996 7.61347 2.50284 7.67907 2.43251 7.76078C2.36219 7.8425 2.3103 7.93842 2.2804 8.042C2.2505 8.14558 2.24328 8.25439 2.25924 8.36102L4.31724 22.0845C4.39728 22.617 4.66561 23.1031 5.07351 23.4545C5.4814 23.806 6.00181 23.9995 6.54024 24H17.4572C17.9959 23.9999 18.5167 23.8065 18.9249 23.455C19.3331 23.1035 19.6017 22.6172 19.6817 22.0845L21.7412 8.36102C21.7572 8.25439 21.75 8.14558 21.7201 8.042C21.6902 7.93842 21.6383 7.8425 21.568 7.76078C21.4976 7.67907 21.4105 7.61347 21.3125 7.56847C21.2146 7.52347 21.108 7.50012 21.0002 7.50002H20.2172C20.0331 5.44784 19.0878 3.53882 17.5671 2.1485C16.0465 0.758176 14.0607 -0.0128174 12.0002 -0.0128174C9.93981 -0.0128174 7.95397 0.758176 6.43333 2.1485C4.91269 3.53882 3.96734 5.44784 3.78324 7.50002ZM5.29074 7.50002H18.7082C18.5249 5.84897 17.7391 4.32353 16.5013 3.21561C15.2635 2.10769 13.6607 1.49512 11.9995 1.49512C10.3383 1.49512 8.73543 2.10769 7.49765 3.21561C6.25987 4.32353 5.47411 5.84897 5.29074 7.50002Z" fill="black"/>
</g>
<defs>
<clipPath id="clip0_4019_1539">
<rect width="24" height="24" fill="white"/>
</clipPath>
</defs>
</svg>
