<svg width="15" height="15" viewBox="0 0 15 15" fill="none" xmlns="http://www.w3.org/2000/svg">
<g clip-path="url(#clip0_5004_11607)">
<path fill-rule="evenodd" clip-rule="evenodd" d="M13.8403 0.0721554C13.9082 0.11415 13.9643 0.172792 14.0031 0.242521C14.042 0.31225 14.0625 0.390755 14.0625 0.470593V14.5331C14.0625 14.6574 14.0131 14.7766 13.9252 14.8645C13.8373 14.9525 13.7181 15.0018 13.5938 15.0018H10.7812C10.6569 15.0018 10.5377 14.9525 10.4498 14.8645C10.3619 14.7766 10.3125 14.6574 10.3125 14.5331V13.1268H9.375V14.5331C9.375 14.6574 9.32561 14.7766 9.23771 14.8645C9.1498 14.9525 9.03057 15.0018 8.90625 15.0018H0.46875C0.34443 15.0018 0.225201 14.9525 0.137294 14.8645C0.049386 14.7766 0 14.6574 0 14.5331V9.37684C7.46688e-05 9.2785 0.0310763 9.18268 0.0886171 9.10293C0.146158 9.02318 0.227323 8.96354 0.320625 8.93247L5.625 7.16434V4.22059C5.625 4.13361 5.64921 4.04835 5.6949 3.97434C5.7406 3.90033 5.80599 3.8405 5.88375 3.80153L13.3838 0.0515304C13.4553 0.0157234 13.5348 -0.00117944 13.6147 0.00243076C13.6946 0.00604097 13.7723 0.0300441 13.8403 0.0721554V0.0721554ZM5.625 8.15247L0.9375 9.71434V14.0643H5.625V8.15247ZM6.5625 14.0643H8.4375V12.6581C8.4375 12.5338 8.48689 12.4145 8.57479 12.3266C8.6627 12.2387 8.78193 12.1893 8.90625 12.1893H10.7812C10.9056 12.1893 11.0248 12.2387 11.1127 12.3266C11.2006 12.4145 11.25 12.5338 11.25 12.6581V14.0643H13.125V1.22903L6.5625 4.51028V14.0643Z" fill="#27214D"/>
<path d="M1.875 10.3125H2.8125V11.25H1.875V10.3125ZM3.75 10.3125H4.6875V11.25H3.75V10.3125ZM1.875 12.1875H2.8125V13.125H1.875V12.1875ZM3.75 12.1875H4.6875V13.125H3.75V12.1875ZM7.5 8.4375H8.4375V9.375H7.5V8.4375ZM9.375 8.4375H10.3125V9.375H9.375V8.4375ZM7.5 10.3125H8.4375V11.25H7.5V10.3125ZM9.375 10.3125H10.3125V11.25H9.375V10.3125ZM11.25 8.4375H12.1875V9.375H11.25V8.4375ZM11.25 10.3125H12.1875V11.25H11.25V10.3125ZM7.5 6.5625H8.4375V7.5H7.5V6.5625ZM9.375 6.5625H10.3125V7.5H9.375V6.5625ZM11.25 6.5625H12.1875V7.5H11.25V6.5625ZM7.5 4.6875H8.4375V5.625H7.5V4.6875ZM9.375 4.6875H10.3125V5.625H9.375V4.6875ZM11.25 4.6875H12.1875V5.625H11.25V4.6875ZM11.25 2.8125H12.1875V3.75H11.25V2.8125Z" fill="black"/>
</g>
<defs>
<clipPath id="clip0_5004_11607">
<rect width="15" height="15" fill="white"/>
</clipPath>
</defs>
</svg>
