<svg width="24" height="24" viewBox="0 0 24 24" fill="none" xmlns="http://www.w3.org/2000/svg">
<g clip-path="url(#clip0_4019_1645)">
<path fill-rule="evenodd" clip-rule="evenodd" d="M5.25 0C5.44891 0 5.63968 0.0790176 5.78033 0.21967C5.92098 0.360322 6 0.551088 6 0.75V1.5H18V0.75C18 0.551088 18.079 0.360322 18.2197 0.21967C18.3603 0.0790176 18.5511 0 18.75 0C18.9489 0 19.1397 0.0790176 19.2803 0.21967C19.421 0.360322 19.5 0.551088 19.5 0.75V1.5H21C21.7956 1.5 22.5587 1.81607 23.1213 2.37868C23.6839 2.94129 24 3.70435 24 4.5V21C24 21.7956 23.6839 22.5587 23.1213 23.1213C22.5587 23.6839 21.7956 24 21 24H3C2.20435 24 1.44129 23.6839 0.87868 23.1213C0.316071 22.5587 0 21.7956 0 21V4.5C0 3.70435 0.316071 2.94129 0.87868 2.37868C1.44129 1.81607 2.20435 1.5 3 1.5H4.5V0.75C4.5 0.551088 4.57902 0.360322 4.71967 0.21967C4.86032 0.0790176 5.05109 0 5.25 0V0ZM3 3C2.60218 3 2.22064 3.15804 1.93934 3.43934C1.65804 3.72064 1.5 4.10218 1.5 4.5V21C1.5 21.3978 1.65804 21.7794 1.93934 22.0607C2.22064 22.342 2.60218 22.5 3 22.5H21C21.3978 22.5 21.7794 22.342 22.0607 22.0607C22.342 21.7794 22.5 21.3978 22.5 21V4.5C22.5 4.10218 22.342 3.72064 22.0607 3.43934C21.7794 3.15804 21.3978 3 21 3H3Z" fill="black"/>
<path d="M3.75039 6C3.75039 5.80109 3.82941 5.61032 3.97006 5.46967C4.11071 5.32902 4.30148 5.25 4.50039 5.25H19.5004C19.6993 5.25 19.8901 5.32902 20.0307 5.46967C20.1714 5.61032 20.2504 5.80109 20.2504 6V7.5C20.2504 7.69891 20.1714 7.88968 20.0307 8.03033C19.8901 8.17098 19.6993 8.25 19.5004 8.25H4.50039C4.30148 8.25 4.11071 8.17098 3.97006 8.03033C3.82941 7.88968 3.75039 7.69891 3.75039 7.5V6ZM3.84039 18.498L4.65039 16.095H7.62639L8.43639 18.498H9.51339L6.66639 10.5H5.62239L2.77539 18.498H3.84039ZM6.15639 11.7075L7.35039 15.27H4.92639L6.12639 11.7075H6.15639ZM14.7754 12.3405H13.7614V16.155C13.7614 17.133 13.1404 17.6895 12.2554 17.6895C11.4469 17.6895 10.7854 17.3205 10.7854 16.1715V12.3405H9.77139V16.4595C9.77139 17.871 10.6804 18.597 11.9509 18.597C12.9349 18.597 13.5154 18.177 13.7329 17.6895H13.7734V18.498H14.7754V12.3405ZM18.1624 19.9095C17.3179 19.9095 16.7974 19.4535 16.6849 18.9555H15.6544C15.7954 19.98 16.5919 20.754 18.1564 20.754C19.5514 20.754 20.7754 19.9635 20.7754 18.387V12.3405H19.8019V13.2075H19.7734C19.4869 12.6855 18.8179 12.2475 17.9809 12.2475C16.5334 12.2475 15.5209 13.266 15.5209 15.0765V15.5865C15.5209 17.4315 16.5454 18.4395 17.9809 18.4395C18.8179 18.4395 19.4929 18 19.7389 17.4675H19.7689V18.375C19.7689 19.3425 19.1344 19.9095 18.1624 19.9095ZM18.1744 13.1145C19.1464 13.1145 19.7674 13.905 19.7674 15.153V15.5325C19.7674 16.8045 19.1824 17.5785 18.1744 17.5785C17.1364 17.5785 16.5274 16.8105 16.5274 15.5325V15.153C16.5274 13.851 17.1364 13.113 18.1744 13.113V13.1145Z" fill="black"/>
</g>
<defs>
<clipPath id="clip0_4019_1645">
<rect width="24" height="24" fill="white"/>
</clipPath>
</defs>
</svg>
