<svg width="24" height="24" viewBox="0 0 24 24" fill="none" xmlns="http://www.w3.org/2000/svg">
<g clip-path="url(#clip0_4019_1616)">
<path fill-rule="evenodd" clip-rule="evenodd" d="M5.25 0C5.44891 0 5.63968 0.0790176 5.78033 0.21967C5.92098 0.360322 6 0.551088 6 0.75V1.5H18V0.75C18 0.551088 18.079 0.360322 18.2197 0.21967C18.3603 0.0790176 18.5511 0 18.75 0C18.9489 0 19.1397 0.0790176 19.2803 0.21967C19.421 0.360322 19.5 0.551088 19.5 0.75V1.5H21C21.7956 1.5 22.5587 1.81607 23.1213 2.37868C23.6839 2.94129 24 3.70435 24 4.5V21C24 21.7956 23.6839 22.5587 23.1213 23.1213C22.5587 23.6839 21.7956 24 21 24H3C2.20435 24 1.44129 23.6839 0.87868 23.1213C0.316071 22.5587 0 21.7956 0 21V4.5C0 3.70435 0.316071 2.94129 0.87868 2.37868C1.44129 1.81607 2.20435 1.5 3 1.5H4.5V0.75C4.5 0.551088 4.57902 0.360322 4.71967 0.21967C4.86032 0.0790176 5.05109 0 5.25 0V0ZM3 3C2.60218 3 2.22064 3.15804 1.93934 3.43934C1.65804 3.72064 1.5 4.10218 1.5 4.5V21C1.5 21.3978 1.65804 21.7794 1.93934 22.0607C2.22064 22.342 2.60218 22.5 3 22.5H21C21.3978 22.5 21.7794 22.342 22.0607 22.0607C22.342 21.7794 22.5 21.3978 22.5 21V4.5C22.5 4.10218 22.342 3.72064 22.0607 3.43934C21.7794 3.15804 21.3978 3 21 3H3Z" fill="black"/>
<path d="M3.75 6C3.75 5.80109 3.82902 5.61032 3.96967 5.46967C4.11032 5.32902 4.30109 5.25 4.5 5.25H19.5C19.6989 5.25 19.8897 5.32902 20.0303 5.46967C20.171 5.61032 20.25 5.80109 20.25 6V7.5C20.25 7.69891 20.171 7.88968 20.0303 8.03033C19.8897 8.17098 19.6989 8.25 19.5 8.25H4.5C4.30109 8.25 4.11032 8.17098 3.96967 8.03033C3.82902 7.88968 3.75 7.69891 3.75 7.5V6Z" fill="black"/>
<path fill-rule="evenodd" clip-rule="evenodd" d="M16.281 12.2189C16.3508 12.2885 16.4062 12.3713 16.444 12.4624C16.4818 12.5535 16.5013 12.6512 16.5013 12.7499C16.5013 12.8485 16.4818 12.9462 16.444 13.0373C16.4062 13.1284 16.3508 13.2112 16.281 13.2809L11.781 17.7809C11.7113 17.8507 11.6285 17.9061 11.5374 17.9439C11.4463 17.9818 11.3486 18.0012 11.25 18.0012C11.1513 18.0012 11.0536 17.9818 10.9625 17.9439C10.8714 17.9061 10.7886 17.8507 10.719 17.7809L8.46897 15.5309C8.39924 15.4611 8.34392 15.3784 8.30619 15.2873C8.26845 15.1961 8.24902 15.0985 8.24902 14.9999C8.24902 14.9013 8.26845 14.8036 8.30619 14.7125C8.34392 14.6214 8.39924 14.5386 8.46897 14.4689C8.6098 14.328 8.80081 14.2489 8.99997 14.2489C9.09859 14.2489 9.19624 14.2684 9.28735 14.3061C9.37846 14.3438 9.46124 14.3991 9.53097 14.4689L11.25 16.1894L15.219 12.2189C15.2886 12.149 15.3714 12.0936 15.4625 12.0558C15.5536 12.018 15.6513 11.9985 15.75 11.9985C15.8486 11.9985 15.9463 12.018 16.0374 12.0558C16.1285 12.0936 16.2113 12.149 16.281 12.2189Z" fill="black"/>
</g>
<defs>
<clipPath id="clip0_4019_1616">
<rect width="24" height="24" fill="white"/>
</clipPath>
</defs>
</svg>
