<svg width="24" height="24" viewBox="0 0 24 24" fill="none" xmlns="http://www.w3.org/2000/svg">
<g clip-path="url(#clip0_4019_1589)">
<path fill-rule="evenodd" clip-rule="evenodd" d="M5.25 0C5.44891 0 5.63968 0.0790176 5.78033 0.21967C5.92098 0.360322 6 0.551088 6 0.75V1.5H18V0.75C18 0.551088 18.079 0.360322 18.2197 0.21967C18.3603 0.0790176 18.5511 0 18.75 0C18.9489 0 19.1397 0.0790176 19.2803 0.21967C19.421 0.360322 19.5 0.551088 19.5 0.75V1.5H21C21.7956 1.5 22.5587 1.81607 23.1213 2.37868C23.6839 2.94129 24 3.70435 24 4.5V21C24 21.7956 23.6839 22.5587 23.1213 23.1213C22.5587 23.6839 21.7956 24 21 24H3C2.20435 24 1.44129 23.6839 0.87868 23.1213C0.316071 22.5587 0 21.7956 0 21V4.5C0 3.70435 0.316071 2.94129 0.87868 2.37868C1.44129 1.81607 2.20435 1.5 3 1.5H4.5V0.75C4.5 0.551088 4.57902 0.360322 4.71967 0.21967C4.86032 0.0790176 5.05109 0 5.25 0V0ZM1.5 6V21C1.5 21.3978 1.65804 21.7794 1.93934 22.0607C2.22064 22.342 2.60218 22.5 3 22.5H21C21.3978 22.5 21.7794 22.342 22.0607 22.0607C22.342 21.7794 22.5 21.3978 22.5 21V6H1.5Z" fill="black"/>
<path d="M3.84039 16.998L4.65039 14.595H7.62639L8.43639 16.998H9.51339L6.66639 9H5.62239L2.77539 16.998H3.84039ZM6.15639 10.2075L7.35039 13.77H4.92639L6.12639 10.2075H6.15639ZM14.7754 10.8405H13.7614V14.655C13.7614 15.633 13.1404 16.1895 12.2554 16.1895C11.4469 16.1895 10.7854 15.8205 10.7854 14.6715V10.8405H9.77139V14.9595C9.77139 16.371 10.6804 17.097 11.9509 17.097C12.9349 17.097 13.5154 16.677 13.7329 16.1895H13.7734V16.998H14.7754V10.8405ZM18.1624 18.4095C17.3179 18.4095 16.7974 17.9535 16.6849 17.4555H15.6544C15.7954 18.48 16.5919 19.254 18.1564 19.254C19.5514 19.254 20.7754 18.4635 20.7754 16.887V10.8405H19.8019V11.7075H19.7734C19.4869 11.1855 18.8179 10.7475 17.9809 10.7475C16.5334 10.7475 15.5209 11.766 15.5209 13.5765V14.0865C15.5209 15.9315 16.5454 16.9395 17.9809 16.9395C18.8179 16.9395 19.4929 16.5 19.7389 15.9675H19.7689V16.875C19.7689 17.8425 19.1344 18.4095 18.1624 18.4095ZM18.1744 11.6145C19.1464 11.6145 19.7674 12.405 19.7674 13.653V14.0325C19.7674 15.3045 19.1824 16.0785 18.1744 16.0785C17.1364 16.0785 16.5274 15.3105 16.5274 14.0325V13.653C16.5274 12.351 17.1364 11.613 18.1744 11.613V11.6145Z" fill="black"/>
</g>
<defs>
<clipPath id="clip0_4019_1589">
<rect width="24" height="24" fill="white"/>
</clipPath>
</defs>
</svg>
