<svg width="24" height="24" viewBox="0 0 24 24" fill="none" xmlns="http://www.w3.org/2000/svg">
<path fill-rule="evenodd" clip-rule="evenodd" d="M21.75 4.5H2.25C2.05109 4.5 1.86032 4.57902 1.71967 4.71967C1.57902 4.86032 1.5 5.05109 1.5 5.25V18.75C1.5 18.9489 1.57902 19.1397 1.71967 19.2803C1.86032 19.421 2.05109 19.5 2.25 19.5H21.75C21.9489 19.5 22.1397 19.421 22.2803 19.2803C22.421 19.1397 22.5 18.9489 22.5 18.75V5.25C22.5 5.05109 22.421 4.86032 22.2803 4.71967C22.1397 4.57902 21.9489 4.5 21.75 4.5ZM2.25 3C1.65326 3 1.08097 3.23705 0.65901 3.65901C0.237053 4.08097 0 4.65326 0 5.25L0 18.75C0 19.3467 0.237053 19.919 0.65901 20.341C1.08097 20.7629 1.65326 21 2.25 21H21.75C22.3467 21 22.919 20.7629 23.341 20.341C23.7629 19.919 24 19.3467 24 18.75V5.25C24 4.65326 23.7629 4.08097 23.341 3.65901C22.919 3.23705 22.3467 3 21.75 3H2.25Z" fill="black"/>
<path fill-rule="evenodd" clip-rule="evenodd" d="M10.4996 8.24988C10.4996 8.05096 10.5786 7.8602 10.7192 7.71955C10.8599 7.57889 11.0507 7.49988 11.2496 7.49988H18.7496C18.9485 7.49988 19.1393 7.57889 19.2799 7.71955C19.4206 7.8602 19.4996 8.05096 19.4996 8.24988C19.4996 8.44879 19.4206 8.63955 19.2799 8.78021C19.1393 8.92086 18.9485 8.99988 18.7496 8.99988H11.2496C11.0507 8.99988 10.8599 8.92086 10.7192 8.78021C10.5786 8.63955 10.4996 8.44879 10.4996 8.24988ZM8.25558 6.96888C8.32543 7.03854 8.38084 7.12131 8.41865 7.21243C8.45646 7.30354 8.47592 7.40122 8.47592 7.49988C8.47592 7.59853 8.45646 7.69621 8.41865 7.78733C8.38084 7.87844 8.32543 7.96121 8.25558 8.03088L6.00558 10.2809C5.93591 10.3507 5.85315 10.4061 5.76203 10.4439C5.67091 10.4818 5.57323 10.5012 5.47458 10.5012C5.37593 10.5012 5.27825 10.4818 5.18713 10.4439C5.09601 10.4061 5.01325 10.3507 4.94358 10.2809L4.19358 9.53088C4.12385 9.46114 4.06853 9.37836 4.0308 9.28725C3.99306 9.19614 3.97363 9.09849 3.97363 8.99988C3.97363 8.80071 4.05275 8.60971 4.19358 8.46888C4.33441 8.32805 4.52542 8.24893 4.72458 8.24893C4.92374 8.24893 5.11475 8.32805 5.25558 8.46888L5.47458 8.68938L7.19358 6.96888C7.26325 6.89903 7.34601 6.84362 7.43713 6.80581C7.52825 6.768 7.62593 6.74854 7.72458 6.74854C7.82323 6.74854 7.92091 6.768 8.01203 6.80581C8.10315 6.84362 8.18591 6.89903 8.25558 6.96888ZM10.4996 14.2499C10.4996 14.051 10.5786 13.8602 10.7192 13.7195C10.8599 13.5789 11.0507 13.4999 11.2496 13.4999H18.7496C18.9485 13.4999 19.1393 13.5789 19.2799 13.7195C19.4206 13.8602 19.4996 14.051 19.4996 14.2499C19.4996 14.4488 19.4206 14.6396 19.2799 14.7802C19.1393 14.9209 18.9485 14.9999 18.7496 14.9999H11.2496C11.0507 14.9999 10.8599 14.9209 10.7192 14.7802C10.5786 14.6396 10.4996 14.4488 10.4996 14.2499ZM8.25558 12.9689C8.32543 13.0385 8.38084 13.1213 8.41865 13.2124C8.45646 13.3035 8.47592 13.4012 8.47592 13.4999C8.47592 13.5985 8.45646 13.6962 8.41865 13.7873C8.38084 13.8784 8.32543 13.9612 8.25558 14.0309L6.00558 16.2809C5.93591 16.3507 5.85315 16.4061 5.76203 16.4439C5.67091 16.4818 5.57323 16.5012 5.47458 16.5012C5.37593 16.5012 5.27825 16.4818 5.18713 16.4439C5.09601 16.4061 5.01325 16.3507 4.94358 16.2809L4.19358 15.5309C4.12385 15.4611 4.06853 15.3784 4.0308 15.2873C3.99306 15.1961 3.97363 15.0985 3.97363 14.9999C3.97363 14.9013 3.99306 14.8036 4.0308 14.7125C4.06853 14.6214 4.12385 14.5386 4.19358 14.4689C4.26331 14.3991 4.3461 14.3438 4.43721 14.3061C4.52831 14.2684 4.62596 14.2489 4.72458 14.2489C4.8232 14.2489 4.92085 14.2684 5.01196 14.3061C5.10306 14.3438 5.18585 14.3991 5.25558 14.4689L5.47458 14.6894L7.19358 12.9689C7.26325 12.899 7.34601 12.8436 7.43713 12.8058C7.52825 12.768 7.62593 12.7485 7.72458 12.7485C7.82323 12.7485 7.92091 12.768 8.01203 12.8058C8.10315 12.8436 8.18591 12.899 8.25558 12.9689Z" fill="black"/>
</svg>
