<svg width="24" height="24" viewBox="0 0 24 24" fill="none" xmlns="http://www.w3.org/2000/svg">
<path d="M10.8708 7.29003L3.67676 15.5115C2.82776 16.482 3.51776 18 4.80626 18H19.1943C19.4826 18.0003 19.765 17.9174 20.0074 17.7613C20.2499 17.6052 20.4423 17.3826 20.5614 17.12C20.6806 16.8574 20.7216 16.566 20.6794 16.2808C20.6373 15.9955 20.5138 15.7284 20.3238 15.5115L13.1298 7.29153C12.989 7.13042 12.8153 7.00129 12.6205 6.91281C12.4257 6.82434 12.2142 6.77856 12.0003 6.77856C11.7863 6.77856 11.5748 6.82434 11.38 6.91281C11.1852 7.00129 11.0116 7.13042 10.8708 7.29153V7.29003Z" fill="black"/>
</svg>
