<svg width="24" height="24" viewBox="0 0 24 24" fill="none" xmlns="http://www.w3.org/2000/svg">
<path d="M5.78979 13.1295L14.0128 20.3235C14.9818 21.1725 16.4998 20.4825 16.4998 19.194V4.80597C16.5 4.51761 16.4172 4.23528 16.2611 3.99281C16.105 3.75033 15.8823 3.55798 15.6198 3.4388C15.3572 3.31962 15.0658 3.27865 14.7805 3.3208C14.4953 3.36295 14.2282 3.48644 14.0113 3.67647L5.79129 10.8705C5.63018 11.0113 5.50105 11.1849 5.41257 11.3797C5.32409 11.5745 5.27832 11.786 5.27832 12C5.27832 12.2139 5.32409 12.4254 5.41257 12.6202C5.50105 12.8151 5.63018 12.9887 5.79129 13.1295H5.78979Z" fill="black"/>
</svg>
