<svg width="24" height="24" viewBox="0 0 24 24" fill="none" xmlns="http://www.w3.org/2000/svg">
<path fill-rule="evenodd" clip-rule="evenodd" d="M14.9998 19.194L6.77829 12L14.9998 4.80597V19.194ZM14.0113 20.3235L5.79129 13.1295C5.63018 12.9887 5.50105 12.8151 5.41257 12.6202C5.32409 12.4254 5.27832 12.2139 5.27832 12C5.27832 11.786 5.32409 11.5745 5.41257 11.3797C5.50105 11.1849 5.63018 11.0113 5.79129 10.8705L14.0113 3.67647C14.2282 3.48644 14.4953 3.36295 14.7805 3.3208C15.0658 3.27865 15.3572 3.31962 15.6198 3.4388C15.8823 3.55798 16.105 3.75033 16.2611 3.99281C16.4172 4.23528 16.5 4.51761 16.4998 4.80597V19.194C16.5 19.4823 16.4172 19.7647 16.2611 20.0071C16.105 20.2496 15.8823 20.442 15.6198 20.5611C15.3572 20.6803 15.0658 20.7213 14.7805 20.6791C14.4953 20.637 14.2282 20.5135 14.0113 20.3235Z" fill="black"/>
</svg>
