<svg width="24" height="24" viewBox="0 0 24 24" fill="none" xmlns="http://www.w3.org/2000/svg">
<path d="M10.8708 16.71L3.67676 8.487C2.82776 7.5195 3.51776 6 4.80626 6H19.1943C19.4826 5.99975 19.765 6.08263 20.0074 6.23871C20.2499 6.39479 20.4423 6.61746 20.5614 6.88004C20.6806 7.14262 20.7216 7.434 20.6794 7.71927C20.6373 8.00454 20.5138 8.27161 20.3238 8.4885L13.1298 16.7085C12.989 16.8696 12.8153 16.9987 12.6205 17.0872C12.4257 17.1757 12.2142 17.2215 12.0003 17.2215C11.7863 17.2215 11.5748 17.1757 11.38 17.0872C11.1852 16.9987 11.0116 16.8696 10.8708 16.7085V16.71Z" fill="black"/>
</svg>
