<svg width="24" height="24" viewBox="0 0 24 24" fill="none" xmlns="http://www.w3.org/2000/svg">
<g clip-path="url(#clip0_4019_1923)">
<path fill-rule="evenodd" clip-rule="evenodd" d="M18.531 5.46888C18.6008 5.53854 18.6562 5.62131 18.694 5.71243C18.7318 5.80354 18.7513 5.90123 18.7513 5.99988C18.7513 6.09853 18.7318 6.19621 18.694 6.28733C18.6562 6.37844 18.6008 6.46121 18.531 6.53088L8.03097 17.0309C7.9613 17.1007 7.87854 17.1561 7.78742 17.1939C7.6963 17.2318 7.59862 17.2512 7.49997 17.2512C7.40132 17.2512 7.30364 17.2318 7.21252 17.1939C7.1214 17.1561 7.03864 17.1007 6.96897 17.0309L1.71897 11.7809C1.57814 11.64 1.49902 11.449 1.49902 11.2499C1.49902 11.0507 1.57814 10.8597 1.71897 10.7189C1.8598 10.578 2.05081 10.4989 2.24997 10.4989C2.44913 10.4989 2.64014 10.578 2.78097 10.7189L7.49997 15.4394L17.469 5.46888C17.5386 5.39903 17.6214 5.34362 17.7125 5.30581C17.8036 5.268 17.9013 5.24854 18 5.24854C18.0986 5.24854 18.1963 5.268 18.2874 5.30581C18.3785 5.34362 18.4613 5.39903 18.531 5.46888Z" fill="black"/>
<path d="M9.37497 12.0643L8.03097 10.7188C7.89014 10.578 7.69913 10.4989 7.49997 10.4989C7.30081 10.4989 7.1098 10.578 6.96897 10.7188C6.82814 10.8597 6.74902 11.0507 6.74902 11.2498C6.74902 11.449 6.82814 11.64 6.96897 11.7808L8.31447 13.1248L9.37497 12.0643ZM10.875 15.6853L12.219 17.0308C12.2886 17.1007 12.3714 17.1561 12.4625 17.1939C12.5536 17.2317 12.6513 17.2512 12.75 17.2512C12.8486 17.2512 12.9463 17.2317 13.0374 17.1939C13.1285 17.1561 13.2113 17.1007 13.281 17.0308L23.781 6.53085C23.9218 6.39002 24.0009 6.19901 24.0009 5.99985C24.0009 5.80069 23.9218 5.60968 23.781 5.46885C23.6401 5.32802 23.4491 5.2489 23.25 5.2489C23.0508 5.2489 22.8598 5.32802 22.719 5.46885L12.75 15.4393L11.9355 14.6248L10.875 15.6853Z" fill="black"/>
</g>
<defs>
<clipPath id="clip0_4019_1923">
<rect width="24" height="24" fill="white"/>
</clipPath>
</defs>
</svg>
