<svg width="24" height="24" viewBox="0 0 24 24" fill="none" xmlns="http://www.w3.org/2000/svg">
<path fill-rule="evenodd" clip-rule="evenodd" d="M23.031 3.96888C23.1008 4.03854 23.1562 4.12131 23.194 4.21243C23.2318 4.30354 23.2513 4.40122 23.2513 4.49988C23.2513 4.59853 23.2318 4.69621 23.194 4.78733C23.1562 4.87844 23.1008 4.96121 23.031 5.03088L12.531 15.5309C12.4613 15.6007 12.3785 15.6561 12.2874 15.6939C12.1963 15.7318 12.0986 15.7512 12 15.7512C11.9013 15.7512 11.8036 15.7318 11.7125 15.6939C11.6214 15.6561 11.5386 15.6007 11.469 15.5309L6.96897 11.0309C6.89924 10.9611 6.84392 10.8784 6.80619 10.7873C6.76845 10.6961 6.74902 10.5985 6.74902 10.4999C6.74902 10.4013 6.76845 10.3036 6.80619 10.2125C6.84392 10.1214 6.89924 10.0386 6.96897 9.96887C7.0387 9.89914 7.12149 9.84383 7.2126 9.80609C7.3037 9.76835 7.40136 9.74893 7.49997 9.74893C7.59859 9.74893 7.69624 9.76835 7.78735 9.80609C7.87846 9.84383 7.96124 9.89914 8.03097 9.96887L12 13.9394L21.969 3.96888C22.0386 3.89903 22.1214 3.84362 22.2125 3.80581C22.3036 3.768 22.4013 3.74854 22.5 3.74854C22.5986 3.74854 22.6963 3.768 22.7874 3.80581C22.8785 3.84362 22.9613 3.89903 23.031 3.96888Z" fill="black"/>
<path fill-rule="evenodd" clip-rule="evenodd" d="M12 3.75017C10.3683 3.75017 8.77326 4.23402 7.41656 5.14054C6.05985 6.04706 5.00243 7.33554 4.37801 8.84303C3.75358 10.3505 3.59021 12.0093 3.90854 13.6097C4.22686 15.21 5.0126 16.68 6.16638 17.8338C7.32017 18.9876 8.79018 19.7733 10.3905 20.0916C11.9909 20.41 13.6497 20.2466 15.1572 19.6222C16.6646 18.9977 17.9531 17.9403 18.8596 16.5836C19.7662 15.2269 20.25 13.6319 20.25 12.0002C20.25 11.8013 20.329 11.6105 20.4697 11.4698C20.6103 11.3292 20.8011 11.2502 21 11.2502C21.1989 11.2502 21.3897 11.3292 21.5303 11.4698C21.671 11.6105 21.75 11.8013 21.75 12.0002C21.7497 14.1464 21.0413 16.2326 19.7345 17.9352C18.4278 19.6378 16.5958 20.8616 14.5226 21.4169C12.4494 21.9722 10.2509 21.8279 8.26813 21.0064C6.28531 20.1849 4.62896 18.7322 3.55595 16.8734C2.48294 15.0146 2.05324 12.8537 2.33349 10.7258C2.61373 8.59794 3.58826 6.62199 5.10594 5.1044C6.62362 3.58682 8.59964 2.61242 10.7275 2.33231C12.8554 2.0522 15.0163 2.48204 16.875 3.55517C16.9646 3.60205 17.0439 3.66659 17.1079 3.74488C17.1719 3.82318 17.2195 3.91362 17.2477 4.01076C17.2759 4.10791 17.2841 4.20975 17.2719 4.31017C17.2597 4.41058 17.2273 4.50749 17.1767 4.59506C17.1261 4.68264 17.0583 4.75907 16.9773 4.81975C16.8964 4.88044 16.8041 4.92413 16.7058 4.9482C16.6076 4.97226 16.5055 4.9762 16.4056 4.95979C16.3058 4.94337 16.2104 4.90693 16.125 4.85267C14.8714 4.1277 13.4482 3.74733 12 3.75017Z" fill="black"/>
</svg>
