<svg width="24" height="24" viewBox="0 0 24 24" fill="none" xmlns="http://www.w3.org/2000/svg">
<g clip-path="url(#clip0_4019_1918)">
<path fill-rule="evenodd" clip-rule="evenodd" d="M21 1.5H3C2.60218 1.5 2.22064 1.65804 1.93934 1.93934C1.65804 2.22064 1.5 2.60218 1.5 3V21C1.5 21.3978 1.65804 21.7794 1.93934 22.0607C2.22064 22.342 2.60218 22.5 3 22.5H21C21.3978 22.5 21.7794 22.342 22.0607 22.0607C22.342 21.7794 22.5 21.3978 22.5 21V3C22.5 2.60218 22.342 2.22064 22.0607 1.93934C21.7794 1.65804 21.3978 1.5 21 1.5ZM3 0C2.20435 0 1.44129 0.316071 0.87868 0.87868C0.316071 1.44129 0 2.20435 0 3L0 21C0 21.7956 0.316071 22.5587 0.87868 23.1213C1.44129 23.6839 2.20435 24 3 24H21C21.7956 24 22.5587 23.6839 23.1213 23.1213C23.6839 22.5587 24 21.7956 24 21V3C24 2.20435 23.6839 1.44129 23.1213 0.87868C22.5587 0.316071 21.7956 0 21 0L3 0Z" fill="black"/>
<path fill-rule="evenodd" clip-rule="evenodd" d="M16.455 7.45505C16.6649 7.24696 16.9483 7.12985 17.2439 7.12903C17.5395 7.12822 17.8235 7.24377 18.0346 7.4507C18.2456 7.65763 18.3668 7.93931 18.3718 8.23486C18.3769 8.5304 18.2654 8.81605 18.0615 9.03005L12.0735 16.5151C11.9706 16.6259 11.8464 16.7149 11.7083 16.7766C11.5702 16.8384 11.4211 16.8716 11.2699 16.8744C11.1186 16.8772 10.9684 16.8495 10.8281 16.7929C10.6879 16.7363 10.5604 16.652 10.4535 16.5451L6.48599 12.5761C6.37546 12.4731 6.28681 12.3489 6.22532 12.2109C6.16383 12.0729 6.13077 11.9239 6.1281 11.7728C6.12544 11.6218 6.15323 11.4717 6.20981 11.3317C6.26639 11.1916 6.35061 11.0643 6.45743 10.9575C6.56426 10.8507 6.69151 10.7665 6.8316 10.7099C6.97168 10.6533 7.12172 10.6255 7.27278 10.6282C7.42383 10.6308 7.5728 10.6639 7.7108 10.7254C7.8488 10.7869 7.973 10.8755 8.07599 10.9861L11.217 14.1256L16.4265 7.48805C16.4358 7.47643 16.4458 7.46541 16.4565 7.45505H16.455Z" fill="black"/>
</g>
<defs>
<clipPath id="clip0_4019_1918">
<rect width="24" height="24" fill="white"/>
</clipPath>
</defs>
</svg>
