<svg width="24" height="24" viewBox="0 0 24 24" fill="none" xmlns="http://www.w3.org/2000/svg">
<path fill-rule="evenodd" clip-rule="evenodd" d="M13.8364 2.3296C14.0139 2.41872 14.1487 2.57457 14.2114 2.76296C14.2741 2.95136 14.2596 3.15693 14.1709 3.3346L9.84043 12.0001L14.1724 20.6641C14.2175 20.7522 14.2446 20.8484 14.2523 20.9471C14.2599 21.0458 14.248 21.145 14.2172 21.2391C14.1863 21.3331 14.1371 21.4201 14.0725 21.4951C14.0079 21.5701 13.929 21.6315 13.8405 21.6758C13.752 21.7202 13.6557 21.7466 13.5569 21.7535C13.4582 21.7604 13.359 21.7477 13.2652 21.7161C13.1714 21.6845 13.0848 21.6347 13.0104 21.5695C12.9359 21.5042 12.8751 21.4249 12.8314 21.3361L8.33143 12.3361C8.27917 12.2318 8.25195 12.1168 8.25195 12.0001C8.25195 11.8834 8.27917 11.7684 8.33143 11.6641L12.8314 2.6641C12.9205 2.48667 13.0764 2.35182 13.2648 2.28911C13.4532 2.22641 13.6588 2.24097 13.8364 2.3296Z" fill="black"/>
</svg>
