<svg width="24" height="24" viewBox="0 0 24 24" fill="none" xmlns="http://www.w3.org/2000/svg">
<g clip-path="url(#clip0_4019_1972)">
<path d="M9.1703 11.29L13.4103 7.05001C13.5033 6.95628 13.6139 6.88189 13.7357 6.83112C13.8576 6.78035 13.9883 6.75421 14.1203 6.75421C14.2523 6.75421 14.383 6.78035 14.5049 6.83112C14.6267 6.88189 14.7373 6.95628 14.8303 7.05001C15.0166 7.23737 15.1211 7.49082 15.1211 7.75501C15.1211 8.0192 15.0166 8.27265 14.8303 8.46001L11.2903 12L14.8303 15.54C15.0166 15.7274 15.1211 15.9808 15.1211 16.245C15.1211 16.5092 15.0166 16.7626 14.8303 16.95C14.7369 17.0427 14.626 17.116 14.5042 17.1658C14.3824 17.2155 14.2519 17.2408 14.1203 17.24C13.9887 17.2408 13.8582 17.2155 13.7364 17.1658C13.6146 17.116 13.5037 17.0427 13.4103 16.95L9.1703 12.71C9.07657 12.617 9.00218 12.5064 8.95141 12.3846C8.90064 12.2627 8.8745 12.132 8.8745 12C8.8745 11.868 8.90064 11.7373 8.95141 11.6154C9.00218 11.4936 9.07657 11.383 9.1703 11.29Z" fill="black"/>
</g>
<defs>
<clipPath id="clip0_4019_1972">
<rect width="24" height="24" fill="white"/>
</clipPath>
</defs>
</svg>
