<svg width="24" height="24" viewBox="0 0 24 24" fill="none" xmlns="http://www.w3.org/2000/svg">
<path fill-rule="evenodd" clip-rule="evenodd" d="M12.5314 2.46888C12.6012 2.53854 12.6566 2.62131 12.6944 2.71243C12.7322 2.80354 12.7517 2.90122 12.7517 2.99988C12.7517 3.09853 12.7322 3.19621 12.6944 3.28733C12.6566 3.37844 12.6012 3.46121 12.5314 3.53088L4.06086 11.9999L12.5314 20.4689C12.6722 20.6097 12.7513 20.8007 12.7513 20.9999C12.7513 21.199 12.6722 21.39 12.5314 21.5309C12.3905 21.6717 12.1995 21.7508 12.0004 21.7508C11.8012 21.7508 11.6102 21.6717 11.4694 21.5309L2.46936 12.5309C2.39952 12.4612 2.34411 12.3784 2.3063 12.2873C2.26849 12.1962 2.24902 12.0985 2.24902 11.9999C2.24902 11.9012 2.26849 11.8035 2.3063 11.7124C2.34411 11.6213 2.39952 11.5385 2.46936 11.4689L11.4694 2.46888C11.539 2.39903 11.6218 2.34362 11.7129 2.30581C11.804 2.268 11.9017 2.24854 12.0004 2.24854C12.099 2.24854 12.1967 2.268 12.2878 2.30581C12.3789 2.34362 12.4617 2.39903 12.5314 2.46888Z" fill="black"/>
<path fill-rule="evenodd" clip-rule="evenodd" d="M18.5314 2.46888C18.6012 2.53854 18.6566 2.62131 18.6944 2.71243C18.7322 2.80354 18.7517 2.90122 18.7517 2.99988C18.7517 3.09853 18.7322 3.19621 18.6944 3.28733C18.6566 3.37844 18.6012 3.46121 18.5314 3.53088L10.0609 11.9999L18.5314 20.4689C18.6011 20.5386 18.6564 20.6214 18.6942 20.7125C18.7319 20.8036 18.7513 20.9013 18.7513 20.9999C18.7513 21.0985 18.7319 21.1961 18.6942 21.2873C18.6564 21.3784 18.6011 21.4611 18.5314 21.5309C18.4616 21.6006 18.3788 21.6559 18.2877 21.6937C18.1966 21.7314 18.099 21.7508 18.0004 21.7508C17.9017 21.7508 17.8041 21.7314 17.713 21.6937C17.6219 21.6559 17.5391 21.6006 17.4694 21.5309L8.46936 12.5309C8.39952 12.4612 8.3441 12.3784 8.30629 12.2873C8.26849 12.1962 8.24902 12.0985 8.24902 11.9999C8.24902 11.9012 8.26849 11.8035 8.30629 11.7124C8.3441 11.6213 8.39952 11.5385 8.46936 11.4689L17.4694 2.46888C17.539 2.39903 17.6218 2.34362 17.7129 2.30581C17.804 2.268 17.9017 2.24854 18.0004 2.24854C18.099 2.24854 18.1967 2.268 18.2878 2.30581C18.3789 2.34362 18.4617 2.39903 18.5314 2.46888Z" fill="black"/>
</svg>
