<svg width="24" height="24" viewBox="0 0 24 24" fill="none" xmlns="http://www.w3.org/2000/svg">
<path fill-rule="evenodd" clip-rule="evenodd" d="M11.468 6.96888C11.5377 6.89903 11.6204 6.84362 11.7115 6.80581C11.8027 6.768 11.9003 6.74854 11.999 6.74854C12.0976 6.74854 12.1953 6.768 12.2864 6.80581C12.3776 6.84362 12.4603 6.89903 12.53 6.96888L21.53 15.9689C21.6708 16.1097 21.7499 16.3007 21.7499 16.4999C21.7499 16.699 21.6708 16.89 21.53 17.0309C21.3892 17.1717 21.1982 17.2508 20.999 17.2508C20.7998 17.2508 20.6088 17.1717 20.468 17.0309L11.999 8.56038L3.52999 17.0309C3.38916 17.1717 3.19816 17.2508 2.99899 17.2508C2.79983 17.2508 2.60882 17.1717 2.46799 17.0309C2.32716 16.89 2.24805 16.699 2.24805 16.4999C2.24805 16.3007 2.32716 16.1097 2.46799 15.9689L11.468 6.96888V6.96888Z" fill="#27214D"/>
</svg>
