<svg width="24" height="24" viewBox="0 0 24 24" fill="none" xmlns="http://www.w3.org/2000/svg">
<path fill-rule="evenodd" clip-rule="evenodd" d="M5.46936 20.7809C5.53903 20.8507 5.6218 20.9061 5.71291 20.9439C5.80403 20.9818 5.90171 21.0012 6.00036 21.0012C6.09902 21.0012 6.1967 20.9818 6.28781 20.9439C6.37893 20.9061 6.4617 20.8507 6.53136 20.7809L12.0004 15.3104L17.4694 20.7809C17.6102 20.9217 17.8012 21.0008 18.0004 21.0008C18.1995 21.0008 18.3905 20.9217 18.5314 20.7809C18.6722 20.64 18.7513 20.449 18.7513 20.2499C18.7513 20.0507 18.6722 19.8597 18.5314 19.7189L12.5314 13.7189C12.4617 13.649 12.3789 13.5936 12.2878 13.5558C12.1967 13.518 12.099 13.4985 12.0004 13.4985C11.9017 13.4985 11.804 13.518 11.7129 13.5558C11.6218 13.5936 11.539 13.649 11.4694 13.7189L5.46936 19.7189C5.39952 19.7885 5.34411 19.8713 5.3063 19.9624C5.26849 20.0535 5.24902 20.1512 5.24902 20.2499C5.24902 20.3485 5.26849 20.4462 5.3063 20.5373C5.34411 20.6284 5.39952 20.7112 5.46936 20.7809ZM5.46936 3.21888C5.53903 3.14903 5.6218 3.09362 5.71291 3.05581C5.80403 3.018 5.90171 2.99854 6.00036 2.99854C6.09902 2.99854 6.1967 3.018 6.28781 3.05581C6.37893 3.09362 6.4617 3.14903 6.53136 3.21888L12.0004 8.68938L17.4694 3.21888C17.6102 3.07805 17.8012 2.99893 18.0004 2.99893C18.1995 2.99893 18.3905 3.07805 18.5314 3.21888C18.6722 3.35971 18.7513 3.55071 18.7513 3.74988C18.7513 3.94904 18.6722 4.14005 18.5314 4.28088L12.5314 10.2809C12.4617 10.3507 12.3789 10.4061 12.2878 10.4439C12.1967 10.4818 12.099 10.5012 12.0004 10.5012C11.9017 10.5012 11.804 10.4818 11.7129 10.4439C11.6218 10.4061 11.539 10.3507 11.4694 10.2809L5.46936 4.28088C5.39952 4.21121 5.34411 4.12844 5.3063 4.03733C5.26849 3.94621 5.24902 3.84853 5.24902 3.74988C5.24902 3.65123 5.26849 3.55354 5.3063 3.46243C5.34411 3.37131 5.39952 3.28854 5.46936 3.21888Z" fill="black"/>
</svg>
