<svg width="24" height="24" viewBox="0 0 24 24" fill="none" xmlns="http://www.w3.org/2000/svg">
<path fill-rule="evenodd" clip-rule="evenodd" d="M2.46936 9.96888C2.53903 9.89903 2.6218 9.84362 2.71291 9.80581C2.80403 9.768 2.90171 9.74854 3.00036 9.74854C3.09902 9.74854 3.1967 9.768 3.28781 9.80581C3.37893 9.84362 3.4617 9.89903 3.53136 9.96888L12.0004 18.4394L20.4694 9.96888C20.6102 9.82805 20.8012 9.74893 21.0004 9.74893C21.1995 9.74893 21.3905 9.82805 21.5314 9.96888C21.6722 10.1097 21.7513 10.3007 21.7513 10.4999C21.7513 10.699 21.6722 10.89 21.5314 11.0309L12.5314 20.0309C12.4617 20.1007 12.3789 20.1561 12.2878 20.1939C12.1967 20.2318 12.099 20.2512 12.0004 20.2512C11.9017 20.2512 11.804 20.2318 11.7129 20.1939C11.6218 20.1561 11.539 20.1007 11.4694 20.0309L2.46936 11.0309C2.39952 10.9612 2.34411 10.8784 2.3063 10.7873C2.26849 10.6962 2.24902 10.5985 2.24902 10.4999C2.24902 10.4012 2.26849 10.3035 2.3063 10.2124C2.34411 10.1213 2.39952 10.0385 2.46936 9.96888Z" fill="black"/>
<path fill-rule="evenodd" clip-rule="evenodd" d="M2.46936 3.96888C2.53903 3.89903 2.6218 3.84362 2.71291 3.80581C2.80403 3.768 2.90171 3.74854 3.00036 3.74854C3.09902 3.74854 3.1967 3.768 3.28781 3.80581C3.37893 3.84362 3.4617 3.89903 3.53136 3.96888L12.0004 12.4394L20.4694 3.96888C20.5391 3.89914 20.6219 3.84383 20.713 3.80609C20.8041 3.76835 20.9017 3.74893 21.0004 3.74893C21.099 3.74893 21.1966 3.76835 21.2877 3.80609C21.3788 3.84383 21.4616 3.89914 21.5314 3.96888C21.6011 4.03861 21.6564 4.12139 21.6941 4.2125C21.7319 4.30361 21.7513 4.40126 21.7513 4.49988C21.7513 4.59849 21.7319 4.69614 21.6941 4.78725C21.6564 4.87836 21.6011 4.96114 21.5314 5.03088L12.5314 14.0309C12.4617 14.1007 12.3789 14.1561 12.2878 14.1939C12.1967 14.2318 12.099 14.2512 12.0004 14.2512C11.9017 14.2512 11.804 14.2318 11.7129 14.1939C11.6218 14.1561 11.539 14.1007 11.4694 14.0309L2.46936 5.03088C2.39952 4.96121 2.34411 4.87844 2.3063 4.78733C2.26849 4.69621 2.24902 4.59853 2.24902 4.49988C2.24902 4.40122 2.26849 4.30354 2.3063 4.21243C2.34411 4.12131 2.39952 4.03854 2.46936 3.96888Z" fill="black"/>
</svg>
