<svg width="24" height="24" viewBox="0 0 24 24" fill="none" xmlns="http://www.w3.org/2000/svg">
<path fill-rule="evenodd" clip-rule="evenodd" d="M5.46936 2.46888C5.53903 2.39903 5.6218 2.34362 5.71291 2.30581C5.80403 2.268 5.90171 2.24854 6.00036 2.24854C6.09902 2.24854 6.1967 2.268 6.28781 2.30581C6.37893 2.34362 6.4617 2.39903 6.53136 2.46888L15.5314 11.4689C15.6012 11.5385 15.6566 11.6213 15.6944 11.7124C15.7322 11.8035 15.7517 11.9012 15.7517 11.9999C15.7517 12.0985 15.7322 12.1962 15.6944 12.2873C15.6566 12.3784 15.6012 12.4612 15.5314 12.5309L6.53136 21.5309C6.39053 21.6717 6.19953 21.7508 6.00036 21.7508C5.8012 21.7508 5.61019 21.6717 5.46936 21.5309C5.32853 21.39 5.24942 21.199 5.24942 20.9999C5.24942 20.8007 5.32853 20.6097 5.46936 20.4689L13.9399 11.9999L5.46936 3.53088C5.39952 3.46121 5.34411 3.37844 5.3063 3.28733C5.26849 3.19621 5.24902 3.09853 5.24902 2.99988C5.24902 2.90122 5.26849 2.80354 5.3063 2.71243C5.34411 2.62131 5.39952 2.53854 5.46936 2.46888Z" fill="black"/>
<path fill-rule="evenodd" clip-rule="evenodd" d="M11.4694 2.46888C11.539 2.39903 11.6218 2.34362 11.7129 2.30581C11.804 2.268 11.9017 2.24854 12.0004 2.24854C12.099 2.24854 12.1967 2.268 12.2878 2.30581C12.3789 2.34362 12.4617 2.39903 12.5314 2.46888L21.5314 11.4689C21.6012 11.5385 21.6566 11.6213 21.6944 11.7124C21.7322 11.8035 21.7517 11.9012 21.7517 11.9999C21.7517 12.0985 21.7322 12.1962 21.6944 12.2873C21.6566 12.3784 21.6012 12.4612 21.5314 12.5309L12.5314 21.5309C12.3905 21.6717 12.1995 21.7508 12.0004 21.7508C11.8012 21.7508 11.6102 21.6717 11.4694 21.5309C11.3285 21.39 11.2494 21.199 11.2494 20.9999C11.2494 20.8007 11.3285 20.6097 11.4694 20.4689L19.9399 11.9999L11.4694 3.53088C11.3995 3.46121 11.3441 3.37844 11.3063 3.28733C11.2685 3.19621 11.249 3.09853 11.249 2.99988C11.249 2.90122 11.2685 2.80354 11.3063 2.71243C11.3441 2.62131 11.3995 2.53854 11.4694 2.46888Z" fill="black"/>
</svg>
