<svg width="24" height="24" viewBox="0 0 24 24" fill="none" xmlns="http://www.w3.org/2000/svg">
<path fill-rule="evenodd" clip-rule="evenodd" d="M5.46936 13.7189C5.53903 13.649 5.6218 13.5936 5.71291 13.5558C5.80403 13.518 5.90171 13.4985 6.00036 13.4985C6.09902 13.4985 6.1967 13.518 6.28781 13.5558C6.37893 13.5936 6.4617 13.649 6.53136 13.7189L12.0004 19.1894L17.4694 13.7189C17.6102 13.578 17.8012 13.4989 18.0004 13.4989C18.1995 13.4989 18.3905 13.578 18.5314 13.7189C18.6722 13.8597 18.7513 14.0507 18.7513 14.2499C18.7513 14.449 18.6722 14.64 18.5314 14.7809L12.5314 20.7809C12.4617 20.8507 12.3789 20.9061 12.2878 20.9439C12.1967 20.9818 12.099 21.0012 12.0004 21.0012C11.9017 21.0012 11.804 20.9818 11.7129 20.9439C11.6218 20.9061 11.539 20.8507 11.4694 20.7809L5.46936 14.7809C5.39952 14.7112 5.34411 14.6284 5.3063 14.5373C5.26849 14.4462 5.24902 14.3485 5.24902 14.2499C5.24902 14.1512 5.26849 14.0535 5.3063 13.9624C5.34411 13.8713 5.39952 13.7885 5.46936 13.7189ZM5.46936 10.2809C5.53903 10.3507 5.6218 10.4061 5.71291 10.4439C5.80403 10.4818 5.90171 10.5012 6.00036 10.5012C6.09902 10.5012 6.1967 10.4818 6.28781 10.4439C6.37893 10.4061 6.4617 10.3507 6.53136 10.2809L12.0004 4.81038L17.4694 10.2809C17.6102 10.4217 17.8012 10.5008 18.0004 10.5008C18.1995 10.5008 18.3905 10.4217 18.5314 10.2809C18.6722 10.14 18.7513 9.94904 18.7513 9.74988C18.7513 9.55071 18.6722 9.35971 18.5314 9.21888L12.5314 3.21888C12.4617 3.14903 12.3789 3.09362 12.2878 3.05581C12.1967 3.018 12.099 2.99854 12.0004 2.99854C11.9017 2.99854 11.804 3.018 11.7129 3.05581C11.6218 3.09362 11.539 3.14903 11.4694 3.21888L5.46936 9.21888C5.39952 9.28854 5.34411 9.37131 5.3063 9.46243C5.26849 9.55354 5.24902 9.65123 5.24902 9.74988C5.24902 9.84853 5.26849 9.94621 5.3063 10.0373C5.34411 10.1284 5.39952 10.2112 5.46936 10.2809Z" fill="black"/>
</svg>
