<svg width="24" height="24" viewBox="0 0 24 24" fill="none" xmlns="http://www.w3.org/2000/svg">
<path fill-rule="evenodd" clip-rule="evenodd" d="M7.28136 6.2189C7.35121 6.28857 7.40662 6.37134 7.44443 6.46245C7.48224 6.55357 7.5017 6.65125 7.5017 6.7499C7.5017 6.84856 7.48224 6.94624 7.44443 7.03735C7.40662 7.12847 7.35121 7.21124 7.28136 7.2809L2.56086 11.9999L7.28136 16.7189C7.42219 16.8597 7.50131 17.0507 7.50131 17.2499C7.50131 17.4491 7.42219 17.6401 7.28136 17.7809C7.14053 17.9217 6.94953 18.0009 6.75036 18.0009C6.5512 18.0009 6.36019 17.9217 6.21936 17.7809L0.969364 12.5309C0.899519 12.4612 0.844105 12.3785 0.806295 12.2874C0.768486 12.1962 0.749023 12.0986 0.749023 11.9999C0.749023 11.9013 0.768486 11.8036 0.806295 11.7125C0.844105 11.6213 0.899519 11.5386 0.969364 11.4689L6.21936 6.2189C6.28903 6.14906 6.3718 6.09364 6.46291 6.05583C6.55403 6.01803 6.65171 5.99856 6.75036 5.99856C6.84902 5.99856 6.9467 6.01803 7.03782 6.05583C7.12893 6.09364 7.2117 6.14906 7.28136 6.2189ZM16.7194 6.2189C16.6495 6.28857 16.5941 6.37134 16.5563 6.46245C16.5185 6.55357 16.499 6.65125 16.499 6.7499C16.499 6.84856 16.5185 6.94624 16.5563 7.03735C16.5941 7.12847 16.6495 7.21124 16.7194 7.2809L21.4399 11.9999L16.7194 16.7189C16.6496 16.7886 16.5943 16.8714 16.5566 16.9625C16.5188 17.0536 16.4994 17.1513 16.4994 17.2499C16.4994 17.3485 16.5188 17.4462 16.5566 17.5373C16.5943 17.6284 16.6496 17.7112 16.7194 17.7809C16.7891 17.8506 16.8719 17.906 16.963 17.9437C17.0541 17.9814 17.1517 18.0009 17.2504 18.0009C17.349 18.0009 17.4466 17.9814 17.5377 17.9437C17.6288 17.906 17.7116 17.8506 17.7814 17.7809L23.0314 12.5309C23.1012 12.4612 23.1566 12.3785 23.1944 12.2874C23.2322 12.1962 23.2517 12.0986 23.2517 11.9999C23.2517 11.9013 23.2322 11.8036 23.1944 11.7125C23.1566 11.6213 23.1012 11.5386 23.0314 11.4689L17.7814 6.2189C17.7117 6.14906 17.6289 6.09364 17.5378 6.05583C17.4467 6.01803 17.349 5.99856 17.2504 5.99856C17.1517 5.99856 17.054 6.01803 16.9629 6.05583C16.8718 6.09364 16.789 6.14906 16.7194 6.2189ZM15.2209 1.5329C15.4108 1.59166 15.5696 1.72342 15.6624 1.89921C15.7552 2.07499 15.7744 2.28044 15.7159 2.4704L9.71587 21.9704C9.65162 22.1533 9.51907 22.3041 9.34602 22.3914C9.17296 22.4787 8.97284 22.4956 8.7876 22.4386C8.60236 22.3816 8.44639 22.255 8.35239 22.0855C8.25839 21.916 8.23365 21.7167 8.28336 21.5294L14.2834 2.0294C14.3421 1.8395 14.4739 1.68069 14.6497 1.58787C14.8255 1.49506 15.0309 1.47582 15.2209 1.5344V1.5329Z" fill="black"/>
</svg>
