<svg width="24" height="24" viewBox="0 0 24 24" fill="none" xmlns="http://www.w3.org/2000/svg">
<path fill-rule="evenodd" clip-rule="evenodd" d="M8.78136 6.21888C8.85121 6.28854 8.90662 6.37131 8.94443 6.46243C8.98224 6.55354 9.0017 6.65122 9.0017 6.74988C9.0017 6.84853 8.98224 6.94621 8.94443 7.03733C8.90662 7.12844 8.85121 7.21121 8.78136 7.28088L4.06086 11.9999L8.78136 16.7189C8.8511 16.7886 8.90641 16.8714 8.94415 16.9625C8.98189 17.0536 9.00131 17.1513 9.00131 17.2499C9.00131 17.3485 8.98189 17.4461 8.94415 17.5373C8.90641 17.6284 8.8511 17.7111 8.78136 17.7809C8.71163 17.8506 8.62885 17.9059 8.53774 17.9437C8.44663 17.9814 8.34898 18.0008 8.25036 18.0008C8.15175 18.0008 8.0541 17.9814 7.96299 17.9437C7.87188 17.9059 7.7891 17.8506 7.71936 17.7809L2.46936 12.5309C2.39952 12.4612 2.34411 12.3784 2.3063 12.2873C2.26849 12.1962 2.24902 12.0985 2.24902 11.9999C2.24902 11.9012 2.26849 11.8035 2.3063 11.7124C2.34411 11.6213 2.39952 11.5385 2.46936 11.4689L7.71936 6.21888C7.78903 6.14903 7.8718 6.09362 7.96291 6.05581C8.05403 6.018 8.15171 5.99854 8.25036 5.99854C8.34902 5.99854 8.4467 6.018 8.53782 6.05581C8.62893 6.09362 8.7117 6.14903 8.78136 6.21888ZM15.2194 6.21888C15.1495 6.28854 15.0941 6.37131 15.0563 6.46243C15.0185 6.55354 14.999 6.65122 14.999 6.74988C14.999 6.84853 15.0185 6.94621 15.0563 7.03733C15.0941 7.12844 15.1495 7.21121 15.2194 7.28088L19.9399 11.9999L15.2194 16.7189C15.0785 16.8597 14.9994 17.0507 14.9994 17.2499C14.9994 17.449 15.0785 17.64 15.2194 17.7809C15.3602 17.9217 15.5512 18.0008 15.7504 18.0008C15.9495 18.0008 16.1405 17.9217 16.2814 17.7809L21.5314 12.5309C21.6012 12.4612 21.6566 12.3784 21.6944 12.2873C21.7322 12.1962 21.7517 12.0985 21.7517 11.9999C21.7517 11.9012 21.7322 11.8035 21.6944 11.7124C21.6566 11.6213 21.6012 11.5385 21.5314 11.4689L16.2814 6.21888C16.2117 6.14903 16.1289 6.09362 16.0378 6.05581C15.9467 6.018 15.849 5.99854 15.7504 5.99854C15.6517 5.99854 15.554 6.018 15.4629 6.05581C15.3718 6.09362 15.289 6.14903 15.2194 6.21888Z" fill="black"/>
</svg>
