<svg width="24" height="24" viewBox="0 0 24 24" fill="none" xmlns="http://www.w3.org/2000/svg">
<g clip-path="url(#clip0_4019_2060)">
<path fill-rule="evenodd" clip-rule="evenodd" d="M21 1.5H3C2.60218 1.5 2.22064 1.65804 1.93934 1.93934C1.65804 2.22064 1.5 2.60218 1.5 3V21C1.5 21.3978 1.65804 21.7794 1.93934 22.0607C2.22064 22.342 2.60218 22.5 3 22.5H21C21.3978 22.5 21.7794 22.342 22.0607 22.0607C22.342 21.7794 22.5 21.3978 22.5 21V3C22.5 2.60218 22.342 2.22064 22.0607 1.93934C21.7794 1.65804 21.3978 1.5 21 1.5ZM3 0C2.20435 0 1.44129 0.316071 0.87868 0.87868C0.316071 1.44129 0 2.20435 0 3L0 21C0 21.7956 0.316071 22.5587 0.87868 23.1213C1.44129 23.6839 2.20435 24 3 24H21C21.7956 24 22.5587 23.6839 23.1213 23.1213C23.6839 22.5587 24 21.7956 24 21V3C24 2.20435 23.6839 1.44129 23.1213 0.87868C22.5587 0.316071 21.7956 0 21 0L3 0Z" fill="black"/>
<path fill-rule="evenodd" clip-rule="evenodd" d="M10.2814 6.96888C10.3512 7.03854 10.4066 7.12131 10.4444 7.21242C10.4822 7.30354 10.5017 7.40122 10.5017 7.49988C10.5017 7.59853 10.4822 7.69621 10.4444 7.78733C10.4066 7.87844 10.3512 7.96121 10.2814 8.03088L6.31086 11.9999L10.2814 15.9689C10.4222 16.1097 10.5013 16.3007 10.5013 16.4999C10.5013 16.699 10.4222 16.89 10.2814 17.0309C10.1405 17.1717 9.94953 17.2508 9.75036 17.2508C9.5512 17.2508 9.36019 17.1717 9.21936 17.0309L4.71936 12.5309C4.64952 12.4612 4.59411 12.3784 4.5563 12.2873C4.51849 12.1962 4.49902 12.0985 4.49902 11.9999C4.49902 11.9012 4.51849 11.8035 4.5563 11.7124C4.59411 11.6213 4.64952 11.5385 4.71936 11.4689L9.21936 6.96888C9.28903 6.89903 9.3718 6.84362 9.46291 6.80581C9.55403 6.768 9.65171 6.74854 9.75036 6.74854C9.84902 6.74854 9.9467 6.768 10.0378 6.80581C10.1289 6.84362 10.2117 6.89903 10.2814 6.96888ZM13.7194 6.96888C13.6495 7.03854 13.5941 7.12131 13.5563 7.21242C13.5185 7.30354 13.499 7.40122 13.499 7.49988C13.499 7.59853 13.5185 7.69621 13.5563 7.78733C13.5941 7.87844 13.6495 7.96121 13.7194 8.03088L17.6899 11.9999L13.7194 15.9689C13.5785 16.1097 13.4994 16.3007 13.4994 16.4999C13.4994 16.699 13.5785 16.89 13.7194 17.0309C13.8602 17.1717 14.0512 17.2508 14.2504 17.2508C14.4495 17.2508 14.6405 17.1717 14.7814 17.0309L19.2814 12.5309C19.3512 12.4612 19.4066 12.3784 19.4444 12.2873C19.4822 12.1962 19.5017 12.0985 19.5017 11.9999C19.5017 11.9012 19.4822 11.8035 19.4444 11.7124C19.4066 11.6213 19.3512 11.5385 19.2814 11.4689L14.7814 6.96888C14.7117 6.89903 14.6289 6.84362 14.5378 6.80581C14.4467 6.768 14.349 6.74854 14.2504 6.74854C14.1517 6.74854 14.054 6.768 13.9629 6.80581C13.8718 6.84362 13.789 6.89903 13.7194 6.96888Z" fill="black"/>
</g>
<defs>
<clipPath id="clip0_4019_2060">
<rect width="24" height="24" fill="white"/>
</clipPath>
</defs>
</svg>
