<svg width="24" height="24" viewBox="0 0 24 24" fill="none" xmlns="http://www.w3.org/2000/svg">
<path d="M14.9553 7.32009L16.3848 13.0366C15.2388 13.3171 13.7103 13.5001 12.0003 13.5001C10.2903 13.5001 8.76327 13.3171 7.61577 13.0366L9.04527 7.32009C9.95277 7.43559 10.9503 7.50009 12.0003 7.50009C13.0503 7.50009 14.0478 7.43559 14.9553 7.32009ZM14.5878 5.85309L13.4553 1.32009C13.0773 -0.194912 10.9233 -0.194912 10.5453 1.32009L9.41277 5.85009C10.2003 5.94759 11.0733 6.00009 12.0003 6.00009C12.9273 6.00009 13.8003 5.94609 14.5878 5.85309ZM21.1818 18.7726C21.3396 18.8117 21.4805 18.901 21.5831 19.0271C21.6858 19.1532 21.7447 19.3092 21.751 19.4717C21.7572 19.6342 21.7105 19.7943 21.6179 19.9279C21.5252 20.0616 21.3916 20.1615 21.2373 20.2126L12.2373 23.2126C12.0834 23.2638 11.9171 23.2638 11.7633 23.2126L2.76327 20.2126C2.60891 20.1615 2.47534 20.0616 2.38268 19.9279C2.29003 19.7943 2.24332 19.6342 2.24958 19.4717C2.25584 19.3092 2.31474 19.1532 2.4174 19.0271C2.52007 18.901 2.66093 18.8117 2.81877 18.7726L6.40527 17.8756L7.25277 14.4901C8.54577 14.8081 10.1988 14.9986 12.0003 14.9986C13.8018 14.9986 15.4548 14.8081 16.7478 14.4901L17.5953 17.8756L21.1818 18.7726Z" fill="black"/>
</svg>
