<svg width="24" height="24" viewBox="0 0 24 24" fill="none" xmlns="http://www.w3.org/2000/svg">
<path fill-rule="evenodd" clip-rule="evenodd" d="M16.6784 4.03932C18.0344 4.32432 19.3034 4.78182 20.0309 5.50932C20.6414 6.12132 21.1994 7.08432 21.6719 8.16732C22.1519 9.26682 22.5704 10.5538 22.8794 11.8663C23.1884 13.1788 23.3894 14.5363 23.4254 15.7753C23.4614 16.9978 23.3369 18.1783 22.9334 19.0903C22.7494 19.4998 22.4407 19.8406 22.0515 20.0642C21.6622 20.2878 21.2123 20.3827 20.7659 20.3353C19.8119 20.2348 19.0934 19.7443 18.4964 19.1758C18.1075 18.7895 17.7376 18.3845 17.3879 17.9623C17.1989 17.7418 17.0129 17.5258 16.8359 17.3293C15.7439 16.1233 14.4404 15.0388 11.9999 15.0388C9.5594 15.0388 8.2559 16.1233 7.1639 17.3293C6.9854 17.5258 6.8009 17.7418 6.6119 17.9623C6.2474 18.3868 5.8709 18.8263 5.5034 19.1773C4.9064 19.7443 4.1879 20.2348 3.2339 20.3353C2.78751 20.3827 2.33757 20.2878 1.94832 20.0642C1.55907 19.8406 1.2504 19.4998 1.0664 19.0903C0.661397 18.1783 0.538397 16.9978 0.572897 15.7753C0.608897 14.5363 0.812897 13.1803 1.1204 11.8663C1.4294 10.5538 1.8494 9.26682 2.3279 8.16732C2.8004 7.08432 3.3584 6.12132 3.9689 5.50932C4.6979 4.78182 5.9654 4.32432 7.3214 4.03932C8.7194 3.74532 10.3664 3.60132 11.9999 3.60132C13.6334 3.60132 15.2804 3.74532 16.6784 4.03932ZM7.6304 5.50782C6.3149 5.78532 5.4269 6.17232 5.0309 6.56982C4.6169 6.98382 4.1504 7.74432 3.7034 8.76732C3.22919 9.8797 2.85374 11.0316 2.5814 12.2098C2.29369 13.3932 2.12337 14.602 2.0729 15.8188C2.0399 16.9513 2.1659 17.8708 2.4374 18.4828C2.493 18.602 2.58451 18.7008 2.69911 18.7654C2.81371 18.83 2.94564 18.857 3.0764 18.8428C3.5669 18.7918 3.9914 18.5443 4.4699 18.0898C4.7879 17.7868 5.0699 17.4553 5.3924 17.0788C5.5919 16.8448 5.8064 16.5943 6.0524 16.3213C7.2914 14.9548 8.9669 13.5388 11.9999 13.5388C15.0329 13.5388 16.7084 14.9533 17.9474 16.3213C18.1934 16.5943 18.4079 16.8463 18.6074 17.0788C18.9284 17.4538 19.2119 17.7868 19.5299 18.0898C20.0069 18.5443 20.4314 18.7918 20.9234 18.8443C21.0543 18.8584 21.1864 18.8311 21.301 18.7663C21.4156 18.7014 21.507 18.6023 21.5624 18.4828C21.8324 17.8708 21.9599 16.9528 21.9269 15.8188C21.8764 14.602 21.7061 13.3932 21.4184 12.2098C21.146 11.0317 20.7706 9.87972 20.2964 8.76732C19.8494 7.74432 19.3814 6.98232 18.9689 6.56982C18.5729 6.17232 17.6849 5.78532 16.3694 5.50782C15.0944 5.23932 13.5539 5.10282 11.9999 5.10282C10.4459 5.10282 8.9054 5.23932 7.6304 5.50782Z" fill="black"/>
<path d="M17.25 9.03882C17.25 9.23773 17.171 9.4285 17.0303 9.56915C16.8897 9.7098 16.6989 9.78882 16.5 9.78882C16.3011 9.78882 16.1103 9.7098 15.9697 9.56915C15.829 9.4285 15.75 9.23773 15.75 9.03882C15.75 8.83991 15.829 8.64914 15.9697 8.50849C16.1103 8.36784 16.3011 8.28882 16.5 8.28882C16.6989 8.28882 16.8897 8.36784 17.0303 8.50849C17.171 8.64914 17.25 8.83991 17.25 9.03882ZM15.75 10.5388C15.75 10.7377 15.671 10.9285 15.5303 11.0691C15.3897 11.2098 15.1989 11.2888 15 11.2888C14.8011 11.2888 14.6103 11.2098 14.4697 11.0691C14.329 10.9285 14.25 10.7377 14.25 10.5388C14.25 10.3399 14.329 10.1491 14.4697 10.0085C14.6103 9.86784 14.8011 9.78882 15 9.78882C15.1989 9.78882 15.3897 9.86784 15.5303 10.0085C15.671 10.1491 15.75 10.3399 15.75 10.5388ZM18.75 10.5388C18.75 10.7377 18.671 10.9285 18.5303 11.0691C18.3897 11.2098 18.1989 11.2888 18 11.2888C17.8011 11.2888 17.6103 11.2098 17.4697 11.0691C17.329 10.9285 17.25 10.7377 17.25 10.5388C17.25 10.3399 17.329 10.1491 17.4697 10.0085C17.6103 9.86784 17.8011 9.78882 18 9.78882C18.1989 9.78882 18.3897 9.86784 18.5303 10.0085C18.671 10.1491 18.75 10.3399 18.75 10.5388ZM17.25 12.0388C17.25 12.2377 17.171 12.4285 17.0303 12.5691C16.8897 12.7098 16.6989 12.7888 16.5 12.7888C16.3011 12.7888 16.1103 12.7098 15.9697 12.5691C15.829 12.4285 15.75 12.2377 15.75 12.0388C15.75 11.8399 15.829 11.6491 15.9697 11.5085C16.1103 11.3678 16.3011 11.2888 16.5 11.2888C16.6989 11.2888 16.8897 11.3678 17.0303 11.5085C17.171 11.6491 17.25 11.8399 17.25 12.0388ZM6.75 8.28882H8.25V12.7888H6.75V8.28882Z" fill="black"/>
<path d="M5.25003 9.78918H9.75003V11.2892H5.25003V9.78918ZM4.57653 4.89018C4.55091 4.79494 4.54432 4.69558 4.55715 4.59779C4.56999 4.5 4.60198 4.4057 4.6513 4.32029C4.70062 4.23488 4.76631 4.16004 4.84459 4.10005C4.92288 4.04006 5.01223 3.9961 5.10753 3.97068L8.00553 3.19368C8.19643 3.1461 8.39838 3.17544 8.56785 3.27537C8.73732 3.3753 8.86074 3.53782 8.9115 3.72789C8.96227 3.91797 8.93632 4.12038 8.83924 4.2915C8.74216 4.46262 8.58173 4.58874 8.39253 4.64268L5.49453 5.41968C5.30238 5.47097 5.09773 5.44385 4.92558 5.34427C4.75343 5.24469 4.62787 5.08082 4.57653 4.88868V4.89018ZM19.5405 4.89018C19.5662 4.79504 19.5728 4.69577 19.5601 4.59806C19.5474 4.50035 19.5155 4.4061 19.4663 4.32071C19.4171 4.23532 19.3516 4.16045 19.2735 4.10039C19.1954 4.04033 19.1062 3.99626 19.011 3.97068L16.113 3.19368C15.9209 3.14216 15.7161 3.16909 15.5438 3.26853C15.3715 3.36797 15.2458 3.53178 15.1943 3.72393C15.1428 3.91608 15.1697 4.12083 15.2691 4.29313C15.3686 4.46542 15.5324 4.59116 15.7245 4.64268L18.6225 5.41968C18.8147 5.47097 19.0193 5.44385 19.1915 5.34427C19.3636 5.24469 19.4892 5.08082 19.5405 4.88868V4.89018Z" fill="black"/>
</svg>
