<svg width="24" height="24" viewBox="0 0 24 24" fill="none" xmlns="http://www.w3.org/2000/svg">
<g clip-path="url(#clip0_4019_2117)">
<path fill-rule="evenodd" clip-rule="evenodd" d="M4.66699 0.666626C4.8438 0.666626 5.01337 0.736864 5.1384 0.861888C5.26342 0.986912 5.33366 1.15648 5.33366 1.33329V18.6666H22.667C22.8438 18.6666 23.0134 18.7369 23.1384 18.8619C23.2634 18.9869 23.3337 19.1565 23.3337 19.3333C23.3337 19.5101 23.2634 19.6797 23.1384 19.8047C23.0134 19.9297 22.8438 20 22.667 20H20.0003V22.6666C20.0003 22.8434 19.9301 23.013 19.8051 23.138C19.68 23.2631 19.5105 23.3333 19.3337 23.3333C19.1568 23.3333 18.9873 23.2631 18.8623 23.138C18.7372 23.013 18.667 22.8434 18.667 22.6666V20H4.66699C4.49018 20 4.32061 19.9297 4.19559 19.8047C4.07056 19.6797 4.00033 19.5101 4.00033 19.3333V5.33329H1.33366C1.15685 5.33329 0.987279 5.26305 0.862254 5.13803C0.73723 5.01301 0.666992 4.84344 0.666992 4.66663C0.666992 4.48981 0.73723 4.32025 0.862254 4.19522C0.987279 4.0702 1.15685 3.99996 1.33366 3.99996H4.00033V1.33329C4.00033 1.15648 4.07056 0.986912 4.19559 0.861888C4.32061 0.736864 4.49018 0.666626 4.66699 0.666626ZM8.00033 4.66663C8.00033 4.48981 8.07056 4.32025 8.19559 4.19522C8.32061 4.0702 8.49018 3.99996 8.66699 3.99996H19.3337C19.5105 3.99996 19.68 4.0702 19.8051 4.19522C19.9301 4.32025 20.0003 4.48981 20.0003 4.66663V15.3333C20.0003 15.5101 19.9301 15.6797 19.8051 15.8047C19.68 15.9297 19.5105 16 19.3337 16C19.1568 16 18.9873 15.9297 18.8623 15.8047C18.7372 15.6797 18.667 15.5101 18.667 15.3333V5.33329H8.66699C8.49018 5.33329 8.32061 5.26305 8.19559 5.13803C8.07056 5.01301 8.00033 4.84344 8.00033 4.66663Z" fill="black"/>
</g>
<defs>
<clipPath id="clip0_4019_2117">
<rect width="24" height="24" fill="white"/>
</clipPath>
</defs>
</svg>
