<svg width="24" height="24" viewBox="0 0 24 24" fill="none" xmlns="http://www.w3.org/2000/svg">
<path fill-rule="evenodd" clip-rule="evenodd" d="M20.9461 1.38406C21.02 1.5578 21.0176 1.75206 20.9394 1.92415C20.8612 2.09623 20.7136 2.23203 20.5291 2.30171L17.1466 3.57512L16.4536 6.51159C17.0161 6.64712 17.5246 6.81653 17.9101 7.03112C18.2521 7.22171 18.7501 7.59018 18.7501 8.18877C18.7501 8.25371 18.7441 8.31583 18.7336 8.37512L17.3011 21.177C17.2781 21.4362 17.1961 21.6877 17.0604 21.9143C16.9248 22.1409 16.7387 22.3372 16.5151 22.4899C15.7831 22.9699 14.2741 23.7182 12.0001 23.7182C9.72605 23.7182 8.21705 22.9699 7.48505 22.4899C7.26137 22.3372 7.07534 22.1409 6.93969 21.9143C6.80404 21.6877 6.72196 21.4362 6.69905 21.177L5.26505 8.37512C5.25445 8.31352 5.24943 8.25117 5.25005 8.18877C5.25005 7.59018 5.74805 7.22171 6.09005 7.03112C6.48305 6.81371 7.00055 6.64147 7.57505 6.50595C8.73605 6.23206 10.3006 6.07112 12.0001 6.07112C13.0681 6.07112 14.0836 6.13465 14.9776 6.25042L15.7681 2.90453C15.7946 2.79265 15.8498 2.68855 15.9287 2.60123C16.0076 2.51391 16.108 2.44599 16.2211 2.40336L19.9711 0.991593C20.0625 0.957169 20.1604 0.940051 20.2589 0.941218C20.3574 0.942384 20.4547 0.961812 20.5453 0.998391C20.6358 1.03497 20.7178 1.08798 20.7866 1.1544C20.8554 1.22082 20.9095 1.29934 20.9461 1.38547V1.38406ZM14.6521 7.63536C13.7724 7.53186 12.8866 7.48094 12.0001 7.48289C10.3861 7.48289 8.95055 7.63818 7.93955 7.87536C7.60483 7.94765 7.27906 8.05269 6.96755 8.18877C7.18655 8.29183 7.51055 8.40053 7.93955 8.50218C8.95055 8.73936 10.3861 8.89465 12.0001 8.89465C12.8566 8.89465 13.6636 8.8523 14.3821 8.77465L14.6521 7.63394V7.63536ZM15.0901 10.1144C15.7684 10.0523 16.4359 9.91143 17.0776 9.69512L15.8101 21.0316C15.7906 21.201 15.7201 21.2928 15.6571 21.3337C15.1216 21.6852 13.9066 22.3078 12.0001 22.3078C10.0951 22.3078 8.88005 21.6852 8.34305 21.3337C8.28155 21.2928 8.20805 21.201 8.19005 21.0316L6.92255 9.69512C7.12805 9.76006 7.34705 9.81936 7.57505 9.873C8.73605 10.1469 10.3006 10.3078 12.0001 10.3078C13.1131 10.3078 14.1676 10.2387 15.0901 10.1144ZM6.70055 8.025C6.70055 8.025 6.70505 8.02783 6.70805 8.03347L6.70055 8.025ZM17.2996 8.025L17.2921 8.03347C17.2941 8.03031 17.2966 8.02746 17.2996 8.025ZM17.0311 8.18877C16.694 8.33648 16.3402 8.44778 15.9766 8.52053L16.1266 7.89089C16.5226 7.9883 16.8226 8.09136 17.0311 8.18877Z" fill="black"/>
</svg>
