<svg width="24" height="24" viewBox="0 0 24 24" fill="none" xmlns="http://www.w3.org/2000/svg">
<g clip-path="url(#clip0_4019_2335)">
<path d="M20.0399 16.857C22.5914 14.58 24.0014 12 24.0014 12C24.0014 12 19.5014 3.75 12.0014 3.75C10.5608 3.75496 9.13649 4.05514 7.81641 4.632L8.97141 5.7885C9.94256 5.43473 10.9678 5.25252 12.0014 5.25C15.1814 5.25 17.8199 7.002 19.7534 8.9355C20.6839 9.87104 21.5181 10.8977 22.2434 12C22.1564 12.1305 22.0604 12.2745 21.9509 12.432C21.4484 13.152 20.7059 14.112 19.7534 15.0645C19.5059 15.312 19.2479 15.5565 18.9779 15.7935L20.0399 16.857Z" fill="black"/>
<path d="M16.946 13.7642C17.2808 12.8279 17.3427 11.8159 17.1248 10.8458C16.9068 9.8757 16.4179 8.98745 15.7148 8.28439C15.0117 7.58134 14.1235 7.09238 13.1534 6.87441C12.1833 6.65644 11.1713 6.71843 10.235 7.05317L11.4695 8.28767C12.046 8.20515 12.6338 8.25803 13.1862 8.44211C13.7387 8.62619 14.2407 8.93641 14.6525 9.34818C15.0643 9.75996 15.3745 10.262 15.5586 10.8145C15.7427 11.3669 15.7955 11.9547 15.713 12.5312L16.946 13.7642ZM12.5315 15.7127L13.7645 16.9457C12.8283 17.2804 11.8163 17.3424 10.8462 17.1244C9.87607 16.9065 8.98782 16.4175 8.28476 15.7144C7.5817 15.0114 7.09274 14.1231 6.87478 13.153C6.65681 12.1829 6.7188 11.1709 7.05353 10.2347L8.28803 11.4692C8.20552 12.0456 8.2584 12.6334 8.44248 13.1859C8.62655 13.7384 8.93677 14.2404 9.34855 14.6521C9.76032 15.0639 10.2623 15.3741 10.8148 15.5582C11.3673 15.7423 11.9551 15.7952 12.5315 15.7127Z" fill="black"/>
<path d="M5.025 8.20494C4.755 8.44494 4.4955 8.68794 4.248 8.93544C3.31747 9.87098 2.48328 10.8976 1.758 11.9999L2.0505 12.4319C2.553 13.1519 3.2955 14.1119 4.248 15.0644C6.1815 16.9979 8.8215 18.7499 12 18.7499C13.074 18.7499 14.085 18.5504 15.03 18.2099L16.185 19.3679C14.8649 19.9448 13.4406 20.2449 12 20.2499C4.5 20.2499 0 11.9999 0 11.9999C0 11.9999 1.4085 9.41844 3.9615 7.14294L5.0235 8.20644L5.025 8.20494Z" fill="black"/>
<path fill-rule="evenodd" clip-rule="evenodd" d="M20.4697 21.531L2.46973 3.53099L3.53173 2.46899L21.5317 20.469L20.4697 21.531Z" fill="black"/>
</g>
<defs>
<clipPath id="clip0_4019_2335">
<rect width="24" height="24" fill="white"/>
</clipPath>
</defs>
</svg>
