<svg width="24" height="24" viewBox="0 0 24 24" fill="none" xmlns="http://www.w3.org/2000/svg">
<g clip-path="url(#clip0_4019_2343)">
<path fill-rule="evenodd" clip-rule="evenodd" d="M6 9.00016C5.20435 9.00016 4.44129 9.31623 3.87868 9.87884C3.31607 10.4414 3 11.2045 3 12.0002C3 12.7958 3.31607 13.5589 3.87868 14.1215C4.44129 14.6841 5.20435 15.0002 6 15.0002C6.79565 15.0002 7.55871 14.6841 8.12132 14.1215C8.68393 13.5589 9 12.7958 9 12.0002C9 11.2045 8.68393 10.4414 8.12132 9.87884C7.55871 9.31623 6.79565 9.00016 6 9.00016ZM9.9375 9.82066C9.48588 9.00354 8.79129 8.34712 7.94998 7.94235C7.10866 7.53758 6.16228 7.40451 5.24197 7.56158C4.32165 7.71864 3.47298 8.15807 2.81354 8.81897C2.15409 9.47986 1.71654 10.3295 1.5615 11.2502H0.75C0.551088 11.2502 0.360322 11.3292 0.21967 11.4698C0.0790176 11.6105 0 11.8012 0 12.0002C0 12.1991 0.0790176 12.3898 0.21967 12.5305C0.360322 12.6711 0.551088 12.7502 0.75 12.7502H1.5615C1.74764 13.8645 2.34617 14.8681 3.23817 15.5616C4.13018 16.255 5.25039 16.5875 6.37627 16.493C7.50214 16.3986 8.55128 15.884 9.31526 15.0517C10.0792 14.2193 10.5022 13.13 10.5 12.0002C10.5 11.6023 10.658 11.2208 10.9393 10.9395C11.2206 10.6582 11.6022 10.5002 12 10.5002C12.3978 10.5002 12.7794 10.6582 13.0607 10.9395C13.342 11.2208 13.5 11.6023 13.5 12.0002C13.4978 13.13 13.9208 14.2193 14.6847 15.0517C15.4487 15.884 16.4979 16.3986 17.6237 16.493C18.7496 16.5875 19.8698 16.255 20.7618 15.5616C21.6538 14.8681 22.2524 13.8645 22.4385 12.7502H23.25C23.4489 12.7502 23.6397 12.6711 23.7803 12.5305C23.921 12.3898 24 12.1991 24 12.0002C24 11.8012 23.921 11.6105 23.7803 11.4698C23.6397 11.3292 23.4489 11.2502 23.25 11.2502H22.4385C22.2835 10.3295 21.8459 9.47986 21.1865 8.81897C20.527 8.15807 19.6783 7.71864 18.758 7.56158C17.8377 7.40451 16.8913 7.53758 16.05 7.94235C15.2087 8.34712 14.5141 9.00354 14.0625 9.82066C13.5058 9.2926 12.7673 8.99883 12 9.00016C11.202 9.00016 10.476 9.31216 9.9375 9.82066ZM21 12.0002C21 11.2045 20.6839 10.4414 20.1213 9.87884C19.5587 9.31623 18.7956 9.00016 18 9.00016C17.2044 9.00016 16.4413 9.31623 15.8787 9.87884C15.3161 10.4414 15 11.2045 15 12.0002C15 12.7958 15.3161 13.5589 15.8787 14.1215C16.4413 14.6841 17.2044 15.0002 18 15.0002C18.7956 15.0002 19.5587 14.6841 20.1213 14.1215C20.6839 13.5589 21 12.7958 21 12.0002Z" fill="black"/>
</g>
<defs>
<clipPath id="clip0_4019_2343">
<rect width="24" height="24" fill="white"/>
</clipPath>
</defs>
</svg>
