<svg width="24" height="24" viewBox="0 0 24 24" fill="none" xmlns="http://www.w3.org/2000/svg">
<path fill-rule="evenodd" clip-rule="evenodd" d="M6 0H18C18.7956 0 19.5587 0.316071 20.1213 0.87868C20.6839 1.44129 21 2.20435 21 3V21C21 21.7956 20.6839 22.5587 20.1213 23.1213C19.5587 23.6839 18.7956 24 18 24H6C5.20435 24 4.44129 23.6839 3.87868 23.1213C3.31607 22.5587 3 21.7956 3 21V3C3 2.20435 3.31607 1.44129 3.87868 0.87868C4.44129 0.316071 5.20435 0 6 0V0ZM6 1.5C5.60218 1.5 5.22064 1.65804 4.93934 1.93934C4.65804 2.22064 4.5 2.60218 4.5 3V21C4.5 21.3978 4.65804 21.7794 4.93934 22.0607C5.22064 22.342 5.60218 22.5 6 22.5H18C18.3978 22.5 18.7794 22.342 19.0607 22.0607C19.342 21.7794 19.5 21.3978 19.5 21V3C19.5 2.60218 19.342 2.22064 19.0607 1.93934C18.7794 1.65804 18.3978 1.5 18 1.5H6Z" fill="black"/>
<path fill-rule="evenodd" clip-rule="evenodd" d="M12.0009 7.5C12.1999 7.5 12.3906 7.57902 12.5313 7.71967C12.6719 7.86032 12.7509 8.05109 12.7509 8.25V13.9395L14.4699 12.219C14.6108 12.0782 14.8018 11.9991 15.0009 11.9991C15.2001 11.9991 15.3911 12.0782 15.5319 12.219C15.6728 12.3598 15.7519 12.5508 15.7519 12.75C15.7519 12.9492 15.6728 13.1402 15.5319 13.281L12.5319 16.281C12.4623 16.3508 12.3795 16.4063 12.2884 16.4441C12.1973 16.4819 12.0996 16.5013 12.0009 16.5013C11.9023 16.5013 11.8046 16.4819 11.7135 16.4441C11.6224 16.4063 11.5396 16.3508 11.4699 16.281L8.46995 13.281C8.40022 13.2113 8.3449 13.1285 8.30716 13.0374C8.26942 12.9463 8.25 12.8486 8.25 12.75C8.25 12.6514 8.26942 12.5537 8.30716 12.4626C8.3449 12.3715 8.40022 12.2887 8.46995 12.219C8.61078 12.0782 8.80178 11.9991 9.00095 11.9991C9.09956 11.9991 9.19721 12.0185 9.28832 12.0562C9.37943 12.094 9.46222 12.1493 9.53195 12.219L11.2509 13.9395V8.25C11.2509 8.05109 11.33 7.86032 11.4706 7.71967C11.6113 7.57902 11.802 7.5 12.0009 7.5Z" fill="black"/>
</svg>
