<svg width="24" height="24" viewBox="0 0 24 24" fill="none" xmlns="http://www.w3.org/2000/svg">
<path d="M14.7178 2.92801C14.8389 3.02514 14.9269 3.15743 14.9696 3.30665C15.0123 3.45587 15.0076 3.61466 14.9563 3.76113C14.9049 3.9076 14.8094 4.03453 14.6829 4.12442C14.5563 4.21431 14.4051 4.26273 14.2498 4.26301C11.7433 4.26301 9.97184 5.15701 8.82584 6.04051L7.28534 7.60951V9.31501C7.28552 9.41357 7.26627 9.51119 7.22869 9.6023C7.19111 9.69342 7.13594 9.77623 7.06634 9.84601L5.13734 11.7795C5.06767 11.8494 4.98491 11.9048 4.89379 11.9426C4.80267 11.9804 4.70499 11.9998 4.60634 11.9998C4.50769 11.9998 4.41001 11.9804 4.31889 11.9426C4.22777 11.9048 4.14501 11.8494 4.07534 11.7795L0.218841 7.91101C0.0786959 7.77042 0 7.58002 0 7.38151C0 7.183 0.0786959 6.99259 0.218841 6.85201L2.14784 4.91701C2.21762 4.84741 2.30043 4.79224 2.39155 4.75466C2.48266 4.71708 2.58028 4.69783 2.67884 4.69801H4.25984C6.75734 1.84201 9.32384 1.29301 11.3353 1.56001C12.4485 1.71313 13.5131 2.11397 14.4508 2.73301L14.7178 2.92651V2.92801Z" fill="black"/>
<path fill-rule="evenodd" clip-rule="evenodd" d="M9.01773 5.25002C9.1196 5.25253 9.21988 5.27578 9.31247 5.31833C9.40505 5.36088 9.48799 5.42185 9.55623 5.49752L23.2752 18.4665C23.4044 18.6092 23.4737 18.796 23.469 18.9884C23.4643 19.1807 23.3858 19.3639 23.2497 19.5L20.9997 21.75C20.9235 21.8264 20.8316 21.8855 20.7304 21.9231C20.6292 21.9608 20.5211 21.9762 20.4135 21.9682C20.3058 21.9602 20.2011 21.9291 20.1066 21.8769C20.0121 21.8248 19.9299 21.7528 19.8657 21.666L6.89673 7.94552C6.79016 7.80125 6.73883 7.62356 6.75204 7.44468C6.76525 7.2658 6.84213 7.09758 6.96873 6.97052L8.46873 5.47052C8.54051 5.39847 8.62619 5.34176 8.72057 5.30385C8.81495 5.26595 8.91605 5.24763 9.01773 5.25002Z" fill="black"/>
</svg>
