<svg width="24" height="24" viewBox="0 0 24 24" fill="none" xmlns="http://www.w3.org/2000/svg">
<g clip-path="url(#clip0_4019_2784)">
<path fill-rule="evenodd" clip-rule="evenodd" d="M10.434 2.61756C10.5315 1.21506 11.862 0.13056 13.296 0.48756L13.6875 0.58656C14.382 0.76056 14.9985 1.27056 15.2055 2.03406C15.5355 3.25806 16.005 5.80056 15.2985 8.79906C15.5194 8.76855 15.741 8.74304 15.963 8.72256C17.0325 8.62506 18.4665 8.61456 19.737 9.03756C20.514 9.29706 21.228 10.0591 21.537 10.9471C21.813 11.7451 21.777 12.6901 21.186 13.5466C21.273 13.7251 21.3405 13.9096 21.393 14.0911C21.5085 14.4961 21.5625 14.9416 21.5625 15.3751C21.5625 15.8086 21.5085 16.2541 21.393 16.6591C21.3345 16.8616 21.258 17.0686 21.153 17.2651C21.4065 17.8456 21.3135 18.4936 21.1485 18.9871C20.9796 19.4744 20.7323 19.9308 20.4165 20.3386C20.4975 20.5666 20.5305 20.8066 20.5305 21.0361C20.5305 21.4936 20.397 21.9736 20.151 22.4041C19.65 23.2831 18.6555 24.0001 17.25 24.0001V22.5001C18.0945 22.5001 18.6015 22.0921 18.849 21.6601C18.9615 21.4708 19.0239 21.2561 19.0305 21.0361C19.0305 20.8561 18.978 20.7886 18.9705 20.7811L18.4395 20.2501L18.969 19.7191C19.272 19.4176 19.5795 18.9526 19.7265 18.5131C19.8825 18.0451 19.791 17.8516 19.719 17.7811L19.1895 17.2501L19.719 16.7191C19.7835 16.6561 19.8765 16.5091 19.95 16.2466C20.022 15.9961 20.0625 15.6916 20.0625 15.3751C20.0625 15.0586 20.022 14.7541 19.95 14.5036C19.875 14.2426 19.7835 14.0941 19.719 14.0311L19.1895 13.5001L19.719 12.9691C20.2485 12.4411 20.2785 11.8996 20.1195 11.4391C19.9365 10.9141 19.5255 10.5496 19.263 10.4611C18.2835 10.1356 17.0925 10.1251 16.098 10.2151C15.5462 10.2664 14.9982 10.3521 14.457 10.4716L14.436 10.4761L14.4315 10.4776C14.3012 10.5099 14.1646 10.5067 14.036 10.4683C13.9074 10.4299 13.7914 10.3576 13.7002 10.2591C13.609 10.1605 13.546 10.0393 13.5176 9.9081C13.4893 9.77688 13.4966 9.64046 13.539 9.51306C14.2938 7.22052 14.3694 4.75856 13.7565 2.42406C13.7115 2.25756 13.5645 2.10156 13.3245 2.04156L12.9315 1.94406C12.4725 1.82856 11.9685 2.17806 11.931 2.72106C11.8185 4.34406 11.5725 5.94606 11.208 6.99606C10.947 7.74906 10.3035 8.89806 9.351 9.96156C8.3955 11.0296 7.0725 12.0766 5.43 12.5236C4.839 12.6856 4.5 13.1176 4.5 13.4986V19.5016C4.5 19.8916 4.83 20.2741 5.3295 20.3266C7.269 20.5321 8.2335 21.1216 9.066 21.6286L9.126 21.6661C9.531 21.9121 9.8685 22.1101 10.29 22.2556C10.7055 22.3981 11.235 22.5001 12 22.5001H17.25V24.0001H12C11.0925 24.0001 10.395 23.8786 9.801 23.6731C9.29024 23.4865 8.80216 23.243 8.346 22.9471L8.274 22.9021C7.518 22.4416 6.7755 21.9886 5.172 21.8191C4.023 21.6961 3 20.7691 3 19.5001V13.5001C3 12.2251 4.0275 11.3521 5.0355 11.0776C6.309 10.7296 7.3965 9.89706 8.2335 8.96256C9.0735 8.02206 9.6045 7.04256 9.792 6.50406C10.0905 5.64156 10.326 4.19556 10.434 2.61906V2.61756Z" fill="black"/>
</g>
<defs>
<clipPath id="clip0_4019_2784">
<rect width="24" height="24" fill="white"/>
</clipPath>
</defs>
</svg>
