<svg width="24" height="24" viewBox="0 0 24 24" fill="none" xmlns="http://www.w3.org/2000/svg">
<path d="M12.585 18.9721C12.5713 19.0614 12.5638 19.1516 12.5625 19.2421C12.5625 19.6996 12.8775 20.0041 13.3125 20.0041C13.7115 20.0041 14.0505 19.7461 14.145 19.2886L14.976 15.2341H16.782C17.4135 15.2341 17.7075 14.8831 17.7075 14.4136C17.7075 13.9456 17.4255 13.6186 16.782 13.6186H15.3045L16.0785 9.83256H17.976C18.621 9.83256 18.903 9.49205 18.903 9.01205C18.903 8.54256 18.621 8.22606 17.976 8.22606H16.407L17.121 4.77006C17.1354 4.6888 17.1434 4.60655 17.145 4.52406C17.1462 4.42208 17.127 4.32089 17.0885 4.22644C17.0501 4.13199 16.9931 4.04618 16.921 3.97407C16.8489 3.90195 16.7631 3.84498 16.6686 3.80651C16.5742 3.76804 16.473 3.74885 16.371 3.75006C16.1822 3.74645 15.998 3.80894 15.8504 3.92672C15.7028 4.04449 15.6009 4.21015 15.5625 4.39506L14.778 8.22606H11.4255L12.141 4.77006C12.153 4.71006 12.1635 4.59306 12.1635 4.52406C12.1643 4.42129 12.1445 4.31941 12.1053 4.22444C12.066 4.12947 12.0081 4.04335 11.9349 3.97117C11.8618 3.899 11.7749 3.84224 11.6794 3.80426C11.5839 3.76628 11.4817 3.74784 11.379 3.75006C11.1922 3.74897 11.0107 3.81263 10.8655 3.93022C10.7203 4.04781 10.6203 4.21207 10.5825 4.39506L9.795 8.22606H8.121C7.476 8.22606 7.1955 8.55606 7.1955 9.02406C7.1955 9.49205 7.476 9.83256 8.121 9.83256H9.48L8.7075 13.6171H6.9135C6.282 13.6171 6 13.9456 6 14.4136C6 14.8831 6.282 15.2341 6.915 15.2341H8.379L7.605 18.9721C7.593 19.0321 7.5825 19.1596 7.5825 19.2421C7.5825 19.6996 7.8975 20.0041 8.3325 20.0041C8.73 20.0041 9.0705 19.7461 9.1635 19.2886L9.996 15.2341H13.359L12.5865 18.9721H12.585ZM11.085 9.80856H14.484L13.7115 13.6531H10.2885L11.0865 9.80856H11.085Z" fill="black"/>
</svg>
