<svg width="26" height="24" viewBox="0 0 26 24" fill="none" xmlns="http://www.w3.org/2000/svg">
<g clip-path="url(#clip0_4019_2873)">
<path fill-rule="evenodd" clip-rule="evenodd" d="M0.00292969 4.5C0.00292969 3.70435 0.319 2.94129 0.881609 2.37868C1.44422 1.81607 2.20728 1.5 3.00293 1.5H21.0029C21.7986 1.5 22.5616 1.81607 23.1243 2.37868C23.6869 2.94129 24.0029 3.70435 24.0029 4.5V19.5C24.0029 20.2956 23.6869 21.0587 23.1243 21.6213C22.5616 22.1839 21.7986 22.5 21.0029 22.5H3.00293C2.20728 22.5 1.44422 22.1839 0.881609 21.6213C0.319 21.0587 0.00292969 20.2956 0.00292969 19.5V4.5ZM1.50293 18L5.47193 14.469C5.59453 14.3468 5.7556 14.2709 5.92784 14.2539C6.10007 14.237 6.27287 14.2801 6.41693 14.376L10.4069 17.0355L15.9719 11.4705C16.0832 11.3592 16.2266 11.2856 16.3819 11.2603C16.5373 11.235 16.6966 11.2592 16.8374 11.3295L22.5029 14.25V19.5C22.5029 19.8978 22.3449 20.2794 22.0636 20.5607C21.7823 20.842 21.4008 21 21.0029 21H3.00293C2.6051 21 2.22357 20.842 1.94227 20.5607C1.66097 20.2794 1.50293 19.8978 1.50293 19.5V18ZM9.00293 8.25C9.00293 8.84674 8.76588 9.41903 8.34392 9.84099C7.92196 10.2629 7.34967 10.5 6.75293 10.5C6.15619 10.5 5.5839 10.2629 5.16194 9.84099C4.73998 9.41903 4.50293 8.84674 4.50293 8.25C4.50293 7.65326 4.73998 7.08097 5.16194 6.65901C5.5839 6.23705 6.15619 6 6.75293 6C7.34967 6 7.92196 6.23705 8.34392 6.65901C8.76588 7.08097 9.00293 7.65326 9.00293 8.25Z" fill="black"/>
</g>
<defs>
<clipPath id="clip0_4019_2873">
<rect width="25.5" height="24" fill="white"/>
</clipPath>
</defs>
</svg>
