<svg width="24" height="24" viewBox="0 0 24 24" fill="none" xmlns="http://www.w3.org/2000/svg">
<g clip-path="url(#clip0_4019_2877)">
<path fill-rule="evenodd" clip-rule="evenodd" d="M18.0029 6H3.00293C2.6051 6 2.22357 6.15804 1.94227 6.43934C1.66097 6.72064 1.50293 7.10218 1.50293 7.5V19.5L5.47193 15.969C5.59453 15.8468 5.7556 15.7709 5.92784 15.7539C6.10007 15.737 6.27287 15.7801 6.41693 15.876L10.4069 18.5355L15.9719 12.9705C16.0832 12.8592 16.2266 12.7856 16.3819 12.7603C16.5373 12.735 16.6966 12.7592 16.8374 12.8295L19.5029 15.75V7.5C19.5029 7.10218 19.3449 6.72064 19.0636 6.43934C18.7823 6.15804 18.4008 6 18.0029 6ZM3.00293 4.5C2.20728 4.5 1.44422 4.81607 0.881609 5.37868C0.319 5.94129 0.00292969 6.70435 0.00292969 7.5V19.5C0.00292969 20.2956 0.319 21.0587 0.881609 21.6213C1.44422 22.1839 2.20728 22.5 3.00293 22.5H18.0029C18.7986 22.5 19.5616 22.1839 20.1243 21.6213C20.6869 21.0587 21.0029 20.2956 21.0029 19.5V7.5C21.0029 6.70435 20.6869 5.94129 20.1243 5.37868C19.5616 4.81607 18.7986 4.5 18.0029 4.5H3.00293ZM9.00293 11.25C9.00293 11.5455 8.94473 11.8381 8.83166 12.111C8.71859 12.384 8.55285 12.6321 8.34392 12.841C8.13499 13.0499 7.88695 13.2157 7.61397 13.3287C7.34098 13.4418 7.0484 13.5 6.75293 13.5C6.45746 13.5 6.16487 13.4418 5.89189 13.3287C5.61891 13.2157 5.37087 13.0499 5.16194 12.841C4.95301 12.6321 4.78727 12.384 4.6742 12.111C4.56113 11.8381 4.50293 11.5455 4.50293 11.25C4.50293 10.6533 4.73998 10.081 5.16194 9.65901C5.5839 9.23705 6.15619 9 6.75293 9C7.34967 9 7.92196 9.23705 8.34392 9.65901C8.76588 10.081 9.00293 10.6533 9.00293 11.25Z" fill="black"/>
<path fill-rule="evenodd" clip-rule="evenodd" d="M6 3H21C21.3978 3 21.7794 3.15804 22.0607 3.43934C22.342 3.72064 22.5 4.10218 22.5 4.5V16.5C22.5 16.8978 22.342 17.2794 22.0607 17.5607C21.7794 17.842 21.3978 18 21 18V19.5C21.7956 19.5 22.5587 19.1839 23.1213 18.6213C23.6839 18.0587 24 17.2956 24 16.5V4.5C24 3.70435 23.6839 2.94129 23.1213 2.37868C22.5587 1.81607 21.7956 1.5 21 1.5H6C5.20435 1.5 4.44129 1.81607 3.87868 2.37868C3.31607 2.94129 3 3.70435 3 4.5H4.5C4.5 4.10218 4.65804 3.72064 4.93934 3.43934C5.22064 3.15804 5.60218 3 6 3Z" fill="black"/>
</g>
<defs>
<clipPath id="clip0_4019_2877">
<rect width="24" height="24" fill="white"/>
</clipPath>
</defs>
</svg>
