<svg width="24" height="24" viewBox="0 0 24 24" fill="none" xmlns="http://www.w3.org/2000/svg">
<g clip-path="url(#clip0_4019_2880)">
<path fill-rule="evenodd" clip-rule="evenodd" d="M7.46967 6C7.35726 6.00016 7.24633 6.02559 7.14507 6.0744C7.04381 6.12321 6.95482 6.19416 6.88467 6.282L2.30967 12H8.99967C9.19859 12 9.38935 12.079 9.53 12.2197C9.67066 12.3603 9.74967 12.5511 9.74967 12.75C9.74967 13.3467 9.98673 13.919 10.4087 14.341C10.8306 14.7629 11.4029 15 11.9997 15C12.5964 15 13.1687 14.7629 13.5907 14.341C14.0126 13.919 14.2497 13.3467 14.2497 12.75C14.2497 12.5511 14.3287 12.3603 14.4693 12.2197C14.61 12.079 14.8008 12 14.9997 12H21.6897L17.1147 6.282C17.0445 6.19416 16.9555 6.12321 16.8543 6.0744C16.753 6.02559 16.6421 6.00016 16.5297 6H7.46967ZM5.71467 5.3445C5.92525 5.08125 6.19229 4.86869 6.49606 4.72252C6.79983 4.57635 7.13257 4.5003 7.46967 4.5H16.5297C16.8668 4.5003 17.1995 4.57635 17.5033 4.72252C17.8071 4.86869 18.0741 5.08125 18.2847 5.3445L23.8347 12.282C23.8973 12.3602 23.9436 12.4501 23.9709 12.5464C23.9982 12.6428 24.006 12.7436 23.9937 12.843L23.4087 17.529C23.3407 18.0733 23.0761 18.5741 22.6648 18.937C22.2535 19.3 21.7237 19.5002 21.1752 19.5H2.82417C2.27561 19.5002 1.74586 19.3 1.33455 18.937C0.923235 18.5741 0.658695 18.0733 0.590673 17.529L0.00567314 12.843C-0.00662125 12.7436 0.00111377 12.6428 0.0284219 12.5464C0.05573 12.4501 0.102058 12.3602 0.164673 12.282L5.71467 5.3445Z" fill="black"/>
</g>
<defs>
<clipPath id="clip0_4019_2880">
<rect width="24" height="24" fill="white"/>
</clipPath>
</defs>
</svg>
