<svg width="24" height="24" viewBox="0 0 24 24" fill="none" xmlns="http://www.w3.org/2000/svg">
<g clip-path="url(#clip0_4019_2884)">
<path fill-rule="evenodd" clip-rule="evenodd" d="M7.47279 1.5C7.36038 1.50016 7.24945 1.52559 7.14819 1.5744C7.04693 1.62321 6.95794 1.69416 6.88779 1.782L2.31279 7.5H9.00279C9.2017 7.5 9.39247 7.57902 9.53312 7.71967C9.67377 7.86032 9.75279 8.05109 9.75279 8.25C9.75279 8.84674 9.98984 9.41903 10.4118 9.84099C10.8338 10.2629 11.4061 10.5 12.0028 10.5C12.5995 10.5 13.1718 10.2629 13.5938 9.84099C14.0157 9.41903 14.2528 8.84674 14.2528 8.25C14.2528 8.05109 14.3318 7.86032 14.4725 7.71967C14.6131 7.57902 14.8039 7.5 15.0028 7.5H21.6928L17.1178 1.782C17.0476 1.69416 16.9587 1.62321 16.8574 1.5744C16.7561 1.52559 16.6452 1.50016 16.5328 1.5H7.47279ZM5.71779 0.8445C5.92837 0.581255 6.19541 0.368692 6.49918 0.22252C6.80295 0.076347 7.13568 0.000300644 7.47279 0L16.5328 0C16.8699 0.000300644 17.2026 0.076347 17.5064 0.22252C17.8102 0.368692 18.0772 0.581255 18.2878 0.8445L23.8378 7.782C23.9004 7.86016 23.9467 7.95006 23.974 8.04642C24.0014 8.14277 24.0091 8.24361 23.9968 8.343L23.4118 13.029C23.3438 13.5733 23.0792 14.0741 22.6679 14.437C22.2566 14.8 21.7269 15.0002 21.1783 15H2.82729C2.27872 15.0002 1.74898 14.8 1.33766 14.437C0.926353 14.0741 0.661813 13.5733 0.593791 13.029L0.00879071 8.343C-0.00350367 8.24361 0.00423134 8.14277 0.0315394 8.04642C0.0588475 7.95006 0.105176 7.86016 0.167791 7.782L5.71779 0.8445ZM0.190291 16.755C0.260573 16.675 0.347086 16.6109 0.444075 16.5669C0.541063 16.5229 0.646302 16.5001 0.752791 16.5H9.00279C9.2017 16.5 9.39247 16.579 9.53312 16.7197C9.67377 16.8603 9.75279 17.0511 9.75279 17.25C9.75279 17.8467 9.98984 18.419 10.4118 18.841C10.8338 19.2629 11.4061 19.5 12.0028 19.5C12.5995 19.5 13.1718 19.2629 13.5938 18.841C14.0157 18.419 14.2528 17.8467 14.2528 17.25C14.2528 17.0511 14.3318 16.8603 14.4725 16.7197C14.6131 16.579 14.8039 16.5 15.0028 16.5H23.2528C23.3591 16.5 23.4642 16.5227 23.5611 16.5664C23.658 16.6102 23.7445 16.674 23.8149 16.7537C23.8853 16.8334 23.9379 16.9272 23.9692 17.0288C24.0006 17.1304 24.01 17.2375 23.9968 17.343L23.4118 22.029C23.3438 22.5733 23.0792 23.0741 22.6679 23.437C22.2566 23.8 21.7269 24.0002 21.1783 24H2.82729C2.27872 24.0002 1.74898 23.8 1.33766 23.437C0.926353 23.0741 0.661813 22.5733 0.593791 22.029L0.00879071 17.343C-0.00447787 17.2375 0.00484303 17.1304 0.0361349 17.0287C0.0674269 16.9271 0.119974 16.8333 0.190291 16.7535V16.755Z" fill="black"/>
</g>
<defs>
<clipPath id="clip0_4019_2884">
<rect width="24" height="24" fill="white"/>
</clipPath>
</defs>
</svg>
