<svg width="24" height="24" viewBox="0 0 24 24" fill="none" xmlns="http://www.w3.org/2000/svg">
<g clip-path="url(#clip0_4019_2882)">
<path fill-rule="evenodd" clip-rule="evenodd" d="M7.46967 6C7.35726 6.00016 7.24633 6.02559 7.14507 6.0744C7.04381 6.12321 6.95482 6.19416 6.88467 6.282L2.30967 12H8.99967C9.19859 12 9.38935 12.079 9.53 12.2197C9.67066 12.3603 9.74967 12.5511 9.74967 12.75C9.74967 13.3467 9.98673 13.919 10.4087 14.341C10.8306 14.7629 11.4029 15 11.9997 15C12.5964 15 13.1687 14.7629 13.5907 14.341C14.0126 13.919 14.2497 13.3467 14.2497 12.75C14.2497 12.5511 14.3287 12.3603 14.4693 12.2197C14.61 12.079 14.8008 12 14.9997 12H21.6897L17.1147 6.282C17.0445 6.19416 16.9555 6.12321 16.8543 6.0744C16.753 6.02559 16.6421 6.00016 16.5297 6H7.46967ZM22.4007 13.5H15.6747C15.5025 14.3477 15.0426 15.1099 14.3729 15.6573C13.7031 16.2047 12.8647 16.5038 11.9997 16.5038C11.1347 16.5038 10.2962 16.2047 9.62648 15.6573C8.95672 15.1099 8.49681 14.3477 8.32467 13.5H1.59867L2.07867 17.343C2.10137 17.5246 2.18969 17.6917 2.32701 17.8127C2.46432 17.9337 2.64115 18.0003 2.82417 18H21.1752C21.3579 17.9999 21.5344 17.9332 21.6714 17.8122C21.8084 17.6912 21.8965 17.5244 21.9192 17.343L22.3992 13.5H22.4007ZM5.71317 5.3445C5.92407 5.08086 6.19159 4.86806 6.49592 4.72187C6.80024 4.57568 7.13356 4.49985 7.47117 4.5H16.5282C16.8658 4.49985 17.1991 4.57568 17.5034 4.72187C17.8078 4.86806 18.0753 5.08086 18.2862 5.3445L23.8362 12.282C23.8985 12.3603 23.9446 12.4502 23.9716 12.5466C23.9987 12.6429 24.0062 12.7437 23.9937 12.843L23.4087 17.529C23.3407 18.0733 23.0761 18.5741 22.6648 18.937C22.2535 19.3 21.7237 19.5002 21.1752 19.5H2.82417C2.27561 19.5002 1.74586 19.3 1.33455 18.937C0.923235 18.5741 0.658695 18.0733 0.590673 17.529L0.00567314 12.843C-0.00662125 12.7436 0.00111377 12.6428 0.0284219 12.5464C0.05573 12.4501 0.102058 12.3602 0.164673 12.282L5.71467 5.3445H5.71317Z" fill="black"/>
</g>
<defs>
<clipPath id="clip0_4019_2882">
<rect width="24" height="24" fill="white"/>
</clipPath>
</defs>
</svg>
