<svg width="24" height="24" viewBox="0 0 24 24" fill="none" xmlns="http://www.w3.org/2000/svg">
<path d="M9.1703 11.2902L13.4103 7.05019C13.5033 6.95646 13.6139 6.88207 13.7357 6.8313C13.8576 6.78053 13.9883 6.75439 14.1203 6.75439C14.2523 6.75439 14.383 6.78053 14.5049 6.8313C14.6267 6.88207 14.7373 6.95646 14.8303 7.05019C15.0166 7.23756 15.1211 7.49101 15.1211 7.75519C15.1211 8.01938 15.0166 8.27283 14.8303 8.46019L11.2903 12.0002L14.8303 15.5402C15.0166 15.7276 15.1211 15.981 15.1211 16.2452C15.1211 16.5094 15.0166 16.7628 14.8303 16.9502C14.7369 17.0429 14.626 17.1162 14.5042 17.166C14.3824 17.2157 14.2519 17.241 14.1203 17.2402C13.9887 17.241 13.8582 17.2157 13.7364 17.166C13.6146 17.1162 13.5037 17.0429 13.4103 16.9502L9.1703 12.7102C9.07657 12.6172 9.00218 12.5066 8.95141 12.3848C8.90064 12.2629 8.8745 12.1322 8.8745 12.0002C8.8745 11.8682 8.90064 11.7375 8.95141 11.6156C9.00218 11.4938 9.07657 11.3832 9.1703 11.2902Z" fill="#27214D"/>
</svg>
