<svg width="24" height="24" viewBox="0 0 24 24" fill="none" xmlns="http://www.w3.org/2000/svg">
<g clip-path="url(#clip0_4019_3217)">
<path fill-rule="evenodd" clip-rule="evenodd" d="M8.91587 1.30059C9.31963 0.887404 9.8019 0.559084 10.3343 0.334928C10.8668 0.110771 11.4387 -0.00469971 12.0164 -0.00469971C12.5941 -0.00469971 13.166 0.110771 13.6984 0.334928C14.2308 0.559084 14.7131 0.887404 15.1169 1.30059L16.0499 2.25759L17.3849 2.24109C17.9627 2.23425 18.5362 2.34303 19.0714 2.56103C19.6066 2.77902 20.0928 3.10183 20.5015 3.51048C20.9101 3.91913 21.2329 4.40536 21.4509 4.94059C21.6689 5.47581 21.7777 6.04922 21.7709 6.62709L21.7559 7.96209L22.7099 8.89509C23.1231 9.29885 23.4514 9.78112 23.6755 10.3136C23.8997 10.846 24.0152 11.4179 24.0152 11.9956C24.0152 12.5733 23.8997 13.1452 23.6755 13.6776C23.4514 14.2101 23.1231 14.6923 22.7099 15.0961L21.7544 16.0291L21.7709 17.3641C21.7777 17.942 21.6689 18.5154 21.4509 19.0506C21.2329 19.5858 20.9101 20.0721 20.5015 20.4807C20.0928 20.8894 19.6066 21.2122 19.0714 21.4302C18.5362 21.6482 17.9627 21.7569 17.3849 21.7501L16.0499 21.7351L15.1169 22.6891C14.7131 23.1023 14.2308 23.4306 13.6984 23.6548C13.166 23.8789 12.5941 23.9944 12.0164 23.9944C11.4387 23.9944 10.8668 23.8789 10.3343 23.6548C9.8019 23.4306 9.31963 23.1023 8.91587 22.6891L7.98287 21.7336L6.64787 21.7501C6.07 21.7569 5.49659 21.6482 4.96136 21.4302C4.42614 21.2122 3.93991 20.8894 3.53126 20.4807C3.12261 20.0721 2.7998 19.5858 2.5818 19.0506C2.36381 18.5154 2.25503 17.942 2.26187 17.3641L2.27687 16.0291L1.32287 15.0961C0.909682 14.6923 0.581362 14.2101 0.357205 13.6776C0.133049 13.1452 0.0175781 12.5733 0.0175781 11.9956C0.0175781 11.4179 0.133049 10.846 0.357205 10.3136C0.581362 9.78112 0.909682 9.29885 1.32287 8.89509L2.27837 7.96209L2.26187 6.62709C2.25503 6.04922 2.36381 5.47581 2.5818 4.94059C2.7998 4.40536 3.12261 3.91913 3.53126 3.51048C3.93991 3.10183 4.42614 2.77902 4.96136 2.56103C5.49659 2.34303 6.07 2.23425 6.64787 2.24109L7.98287 2.25609L8.91587 1.30209V1.30059ZM10.5194 16.4956C10.5194 16.2986 10.5582 16.1036 10.6336 15.9216C10.7089 15.7396 10.8194 15.5742 10.9587 15.4349C11.098 15.2956 11.2634 15.1852 11.4453 15.1098C11.6273 15.0344 11.8224 14.9956 12.0194 14.9956C12.2164 14.9956 12.4114 15.0344 12.5934 15.1098C12.7754 15.1852 12.9407 15.2956 13.08 15.4349C13.2193 15.5742 13.3298 15.7396 13.4052 15.9216C13.4806 16.1036 13.5194 16.2986 13.5194 16.4956C13.5194 16.8934 13.3613 17.2749 13.08 17.5563C12.7987 17.8376 12.4172 17.9956 12.0194 17.9956C11.6215 17.9956 11.24 17.8376 10.9587 17.5563C10.6774 17.2749 10.5194 16.8934 10.5194 16.4956ZM12.9224 13.4551C12.8474 14.0341 12.5954 14.3956 12.0914 14.3956C11.5259 14.3956 11.2139 13.9201 11.2139 13.2781V13.1131C11.2139 12.0226 11.6744 11.3011 12.6029 10.6516C13.5239 9.99159 13.8359 9.50859 13.8359 8.66409C13.8359 7.70709 13.2059 7.03809 12.2909 7.03809C11.4659 7.03809 10.9169 7.52259 10.6799 8.40909C10.5164 8.95509 10.2419 9.17409 9.83387 9.17409C9.32087 9.17559 9.01637 8.80509 9.01637 8.21559C9.01637 7.83909 9.08387 7.51359 9.22487 7.18059C9.68537 5.98359 10.8434 5.24559 12.3734 5.24559C14.3849 5.24559 15.7664 6.59859 15.7664 8.58609C15.7664 9.93009 15.2024 10.8526 14.1914 11.5651C13.2194 12.2326 12.9824 12.6541 12.9224 13.4551Z" fill="black"/>
</g>
<defs>
<clipPath id="clip0_4019_3217">
<rect width="24" height="24" fill="white"/>
</clipPath>
</defs>
</svg>
