<svg width="24" height="24" viewBox="0 0 24 24" fill="none" xmlns="http://www.w3.org/2000/svg">
<g clip-path="url(#clip0_4019_3211)">
<path fill-rule="evenodd" clip-rule="evenodd" d="M15.1169 1.30059C14.7131 0.887404 14.2308 0.559084 13.6984 0.334928C13.166 0.110771 12.5941 -0.00469971 12.0164 -0.00469971C11.4387 -0.00469971 10.8668 0.110771 10.3343 0.334928C9.8019 0.559084 9.31963 0.887404 8.91587 1.30059L7.98287 2.25759L6.64787 2.24109C6.07 2.23425 5.49659 2.34303 4.96136 2.56103C4.42614 2.77902 3.93991 3.10183 3.53126 3.51048C3.12261 3.91913 2.7998 4.40536 2.5818 4.94059C2.36381 5.47581 2.25503 6.04922 2.26187 6.62709L2.27687 7.96209L1.32287 8.89509C0.909682 9.29885 0.581362 9.78112 0.357205 10.3136C0.133049 10.846 0.0175781 11.4179 0.0175781 11.9956C0.0175781 12.5733 0.133049 13.1452 0.357205 13.6776C0.581362 14.2101 0.909682 14.6923 1.32287 15.0961L2.27837 16.0291L2.26187 17.3641C2.25503 17.942 2.36381 18.5154 2.5818 19.0506C2.7998 19.5858 3.12261 20.0721 3.53126 20.4807C3.93991 20.8894 4.42614 21.2122 4.96136 21.4302C5.49659 21.6482 6.07 21.7569 6.64787 21.7501L7.98287 21.7351L8.91587 22.6891C9.31963 23.1023 9.8019 23.4306 10.3343 23.6548C10.8668 23.8789 11.4387 23.9944 12.0164 23.9944C12.5941 23.9944 13.166 23.8789 13.6984 23.6548C14.2308 23.4306 14.7131 23.1023 15.1169 22.6891L16.0499 21.7336L17.3849 21.7501C17.9627 21.7569 18.5362 21.6482 19.0714 21.4302C19.6066 21.2122 20.0928 20.8894 20.5015 20.4807C20.9101 20.0721 21.2329 19.5858 21.4509 19.0506C21.6689 18.5154 21.7777 17.942 21.7709 17.3641L21.7559 16.0291L22.7099 15.0961C23.1231 14.6923 23.4514 14.2101 23.6755 13.6776C23.8997 13.1452 24.0152 12.5733 24.0152 11.9956C24.0152 11.4179 23.8997 10.846 23.6755 10.3136C23.4514 9.78112 23.1231 9.29885 22.7099 8.89509L21.7544 7.96209L21.7709 6.62709C21.7777 6.04922 21.6689 5.47581 21.4509 4.94059C21.2329 4.40536 20.9101 3.91913 20.5015 3.51048C20.0928 3.10183 19.6066 2.77902 19.0714 2.56103C18.5362 2.34303 17.9627 2.23425 17.3849 2.24109L16.0499 2.25609L15.1169 1.30209V1.30059ZM12.7664 8.99559C12.7664 8.79668 12.6874 8.60592 12.5467 8.46526C12.406 8.32461 12.2153 8.24559 12.0164 8.24559C11.8175 8.24559 11.6267 8.32461 11.486 8.46526C11.3454 8.60592 11.2664 8.79668 11.2664 8.99559V11.2456H9.01637C8.81746 11.2456 8.62669 11.3246 8.48604 11.4653C8.34539 11.6059 8.26637 11.7967 8.26637 11.9956C8.26637 12.1945 8.34539 12.3853 8.48604 12.5259C8.62669 12.6666 8.81746 12.7456 9.01637 12.7456H11.2664V14.9956C11.2664 15.1945 11.3454 15.3853 11.486 15.5259C11.6267 15.6666 11.8175 15.7456 12.0164 15.7456C12.2153 15.7456 12.406 15.6666 12.5467 15.5259C12.6874 15.3853 12.7664 15.1945 12.7664 14.9956V12.7456H15.0164C15.2153 12.7456 15.406 12.6666 15.5467 12.5259C15.6874 12.3853 15.7664 12.1945 15.7664 11.9956C15.7664 11.7967 15.6874 11.6059 15.5467 11.4653C15.406 11.3246 15.2153 11.2456 15.0164 11.2456H12.7664V8.99559Z" fill="black"/>
</g>
<defs>
<clipPath id="clip0_4019_3211">
<rect width="24" height="24" fill="white"/>
</clipPath>
</defs>
</svg>
