<svg width="24" height="24" viewBox="0 0 24 24" fill="none" xmlns="http://www.w3.org/2000/svg">
<g clip-path="url(#clip0_4019_3230)">
<path fill-rule="evenodd" clip-rule="evenodd" d="M20.2467 1.19266L20.4702 0.969164C20.6384 0.801039 20.8381 0.667695 21.0579 0.576744C21.2776 0.485793 21.5132 0.439017 21.751 0.439087C21.9888 0.439157 22.2243 0.486071 22.444 0.57715C22.6637 0.66823 22.8633 0.801691 23.0315 0.969914C23.1996 1.13814 23.3329 1.33783 23.4239 1.55759C23.5148 1.77734 23.5616 2.01286 23.5616 2.25069C23.5615 2.48853 23.5146 2.72402 23.4235 2.94372C23.3324 3.16343 23.1989 3.36304 23.0307 3.53116L22.8072 3.75316C23.1896 4.18196 23.3934 4.74075 23.3769 5.31501C23.3605 5.88926 23.125 6.43547 22.7187 6.84166L7.28072 22.2812C7.18422 22.3772 7.0634 22.4451 6.93122 22.4777L0.931224 23.9777C0.805663 24.0089 0.674148 24.0072 0.549463 23.9726C0.424779 23.938 0.311166 23.8717 0.21967 23.7802C0.128173 23.6887 0.0619052 23.5751 0.0273071 23.4504C-0.00729101 23.3257 -0.0090421 23.1942 0.022224 23.0687L1.52222 17.0687C1.55504 16.937 1.62295 16.8168 1.71872 16.7207L16.1817 2.25766C16.0371 2.15586 15.8611 2.10845 15.6849 2.12382C15.5087 2.1392 15.3436 2.21635 15.2187 2.34166L10.2807 7.28117C10.211 7.3509 10.1282 7.40621 10.0371 7.44395C9.94599 7.48169 9.84834 7.50111 9.74972 7.50111C9.65111 7.50111 9.55346 7.48169 9.46235 7.44395C9.37124 7.40621 9.28846 7.3509 9.21872 7.28117C9.14899 7.21143 9.09368 7.12865 9.05594 7.03754C9.0182 6.94643 8.99878 6.84878 8.99878 6.75016C8.99878 6.65155 9.0182 6.5539 9.05594 6.46279C9.09368 6.37168 9.14899 6.2889 9.21872 6.21916L14.1597 1.28116C14.5662 0.874687 15.1128 0.639195 15.6874 0.623017C16.262 0.606839 16.821 0.811201 17.2497 1.19416C17.6619 0.825822 18.1952 0.622082 18.7479 0.621806C19.3007 0.621529 19.8342 0.824735 20.2467 1.19266Z" fill="black"/>
</g>
<defs>
<clipPath id="clip0_4019_3230">
<rect width="24" height="24" fill="white"/>
</clipPath>
</defs>
</svg>
