<svg width="24" height="24" viewBox="0 0 24 24" fill="none" xmlns="http://www.w3.org/2000/svg">
<path d="M13.6185 17.8497L20.4705 12.9282C20.6319 12.8329 20.7656 12.6971 20.8585 12.5342C20.9515 12.3714 21.0003 12.1872 21.0003 11.9997C21.0003 11.8123 20.9515 11.628 20.8585 11.4652C20.7656 11.3024 20.6319 11.1666 20.4705 11.0712L13.6185 6.14973C13.4552 6.05365 13.2693 6.00251 13.0798 6.00148C12.8903 6.00045 12.7039 6.04958 12.5396 6.14388C12.3752 6.23817 12.2387 6.37428 12.1439 6.53838C12.0492 6.70248 11.9995 6.88873 12 7.07823V8.99973C9.75 8.99973 3 8.99973 1.5 20.9997C5.25 14.2497 12 14.9997 12 14.9997V16.9212C12 17.7612 12.909 18.2682 13.6185 17.8512V17.8497Z" fill="black"/>
</svg>
