<svg width="24" height="24" viewBox="0 0 24 24" fill="none" xmlns="http://www.w3.org/2000/svg">
<path d="M13.5 8.25C13.5 8.44891 13.421 8.63968 13.2803 8.78033C13.1397 8.92098 12.9489 9 12.75 9C11.7554 9 10.8016 9.39509 10.0983 10.0983C9.39509 10.8016 9 11.7554 9 12.75C9 12.9489 8.92098 13.1397 8.78033 13.2803C8.63968 13.421 8.44891 13.5 8.25 13.5C8.05109 13.5 7.86032 13.421 7.71967 13.2803C7.57902 13.1397 7.5 12.9489 7.5 12.75C7.5 11.7554 7.10491 10.8016 6.40165 10.0983C5.69839 9.39509 4.74456 9 3.75 9C3.55109 9 3.36032 8.92098 3.21967 8.78033C3.07902 8.63968 3 8.44891 3 8.25C3 8.05109 3.07902 7.86032 3.21967 7.71967C3.36032 7.57902 3.55109 7.5 3.75 7.5C4.74456 7.5 5.69839 7.10491 6.40165 6.40165C7.10491 5.69839 7.5 4.74456 7.5 3.75C7.5 3.55109 7.57902 3.36032 7.71967 3.21967C7.86032 3.07902 8.05109 3 8.25 3C8.44891 3 8.63968 3.07902 8.78033 3.21967C8.92098 3.36032 9 3.55109 9 3.75C9 4.74456 9.39509 5.69839 10.0983 6.40165C10.8016 7.10491 11.7554 7.5 12.75 7.5C12.9489 7.5 13.1397 7.57902 13.2803 7.71967C13.421 7.86032 13.5 8.05109 13.5 8.25Z" fill="black"/>
<path d="M14.25 18C14.25 18.1989 14.171 18.3897 14.0303 18.5303C13.8897 18.671 13.6989 18.75 13.5 18.75C13.1022 18.75 12.7206 18.908 12.4393 19.1893C12.158 19.4706 12 19.8522 12 20.25C12 20.4489 11.921 20.6397 11.7803 20.7803C11.6397 20.921 11.4489 21 11.25 21C11.0511 21 10.8603 20.921 10.7197 20.7803C10.579 20.6397 10.5 20.4489 10.5 20.25C10.5 19.8522 10.342 19.4706 10.0607 19.1893C9.77936 18.908 9.39782 18.75 9 18.75C8.80109 18.75 8.61032 18.671 8.46967 18.5303C8.32902 18.3897 8.25 18.1989 8.25 18C8.25 17.8011 8.32902 17.6103 8.46967 17.4697C8.61032 17.329 8.80109 17.25 9 17.25C9.39782 17.25 9.77936 17.092 10.0607 16.8107C10.342 16.5294 10.5 16.1478 10.5 15.75C10.5 15.5511 10.579 15.3603 10.7197 15.2197C10.8603 15.079 11.0511 15 11.25 15C11.4489 15 11.6397 15.079 11.7803 15.2197C11.921 15.3603 12 15.5511 12 15.75C12 16.1478 12.158 16.5294 12.4393 16.8107C12.7206 17.092 13.1022 17.25 13.5 17.25C13.6989 17.25 13.8897 17.329 14.0303 17.4697C14.171 17.6103 14.25 17.8011 14.25 18Z" fill="black"/>
<path d="M21 12.75C21 12.9489 20.921 13.1397 20.7803 13.2803C20.6397 13.421 20.4489 13.5 20.25 13.5C19.4544 13.5 18.6913 13.8161 18.1287 14.3787C17.5661 14.9413 17.25 15.7044 17.25 16.5C17.25 16.6989 17.171 16.8897 17.0303 17.0303C16.8897 17.171 16.6989 17.25 16.5 17.25C16.3011 17.25 16.1103 17.171 15.9697 17.0303C15.829 16.8897 15.75 16.6989 15.75 16.5C15.75 15.7044 15.4339 14.9413 14.8713 14.3787C14.3087 13.8161 13.5456 13.5 12.75 13.5C12.5511 13.5 12.3603 13.421 12.2197 13.2803C12.079 13.1397 12 12.9489 12 12.75C12 12.5511 12.079 12.3603 12.2197 12.2197C12.3603 12.079 12.5511 12 12.75 12C13.5456 12 14.3087 11.6839 14.8713 11.1213C15.4339 10.5587 15.75 9.79565 15.75 9C15.75 8.80109 15.829 8.61032 15.9697 8.46967C16.1103 8.32902 16.3011 8.25 16.5 8.25C16.6989 8.25 16.8897 8.32902 17.0303 8.46967C17.171 8.61032 17.25 8.80109 17.25 9C17.25 9.79565 17.5661 10.5587 18.1287 11.1213C18.6913 11.6839 19.4544 12 20.25 12C20.4489 12 20.6397 12.079 20.7803 12.2197C20.921 12.3603 21 12.5511 21 12.75Z" fill="black"/>
</svg>
