<svg width="24" height="24" viewBox="0 0 24 24" fill="none" xmlns="http://www.w3.org/2000/svg">
<g clip-path="url(#clip0_4019_3693)">
<path fill-rule="evenodd" clip-rule="evenodd" d="M2.81649 0.785153C3.07895 0.523086 3.39411 0.31979 3.74108 0.188738C4.08806 0.0576855 4.45892 0.00186897 4.8291 0.0249873C5.19927 0.0481056 5.56031 0.149631 5.88828 0.322835C6.21625 0.496039 6.50367 0.736967 6.73149 1.02965L9.42399 4.48865C9.91749 5.12315 10.0915 5.94965 9.89649 6.72965L9.07599 10.0147C9.03357 10.1848 9.03586 10.363 9.08264 10.532C9.12942 10.701 9.21911 10.855 9.34299 10.9792L13.0285 14.6647C13.1527 14.7888 13.307 14.8786 13.4763 14.9254C13.6456 14.9722 13.8241 14.9744 13.9945 14.9317L17.278 14.1112C17.6629 14.0149 18.0647 14.0074 18.4529 14.0893C18.8411 14.1712 19.2057 14.3402 19.519 14.5837L22.978 17.2747C24.2215 18.2422 24.3355 20.0797 23.2225 21.1912L21.6715 22.7422C20.5615 23.8522 18.9025 24.3397 17.356 23.7952C13.3978 22.4024 9.8039 20.1364 6.84099 17.1652C3.86992 14.2027 1.6039 10.6093 0.210988 6.65165C-0.332012 5.10665 0.155488 3.44615 1.26549 2.33615L2.81649 0.785153ZM14.989 5.26865C14.989 5.06974 15.068 4.87898 15.2087 4.73832C15.3493 4.59767 15.5401 4.51865 15.739 4.51865H21.739C21.9379 4.51865 22.1287 4.59767 22.2693 4.73832C22.41 4.87898 22.489 5.06974 22.489 5.26865C22.489 5.46757 22.41 5.65833 22.2693 5.79898C22.1287 5.93964 21.9379 6.01865 21.739 6.01865H15.739C15.5401 6.01865 15.3493 5.93964 15.2087 5.79898C15.068 5.65833 14.989 5.46757 14.989 5.26865Z" fill="black"/>
</g>
<defs>
<clipPath id="clip0_4019_3693">
<rect width="24" height="24" fill="white"/>
</clipPath>
</defs>
</svg>
