<svg width="24" height="24" viewBox="0 0 24 24" fill="none" xmlns="http://www.w3.org/2000/svg">
<g clip-path="url(#clip0_4019_3705)">
<path fill-rule="evenodd" clip-rule="evenodd" d="M2.81649 0.785153C3.07895 0.523086 3.39411 0.31979 3.74108 0.188738C4.08806 0.0576855 4.45892 0.00186897 4.8291 0.0249873C5.19927 0.0481056 5.56031 0.149631 5.88828 0.322835C6.21625 0.496039 6.50367 0.736967 6.73149 1.02965L9.42399 4.48865C9.91749 5.12315 10.0915 5.94965 9.89649 6.72965L9.07599 10.0147C9.03357 10.1848 9.03586 10.363 9.08264 10.532C9.12942 10.701 9.21911 10.855 9.34299 10.9792L13.0285 14.6647C13.1527 14.7888 13.307 14.8786 13.4763 14.9254C13.6456 14.9722 13.8241 14.9744 13.9945 14.9317L17.278 14.1112C17.6629 14.0149 18.0647 14.0074 18.4529 14.0893C18.8411 14.1712 19.2057 14.3402 19.519 14.5837L22.978 17.2747C24.2215 18.2422 24.3355 20.0797 23.2225 21.1912L21.6715 22.7422C20.5615 23.8522 18.9025 24.3397 17.356 23.7952C13.3978 22.4024 9.8039 20.1364 6.84099 17.1652C3.86992 14.2027 1.6039 10.6093 0.210988 6.65165C-0.332012 5.10665 0.155488 3.44615 1.26549 2.33615L2.81649 0.785153ZM16.708 2.48765C16.7777 2.41781 16.8604 2.36239 16.9515 2.32458C17.0427 2.28677 17.1403 2.26731 17.239 2.26731C17.3376 2.26731 17.4353 2.28677 17.5264 2.32458C17.6176 2.36239 17.7003 2.41781 17.77 2.48765L19.489 4.20815L21.208 2.48765C21.3488 2.34682 21.5398 2.26771 21.739 2.26771C21.9382 2.26771 22.1292 2.34682 22.27 2.48765C22.4108 2.62848 22.4899 2.81949 22.4899 3.01865C22.4899 3.21782 22.4108 3.40882 22.27 3.54965L20.5495 5.26865L22.27 6.98765C22.4108 7.12848 22.4899 7.31949 22.4899 7.51865C22.4899 7.71782 22.4108 7.90882 22.27 8.04965C22.1292 8.19048 21.9382 8.2696 21.739 8.2696C21.5398 8.2696 21.3488 8.19048 21.208 8.04965L19.489 6.32915L17.77 8.04965C17.7003 8.11939 17.6175 8.1747 17.5264 8.21244C17.4353 8.25018 17.3376 8.2696 17.239 8.2696C17.1404 8.2696 17.0427 8.25018 16.9516 8.21244C16.8605 8.1747 16.7777 8.11939 16.708 8.04965C16.6383 7.97992 16.5829 7.89714 16.5452 7.80603C16.5075 7.71492 16.488 7.61727 16.488 7.51865C16.488 7.42004 16.5075 7.32239 16.5452 7.23128C16.5829 7.14017 16.6383 7.05739 16.708 6.98765L18.4285 5.26865L16.708 3.54965C16.6381 3.47998 16.5827 3.39722 16.5449 3.3061C16.5071 3.21499 16.4876 3.1173 16.4876 3.01865C16.4876 2.92 16.5071 2.82232 16.5449 2.7312C16.5827 2.64008 16.6381 2.55732 16.708 2.48765Z" fill="black"/>
</g>
<defs>
<clipPath id="clip0_4019_3705">
<rect width="24" height="24" fill="white"/>
</clipPath>
</defs>
</svg>
