<svg width="24" height="24" viewBox="0 0 24 24" fill="none" xmlns="http://www.w3.org/2000/svg">
<g clip-path="url(#clip0_4019_3685)">
<path fill-rule="evenodd" clip-rule="evenodd" d="M2.81649 0.785031C3.07895 0.522964 3.39411 0.319668 3.74108 0.188616C4.08806 0.0575634 4.45892 0.00174689 4.8291 0.0248652C5.19927 0.0479835 5.56031 0.149509 5.88828 0.322713C6.21625 0.495917 6.50367 0.736845 6.73149 1.02953L9.42399 4.48853C9.91749 5.12303 10.0915 5.94953 9.89649 6.72953L9.07599 10.0145C9.03357 10.1847 9.03586 10.3629 9.08264 10.5319C9.12942 10.7009 9.21911 10.8549 9.34299 10.979L13.0285 14.6645C13.1527 14.7887 13.307 14.8785 13.4763 14.9253C13.6456 14.9721 13.8241 14.9742 13.9945 14.9315L17.278 14.111C17.6629 14.0148 18.0647 14.0073 18.4529 14.0892C18.8411 14.171 19.2057 14.3401 19.519 14.5835L22.978 17.2745C24.2215 18.242 24.3355 20.0795 23.2225 21.191L21.6715 22.742C20.5615 23.852 18.9025 24.3395 17.356 23.795C13.3978 22.4023 9.8039 20.1363 6.84099 17.165C3.86992 14.2026 1.6039 10.6092 0.210988 6.65153C-0.332012 5.10653 0.155488 3.44603 1.26549 2.33603L2.81649 0.785031ZM18.958 0.987531C19.0277 0.917686 19.1104 0.862272 19.2015 0.824462C19.2927 0.786652 19.3903 0.76719 19.489 0.76719C19.5876 0.76719 19.6853 0.786652 19.7764 0.824462C19.8676 0.862272 19.9503 0.917686 20.02 0.987531L23.77 4.73753C23.8398 4.8072 23.8952 4.88996 23.9331 4.98108C23.9709 5.0722 23.9903 5.16988 23.9903 5.26853C23.9903 5.36718 23.9709 5.46486 23.9331 5.55598C23.8952 5.6471 23.8398 5.72986 23.77 5.79953L20.02 9.54953C19.8792 9.69036 19.6882 9.76948 19.489 9.76948C19.2898 9.76948 19.0988 9.69036 18.958 9.54953C18.8172 9.4087 18.738 9.2177 18.738 9.01853C18.738 8.81937 18.8172 8.62836 18.958 8.48753L21.4285 6.01853H14.239C14.0401 6.01853 13.8493 5.93951 13.7087 5.79886C13.568 5.65821 13.489 5.46744 13.489 5.26853C13.489 5.06962 13.568 4.87885 13.7087 4.7382C13.8493 4.59755 14.0401 4.51853 14.239 4.51853H21.4285L18.958 2.04953C18.8881 1.97986 18.8327 1.8971 18.7949 1.80598C18.7571 1.71486 18.7376 1.61718 18.7376 1.51853C18.7376 1.41988 18.7571 1.3222 18.7949 1.23108C18.8327 1.13996 18.8881 1.0572 18.958 0.987531Z" fill="black"/>
</g>
<defs>
<clipPath id="clip0_4019_3685">
<rect width="24" height="24" fill="white"/>
</clipPath>
</defs>
</svg>
