<svg width="24" height="24" viewBox="0 0 24 24" fill="none" xmlns="http://www.w3.org/2000/svg">
<g clip-path="url(#clip0_4019_3707)">
<path fill-rule="evenodd" clip-rule="evenodd" d="M5.46999 1.98536C5.38144 1.87145 5.26966 1.77769 5.14209 1.7103C5.01452 1.64291 4.87407 1.60343 4.73007 1.5945C4.58606 1.58556 4.44181 1.60736 4.30688 1.65846C4.17196 1.70956 4.04944 1.78878 3.94749 1.89086L2.39649 3.44336C1.67199 4.16936 1.40499 5.19686 1.72149 6.09836C3.0351 9.82974 5.17193 13.2175 7.97349 16.0104C10.7664 18.8119 14.1541 20.9487 17.8855 22.2624C18.787 22.5789 19.8145 22.3119 20.5405 21.5874L22.0915 20.0364C22.1936 19.9344 22.2728 19.8119 22.3239 19.677C22.375 19.542 22.3968 19.3978 22.3879 19.2538C22.3789 19.1098 22.3394 18.9693 22.2721 18.8418C22.2047 18.7142 22.1109 18.6024 21.997 18.5139L18.5365 15.8229C18.4148 15.7285 18.2733 15.663 18.1225 15.6313C17.9718 15.5996 17.8159 15.6025 17.6665 15.6399L14.3815 16.4604C13.943 16.57 13.4836 16.5641 13.0481 16.4435C12.6125 16.3228 12.2156 16.0914 11.896 15.7719L8.21199 12.0864C7.89214 11.7669 7.66048 11.3701 7.53956 10.9345C7.41864 10.4989 7.41258 10.0395 7.52199 9.60086L8.34399 6.31586C8.38135 6.16646 8.38429 6.01052 8.35259 5.85981C8.32089 5.7091 8.25537 5.56756 8.16099 5.44586L5.46999 1.98536ZM2.81499 0.759862C3.07748 0.497287 3.39283 0.293558 3.7401 0.162204C4.08736 0.0308505 4.4586 -0.0251225 4.82916 -0.00199802C5.19972 0.0211264 5.56112 0.122819 5.88936 0.296328C6.2176 0.469836 6.50518 0.71119 6.73299 1.00436L9.42399 4.46336C9.91749 5.09786 10.0915 5.92436 9.89649 6.70436L9.07599 9.98936C9.03357 10.1595 9.03586 10.3377 9.08264 10.5067C9.12942 10.6757 9.21911 10.8298 9.34299 10.9539L13.0285 14.6394C13.1527 14.7635 13.307 14.8533 13.4763 14.9001C13.6456 14.9469 13.8241 14.9491 13.9945 14.9064L17.278 14.0859C17.6629 13.9896 18.0647 13.9821 18.4529 14.064C18.8411 14.1459 19.2057 14.3149 19.519 14.5584L22.978 17.2494C24.2215 18.2169 24.3355 20.0544 23.2225 21.1659L21.6715 22.7169C20.5615 23.8269 18.9025 24.3144 17.356 23.7699C13.3978 22.3771 9.8039 20.1111 6.84099 17.1399C3.86992 14.1774 1.6039 10.5841 0.210988 6.62636C-0.332012 5.08136 0.155488 3.42086 1.26549 2.31086L2.81649 0.759862H2.81499ZM16.708 2.46236C16.7777 2.39252 16.8604 2.3371 16.9515 2.29929C17.0427 2.26148 17.1403 2.24202 17.239 2.24202C17.3376 2.24202 17.4353 2.26148 17.5264 2.29929C17.6176 2.3371 17.7003 2.39252 17.77 2.46236L19.489 4.18286L21.208 2.46236C21.3488 2.32153 21.5398 2.24241 21.739 2.24241C21.9382 2.24241 22.1292 2.32153 22.27 2.46236C22.4108 2.60319 22.4899 2.7942 22.4899 2.99336C22.4899 3.19253 22.4108 3.38353 22.27 3.52436L20.5495 5.24336L22.27 6.96236C22.4108 7.10319 22.4899 7.2942 22.4899 7.49336C22.4899 7.69253 22.4108 7.88353 22.27 8.02436C22.1292 8.16519 21.9382 8.24431 21.739 8.24431C21.5398 8.24431 21.3488 8.16519 21.208 8.02436L19.489 6.30386L17.77 8.02436C17.7003 8.09409 17.6175 8.14941 17.5264 8.18715C17.4353 8.22489 17.3376 8.24431 17.239 8.24431C17.1404 8.24431 17.0427 8.22489 16.9516 8.18715C16.8605 8.14941 16.7777 8.09409 16.708 8.02436C16.6383 7.95463 16.5829 7.87185 16.5452 7.78074C16.5075 7.68963 16.488 7.59198 16.488 7.49336C16.488 7.39475 16.5075 7.2971 16.5452 7.20599C16.5829 7.11488 16.6383 7.03209 16.708 6.96236L18.4285 5.24336L16.708 3.52436C16.6381 3.45469 16.5827 3.37193 16.5449 3.28081C16.5071 3.1897 16.4876 3.09201 16.4876 2.99336C16.4876 2.89471 16.5071 2.79703 16.5449 2.70591C16.5827 2.61479 16.6381 2.53203 16.708 2.46236Z" fill="black"/>
</g>
<defs>
<clipPath id="clip0_4019_3707">
<rect width="24" height="24" fill="white"/>
</clipPath>
</defs>
</svg>
