<svg width="24" height="24" viewBox="0 0 24 24" fill="none" xmlns="http://www.w3.org/2000/svg">
<g clip-path="url(#clip0_4019_3691)">
<path fill-rule="evenodd" clip-rule="evenodd" d="M23.77 0.198856C23.8398 0.268525 23.8952 0.351288 23.9331 0.442406C23.9709 0.533524 23.9903 0.631205 23.9903 0.729856C23.9903 0.828507 23.9709 0.926189 23.9331 1.01731C23.8952 1.10842 23.8398 1.19119 23.77 1.26086L17.5495 7.47986H21.739C21.9379 7.47986 22.1287 7.55887 22.2693 7.69953C22.41 7.84018 22.489 8.03094 22.489 8.22986C22.489 8.42877 22.41 8.61953 22.2693 8.76019C22.1287 8.90084 21.9379 8.97986 21.739 8.97986H15.739C15.5401 8.97986 15.3493 8.90084 15.2087 8.76019C15.068 8.61953 14.989 8.42877 14.989 8.22986V2.22986C14.989 2.03094 15.068 1.84018 15.2087 1.69953C15.3493 1.55887 15.5401 1.47986 15.739 1.47986C15.9379 1.47986 16.1287 1.55887 16.2693 1.69953C16.41 1.84018 16.489 2.03094 16.489 2.22986V6.41936L22.708 0.198856C22.7777 0.129011 22.8604 0.0735972 22.9515 0.0357875C23.0427 -0.00202217 23.1403 -0.0214844 23.239 -0.0214844C23.3376 -0.0214844 23.4353 -0.00202217 23.5264 0.0357875C23.6176 0.0735972 23.7003 0.129011 23.77 0.198856ZM5.46999 1.97186C5.38144 1.85795 5.26966 1.76418 5.14209 1.69679C5.01452 1.6294 4.87407 1.58993 4.73007 1.58099C4.58606 1.57205 4.44181 1.59386 4.30688 1.64495C4.17196 1.69605 4.04944 1.77527 3.94749 1.87736L2.39649 3.42986C1.67199 4.15586 1.40499 5.18336 1.72149 6.08486C3.0351 9.81624 5.17193 13.204 7.97349 15.9969C10.7664 18.7984 14.1541 20.9352 17.8855 22.2489C18.787 22.5654 19.8145 22.2984 20.5405 21.5739L22.0915 20.0229C22.1936 19.9209 22.2728 19.7984 22.3239 19.6635C22.375 19.5285 22.3968 19.3843 22.3879 19.2403C22.3789 19.0963 22.3394 18.9558 22.2721 18.8283C22.2047 18.7007 22.1109 18.5889 21.997 18.5004L18.5365 15.8094C18.4148 15.715 18.2733 15.6495 18.1225 15.6178C17.9718 15.5861 17.8159 15.589 17.6665 15.6264L14.3815 16.4469C13.943 16.5564 13.4836 16.5506 13.0481 16.43C12.6125 16.3093 12.2156 16.0779 11.896 15.7584L8.21199 12.0729C7.89214 11.7534 7.66048 11.3566 7.53956 10.921C7.41864 10.4854 7.41258 10.026 7.52199 9.58736L8.34399 6.30236C8.38135 6.15295 8.38429 5.99701 8.35259 5.8463C8.32089 5.69559 8.25537 5.55405 8.16099 5.43236L5.46999 1.97186ZM2.81499 0.746356C3.07748 0.483781 3.39283 0.280052 3.7401 0.148698C4.08736 0.0173445 4.4586 -0.0386285 4.82916 -0.0155041C5.19972 0.00762032 5.56112 0.109313 5.88936 0.282821C6.2176 0.45633 6.50518 0.697684 6.73299 0.990856L9.42399 4.44986C9.91749 5.08436 10.0915 5.91086 9.89649 6.69086L9.07599 9.97586C9.03357 10.146 9.03586 10.3242 9.08264 10.4932C9.12942 10.6622 9.21911 10.8162 9.34299 10.9404L13.0285 14.6259C13.1527 14.75 13.307 14.8398 13.4763 14.8866C13.6456 14.9334 13.8241 14.9356 13.9945 14.8929L17.278 14.0724C17.6629 13.9761 18.0647 13.9686 18.4529 14.0505C18.8411 14.1324 19.2057 14.3014 19.519 14.5449L22.978 17.2359C24.2215 18.2034 24.3355 20.0409 23.2225 21.1524L21.6715 22.7034C20.5615 23.8134 18.9025 24.3009 17.356 23.7564C13.3978 22.3636 9.8039 20.0976 6.84099 17.1264C3.86992 14.1639 1.6039 10.5705 0.210988 6.61286C-0.332012 5.06786 0.155488 3.40736 1.26549 2.29736L2.81649 0.746356H2.81499Z" fill="black"/>
</g>
<defs>
<clipPath id="clip0_4019_3691">
<rect width="24" height="24" fill="white"/>
</clipPath>
</defs>
</svg>
