<svg width="24" height="24" viewBox="0 0 24 24" fill="none" xmlns="http://www.w3.org/2000/svg">
<g clip-path="url(#clip0_4019_3689)">
<path fill-rule="evenodd" clip-rule="evenodd" d="M2.81649 0.746356C3.07895 0.484289 3.39411 0.280994 3.74108 0.149941C4.08806 0.0188888 4.45892 -0.0369277 4.8291 -0.0138093C5.19927 0.00930898 5.56031 0.110834 5.88828 0.284038C6.21625 0.457243 6.50367 0.698171 6.73149 0.990856L9.42399 4.44986C9.91749 5.08436 10.0915 5.91086 9.89649 6.69086L9.07599 9.97586C9.03357 10.146 9.03586 10.3242 9.08264 10.4932C9.12942 10.6622 9.21911 10.8162 9.34299 10.9404L13.0285 14.6259C13.1527 14.75 13.307 14.8398 13.4763 14.8866C13.6456 14.9334 13.8241 14.9356 13.9945 14.8929L17.278 14.0724C17.6629 13.9761 18.0647 13.9686 18.4529 14.0505C18.8411 14.1324 19.2057 14.3014 19.519 14.5449L22.978 17.2359C24.2215 18.2034 24.3355 20.0409 23.2225 21.1524L21.6715 22.7034C20.5615 23.8134 18.9025 24.3009 17.356 23.7564C13.3978 22.3636 9.8039 20.0976 6.84099 17.1264C3.86992 14.1639 1.6039 10.5705 0.210988 6.61286C-0.332012 5.06786 0.155488 3.40736 1.26549 2.29736L2.81649 0.746356ZM23.77 0.198856C23.8398 0.268525 23.8952 0.351288 23.9331 0.442406C23.9709 0.533524 23.9903 0.631205 23.9903 0.729856C23.9903 0.828507 23.9709 0.926189 23.9331 1.01731C23.8952 1.10842 23.8398 1.19119 23.77 1.26086L17.5495 7.47986H21.739C21.9379 7.47986 22.1287 7.55887 22.2693 7.69953C22.41 7.84018 22.489 8.03094 22.489 8.22986C22.489 8.42877 22.41 8.61953 22.2693 8.76019C22.1287 8.90084 21.9379 8.97986 21.739 8.97986H15.739C15.5401 8.97986 15.3493 8.90084 15.2087 8.76019C15.068 8.61953 14.989 8.42877 14.989 8.22986V2.22986C14.989 2.03094 15.068 1.84018 15.2087 1.69953C15.3493 1.55887 15.5401 1.47986 15.739 1.47986C15.9379 1.47986 16.1287 1.55887 16.2693 1.69953C16.41 1.84018 16.489 2.03094 16.489 2.22986V6.41936L22.708 0.198856C22.7777 0.129011 22.8604 0.0735972 22.9515 0.0357875C23.0427 -0.00202217 23.1403 -0.0214844 23.239 -0.0214844C23.3376 -0.0214844 23.4353 -0.00202217 23.5264 0.0357875C23.6176 0.0735972 23.7003 0.129011 23.77 0.198856Z" fill="black"/>
</g>
<defs>
<clipPath id="clip0_4019_3689">
<rect width="24" height="24" fill="white"/>
</clipPath>
</defs>
</svg>
