<svg width="24" height="24" viewBox="0 0 24 24" fill="none" xmlns="http://www.w3.org/2000/svg">
<path d="M11.4555 19.5003V5.50378H9.5685V11.4303H2.637V5.50528H0.75V19.5003H2.637V13.0923H9.567V19.5003H11.4555ZM16.893 13.0923H18.42C20.133 13.0923 21.3225 14.0973 21.3435 15.6033C21.363 17.1108 20.1735 18.2088 18.3285 18.1983C16.7085 18.1878 15.549 17.3163 15.426 16.2183H13.662C13.7655 18.2088 15.498 19.7973 18.2865 19.7973C21.189 19.7973 23.301 18.0648 23.25 15.6138C23.2095 13.3488 21.3735 12.3738 20.1945 12.2403V12.1383C21.2505 11.9538 22.8405 10.7733 22.779 8.79478C22.7265 6.76528 21.015 5.19478 18.348 5.21728C15.5385 5.22628 14.0625 6.96028 14.001 8.75428H15.795C15.888 7.71928 16.8615 6.80578 18.339 6.80578C19.836 6.80578 20.8815 7.73878 20.8815 9.09328C20.892 10.4763 19.8045 11.4813 18.339 11.4813H16.893V13.0923Z" fill="black"/>
</svg>
