<svg width="24" height="24" viewBox="0 0 24 24" fill="none" xmlns="http://www.w3.org/2000/svg">
<path d="M12.788 19.7462C9.55847 19.7462 7.40447 18.0857 7.23047 15.5312H9.07547C9.29147 17.1213 10.769 18.0857 12.8915 18.0857C14.9015 18.0857 16.3565 17.0282 16.3565 15.5732C16.3565 14.3328 15.536 13.5122 13.4855 13.0608L12.0665 12.7503H17.2415C17.9435 13.4058 18.254 14.2412 18.254 15.2957C18.254 18.0347 16.1 19.7462 12.788 19.7462ZM9.90047 9.75025H7.74797C7.646 9.37895 7.59602 8.99529 7.59947 8.61025C7.59947 6.16975 9.75347 4.45825 12.8195 4.45825C15.773 4.45825 17.9045 6.22075 17.987 8.73325H16.142C15.977 7.11325 14.696 6.11875 12.767 6.11875C10.922 6.11875 9.49697 7.02175 9.49697 8.52925C9.49697 8.99425 9.62147 9.40075 9.90197 9.75025H9.90047Z" fill="black"/>
<path fill-rule="evenodd" clip-rule="evenodd" d="M22.5 12.75H1.5V11.25H22.5V12.75Z" fill="black"/>
</svg>
